<?xml version="1.0" encoding="UTF-8"?>
<svg version="1.1" xmlns="http://www.w3.org/2000/svg" width="535" height="535">
<path d="M0 0 C3.83081385 2.64508575 6.16180173 5.07550649 7.375 9.625 C7.4575 10.346875 7.54 11.06875 7.625 11.8125 C8.13289062 11.41417969 8.64078125 11.01585937 9.1640625 10.60546875 C15.55984669 5.68287081 20.73679107 2.00467917 29.0859375 2.26953125 C33.76180508 3.26944755 36.75670097 6.09805275 39.625 9.8125 C40.74912249 12.23873104 41.189327 14.1440029 41.625 16.8125 C42.7231604 16.97468018 42.7231604 16.97468018 43.84350586 17.14013672 C51.12514684 18.27576817 58.12172574 19.85239236 65.1875 21.9375 C66.74114258 22.39491577 66.74114258 22.39491577 68.32617188 22.86157227 C78.08398382 25.81755356 87.38984861 29.50790955 96.625 33.8125 C97.3149707 34.13331543 98.00494141 34.45413086 98.71582031 34.78466797 C133.76917348 51.28874554 165.7357603 76.08763658 190.625 105.8125 C191.0679541 106.33634277 191.5109082 106.86018555 191.96728516 107.39990234 C253.74877011 180.72365096 275.3147813 272.55448365 275.07104492 366.53149414 C275.05937183 371.2479391 275.08013899 375.96365543 275.10896206 380.68000507 C275.12737141 384.37860224 275.12702564 388.07702424 275.12132454 391.77565575 C275.121173 393.51575965 275.12707598 395.25587671 275.13961601 396.99593544 C275.25561497 415.65377709 270.37550653 428.78957517 257.4375 442.5 C247.79758261 451.63783836 236.32034042 458.64004314 224.625 464.8125 C224.00254395 465.15071777 223.38008789 465.48893555 222.73876953 465.83740234 C197.26269118 479.52100454 167.81619446 487.17734886 139.625 492.8125 C138.47644531 493.04517578 137.32789063 493.27785156 136.14453125 493.51757812 C120.99223718 496.52235508 105.79250734 498.48483386 90.4375 500.0625 C89.63023468 500.14567474 88.82296936 500.22884949 87.99124146 500.31454468 C67.96383281 502.34818502 48.06726516 503.05208827 27.9375 503.0625 C26.75513763 503.06317474 25.57277527 503.06384949 24.35458374 503.06454468 C-49.62598205 502.99798127 -149.2760817 495.46539847 -204.66796875 440.68359375 C-215.34831481 429.35595399 -222.1166327 415.29027634 -221.8828125 399.57421875 C-220.59484191 390.03332894 -214.76257455 382.17317897 -209.2109375 374.57421875 C-199.42278612 359.85033997 -195.21337752 345.77806565 -198.4375 328.125 C-199.9098183 321.28674437 -201.82270841 314.59707983 -203.75 307.875 C-211.31282475 281.4399697 -216.56438186 253.91335911 -216.5078125 226.3359375 C-216.50876923 225.28524078 -216.50972595 224.23454407 -216.51071167 223.15200806 C-216.51138718 220.94866882 -216.50957717 218.74532752 -216.50537109 216.54199219 C-216.50000305 213.18940735 -216.50534316 209.8369558 -216.51171875 206.484375 C-216.51105807 204.33072887 -216.50977711 202.17708283 -216.5078125 200.0234375 C-216.50983673 199.03258148 -216.51186096 198.04172546 -216.51394653 197.02084351 C-216.49659722 191.820538 -216.24323229 186.8130647 -215.44488525 181.67016602 C-215.32397084 178.45606017 -216.96713729 176.78083629 -219 174.4375 C-232.179995 157.7963237 -236.11699977 134.27444457 -233.75 113.5 C-230.28448664 93.62493661 -218.75314105 77.66028594 -202.45581055 66.18261719 C-189.93222163 58.20979189 -176.48979799 52.86135581 -162.4375 48.3125 C-160.98935601 47.83532223 -159.54136012 47.35769481 -158.09350586 46.87963867 C-149.59493898 44.09082167 -141.05229708 41.53344548 -132.4375 39.125 C-122.2439481 36.24410324 -112.89383539 32.42410969 -103.375 27.8125 C-101.2815955 26.81177692 -99.18782053 25.81182862 -97.09375 24.8125 C-92.81831808 22.76849 -88.54975972 20.71102014 -84.28515625 18.64453125 C-63.9692888 8.86306517 -63.9692888 8.86306517 -54.375 9.8125 C-51.22757545 11.03649844 -49.09483799 11.89634256 -47 14.5625 C-45.245538 16.177166 -45.245538 16.177166 -41.80859375 15.7890625 C-36.3641003 15.00638599 -32.92134289 11.88818434 -28.8125 8.4375 C-19.9463492 1.12751429 -11.76531445 -4.13964768 0 0 Z " fill="#FBC11A" transform="translate(239.375,23.1875)"/>
<path d="M0 0 C3.49406769 1.66762322 4.82670681 2.74006022 7 6 C7.9990003 14.49150251 4.03481812 19.88539363 -0.9375 26.375 C-12.48740908 39.88064448 -28.68898651 48.05851458 -43.75195312 57.05859375 C-62.68252274 68.30677544 -62.68252274 68.30677544 -79 83 C-79.50169415 86.16926564 -79.50169415 86.16926564 -79 89 C-77.9236509 90.26254923 -77.9236509 90.26254923 -75.4375 90.5 C-69.59003464 89.64945958 -66.23544431 85.21176375 -62.15625 81.17578125 C-53.75670657 73.22621336 -43.5817447 67.60818936 -33.74658203 61.63037109 C-24.94886255 56.28297286 -16.78522922 50.79189853 -9 44 C-8.22269531 43.36707031 -7.44539062 42.73414063 -6.64453125 42.08203125 C2.07666614 34.80185787 8.04942044 26.12557428 13.0625 16.0625 C15.57012242 11.11770093 17.7704051 7.0899375 22.921875 4.60546875 C26.74592699 3.49131826 30.09189888 3.108418 34 4 C37.0625 5.875 37.0625 5.875 39 9 C40.42058614 16.1663497 38.4765683 22.73238391 35 29 C32.55116119 32.53782582 29.83801377 35.76949496 27 39 C26.27296875 39.84820312 25.5459375 40.69640625 24.796875 41.5703125 C11.9312322 56.28033067 -3.5253908 65.46858339 -20.3125 75.125 C-28.67534262 79.93581947 -36.53636319 84.85952084 -44 91 C-44.88300781 91.67804688 -45.76601562 92.35609375 -46.67578125 93.0546875 C-49.18061225 94.96538495 -49.18061225 94.96538495 -51 98 C-51.25030977 100.58380177 -51.25030977 100.58380177 -51 103 C-49.90645094 104.29524348 -49.90645094 104.29524348 -47.25 104.375 C-42.92978131 103.87651323 -41.95388851 102.11677059 -39 99 C-29.23520728 89.98871097 -18.28551472 83.44903571 -6.87158203 76.75097656 C9.68684694 66.98665708 24.6442325 54.66948438 36 39 C38.4375 39.375 38.4375 39.375 41 40 C42.96666646 43.93333291 42.46068562 48.22474651 41.38671875 52.36328125 C33.82573916 73.2475729 14.54684721 83.26344465 -3.609375 93.640625 C-18.82697046 102.39729839 -33.4039667 112.06224173 -48.01000977 121.79492188 C-48.88645645 122.3774472 -49.76290314 122.95997253 -50.66590881 123.56015015 C-52.32306217 124.66217204 -53.97824462 125.76716559 -55.63108826 126.87564087 C-67.95783343 135.07228888 -67.95783343 135.07228888 -76 134 C-77.73405835 133.51723816 -79.46280155 133.01520153 -81.1875 132.5 C-93.19442506 129.27676694 -108.03894669 129.66907376 -120 133 C-121.46953125 133.4021875 -121.46953125 133.4021875 -122.96875 133.8125 C-132.61804905 136.73653001 -142.07847406 141.47309278 -149 149 C-150.46425533 151.68479876 -150.46425533 151.68479876 -151 154 C-146.29603575 152.04448635 -141.81871644 149.88656759 -137.3125 147.5 C-120.82950453 139.22381035 -99.89462401 138.15501287 -82 143 C-81.34 143.33 -80.68 143.66 -80 144 C-72.85824406 144.72130942 -68.4915118 142.7482688 -62.3125 139.3125 C-61.40838379 138.82426758 -60.50426758 138.33603516 -59.57275391 137.83300781 C-48.1848395 131.59709683 -37.21208218 124.6608285 -26.30859375 117.62109375 C-25.31988281 116.98300781 -24.33117187 116.34492188 -23.3125 115.6875 C-22.50425781 115.15511719 -21.69601563 114.62273437 -20.86328125 114.07421875 C-19 113 -19 113 -17 113 C-14.62572848 115.90188741 -14.00735173 117.60300666 -13.9375 121.375 C-16.33672417 129.56058835 -23.33046989 133.99989017 -30.125 138.5625 C-31.91171016 139.78609069 -33.698161 141.01006012 -35.484375 142.234375 C-36.39638672 142.85505859 -37.30839844 143.47574219 -38.24804688 144.11523438 C-41.80210973 146.54935123 -45.31913601 149.03393122 -48.83642578 151.52075195 C-84.21308037 176.48990641 -121.92047 194.99225022 -166.6484375 188.27734375 C-181.39053223 185.57810726 -194.30510907 179.81582636 -207 172 C-208.5778125 171.04287109 -208.5778125 171.04287109 -210.1875 170.06640625 C-214.87344772 166.62353633 -217.21834874 162.01991018 -220 157 C-220.51304687 156.1028125 -221.02609375 155.205625 -221.5546875 154.28125 C-228.66155603 139.98720935 -225.79164535 119.49142385 -221.25 104.75 C-213.18001586 82.61688173 -197.27395179 68.68234196 -176.453125 58.81640625 C-160.11032206 51.34573579 -142.87151316 46.27507926 -125.58203125 41.48828125 C-106.3394883 36.10809071 -76.32142603 27.32142603 -62 13 C-57.24277012 12.46260922 -53.24421537 12.36519624 -48.9375 14.5625 C-46.34197325 17.8278401 -45.92823061 19.83737538 -46 24 C-50.56168346 33.71836912 -61.20611625 37.77216987 -70.45547485 41.92184448 C-73.81696309 43.43238437 -77.16173865 44.97912514 -80.5078125 46.5234375 C-81.16225845 46.82481125 -81.81670441 47.126185 -82.49098206 47.43669128 C-101.22333462 54.8105303 -101.22333462 54.8105303 -114.7890625 67.953125 C-115.22774833 70.06355542 -115.22774833 70.06355542 -115 73 C-113.86137288 74.34504304 -113.86137288 74.34504304 -110.859375 74.37109375 C-106.12186938 73.91556436 -103.76121746 72.00928477 -100.25 69.0625 C-92.50839698 62.98128388 -84.28178138 59.04891569 -75.33251953 55.05419922 C-51.80488325 44.77650503 -51.80488325 44.77650503 -35.8125 25.625 C-32.32132373 18.90038531 -25.88282953 14.54716206 -20 10 C-19.42604492 9.55495117 -18.85208984 9.10990234 -18.26074219 8.65136719 C-6.39026681 -0.5011974 -6.39026681 -0.5011974 0 0 Z " fill="#FBC11A" transform="translate(235,33)"/>
<path d="M0 0 C3.83081385 2.64508575 6.16180173 5.07550649 7.375 9.625 C7.4575 10.346875 7.54 11.06875 7.625 11.8125 C8.13289062 11.41417969 8.64078125 11.01585937 9.1640625 10.60546875 C15.56562467 5.67842371 20.73442324 2.02202272 29.0859375 2.26171875 C33.67475655 3.2571395 36.76923818 6.19380181 39.625 9.8125 C41.71792253 13.82166977 41.89449078 17.26224724 41.875 21.75 C41.88015625 22.93464844 41.8853125 24.11929688 41.890625 25.33984375 C41.62493706 28.81332283 40.87120553 31.57335468 39.625 34.8125 C40.615 35.1425 41.605 35.4725 42.625 35.8125 C48.30827454 44.67172207 49.22925591 54.34300272 47.01171875 64.66796875 C38.26985386 88.89102168 8.29865423 103.92641697 -12.375 116.8125 C-12.14449951 117.42134033 -11.91399902 118.03018066 -11.67651367 118.6574707 C-9.70638682 123.95454951 -8.89672819 128.16889269 -9.375 133.8125 C-10.01154342 135.1604743 -10.67105388 136.49846724 -11.375 137.8125 C-11.0885201 140.41734506 -10.66701263 141.53860749 -8.73828125 143.34765625 C-8.06152344 143.85167969 -7.38476562 144.35570312 -6.6875 144.875 C1.30675513 151.60624893 4.736129 160.59048352 5.625 170.8125 C6.67977347 183.99716835 3.99884968 194.99263991 -4.2265625 205.49609375 C-9.55720249 211.24349287 -16.06500281 214.40065582 -23.890625 215.1484375 C-33.66167238 215.25064511 -42.41068737 214.37601668 -49.93359375 207.49609375 C-56.00546286 200.40401899 -60.08304423 192.71021249 -61.5 183.5 C-61.66757813 182.43136719 -61.83515625 181.36273438 -62.0078125 180.26171875 C-62.12898437 179.45347656 -62.25015625 178.64523438 -62.375 177.8125 C-63.21417969 178.34617188 -64.05335938 178.87984375 -64.91796875 179.4296875 C-99.57994363 201.07989349 -136.97344894 210.83589975 -177.5 211.125 C-178.25632721 211.13462769 -179.01265442 211.14425537 -179.79190063 211.1541748 C-206.83387913 211.4487665 -206.83387913 211.4487665 -216.375 205.8125 C-216.75797872 187.47207447 -216.75797872 187.47207447 -214.375 178.8125 C-213.41013672 179.46605469 -213.41013672 179.46605469 -212.42578125 180.1328125 C-187.31822358 196.68016149 -157.4719301 201.68790183 -127.875 196.75 C-125.33414512 196.1640701 -122.87263778 195.54037614 -120.375 194.8125 C-119.57191406 194.58143555 -118.76882812 194.35037109 -117.94140625 194.11230469 C-105.76571418 190.51658582 -94.49825566 185.90202636 -83.375 179.8125 C-82.23160156 179.20921875 -81.08820313 178.6059375 -79.91015625 177.984375 C-71.4711703 173.38304933 -63.84102354 167.94754092 -56.11328125 162.2578125 C-51.28306756 158.71397689 -46.33859689 155.35315932 -41.375 152 C-27.89285952 143.99729409 -27.89285952 143.99729409 -19.375 131.8125 C-19.63213968 128.53396912 -20.33697039 125.92658883 -21.375 122.8125 C-22.88900391 123.74255859 -22.88900391 123.74255859 -24.43359375 124.69140625 C-29.40765177 127.74231033 -34.3903779 130.77889342 -39.375 133.8125 C-40.40222168 134.43833984 -41.42944336 135.06417969 -42.48779297 135.70898438 C-45.73864326 137.68635132 -48.99381441 139.65643338 -52.25 141.625 C-53.2702124 142.24640869 -54.2904248 142.86781738 -55.34155273 143.50805664 C-77.1292958 156.64258649 -77.1292958 156.64258649 -88.5 153.875 C-89.10070312 153.70097656 -89.70140625 153.52695313 -90.3203125 153.34765625 C-110.09602718 148.19694729 -129.71387589 151.82088733 -147.31640625 161.32421875 C-150.0882826 162.67298617 -152.34218714 163.38892278 -155.375 163.8125 C-154.71890717 158.31653396 -152.33798637 156.32779823 -148.234375 152.87109375 C-131.50800446 140.82902097 -112.46545987 138.52327263 -92.375 139.8125 C-89.08746445 140.40090386 -85.99745762 141.18533019 -82.796875 142.12109375 C-77.04190905 143.76404371 -72.93116397 143.34180072 -67.625 140.44140625 C-60.69162628 136.5563509 -54.15545264 132.10188122 -47.58422852 127.6427002 C-34.75117019 118.94357087 -21.80965861 110.55968988 -8.375 102.8125 C1.31147619 97.21962722 10.76116876 91.67884815 19.625 84.8125 C20.676875 84.049375 21.72875 83.28625 22.8125 82.5 C29.90868511 75.71920089 35.93131303 67.54977769 36.828125 57.546875 C36.8896219 54.69751858 36.91580633 52.39411267 35.625 49.8125 C32.21241486 50.0933958 30.88286299 50.54908161 28.44921875 53.03515625 C27.74410156 53.97230469 27.03898437 54.90945312 26.3125 55.875 C15.3571696 69.8295766 1.87780274 79.90174532 -13.375 88.8125 C-21.76581669 93.72329461 -29.89791898 98.54749317 -37.375 104.8125 C-37.93574219 105.26367188 -38.49648437 105.71484375 -39.07421875 106.1796875 C-41.56588444 108.20063549 -43.73868952 110.22165071 -45.875 112.625 C-48.375 114.8125 -48.375 114.8125 -51.5625 115.25 C-54.375 114.8125 -54.375 114.8125 -56.375 112.8125 C-56.8125 110.5625 -56.8125 110.5625 -56.375 107.8125 C-53.12175543 103.46098856 -49.58814632 100.07232042 -45.1875 96.875 C-44.56093506 96.41609375 -43.93437012 95.9571875 -43.28881836 95.484375 C-35.86983371 90.21822459 -27.91956627 85.85691142 -20.01635742 81.37036133 C-0.26683569 70.11461025 26.03395024 54.04081612 33.2265625 30.875 C34.19122493 25.8814533 34.67201584 20.72444197 32.1875 16.1875 C28.35847212 14.13289968 24.84951636 13.79431567 20.625 14.8125 C14.06185359 17.77875303 11.18614129 21.36434695 8.3125 27.8125 C-2.62264866 50.10604712 -22.20372582 62.83549488 -42.88476562 75.32861328 C-52.31980274 81.04809896 -61.02668607 86.69578431 -68.9296875 94.4375 C-75.37191766 100.69449031 -75.37191766 100.69449031 -79.5625 101.1875 C-82.375 100.8125 -82.375 100.8125 -84.375 98.8125 C-84.77071306 95.47395531 -84.84511648 93.5437923 -83.00390625 90.6796875 C-70.7999039 78.91401416 -56.36012582 70.50025673 -41.76696777 62.07925415 C-32.59891898 56.78675223 -23.72711109 51.34725359 -15.375 44.8125 C-14.54355469 44.19890625 -13.71210938 43.5853125 -12.85546875 42.953125 C-9.85483884 40.36360501 -7.56858781 37.5269695 -5.1875 34.375 C-4.74986328 33.81490234 -4.31222656 33.25480469 -3.86132812 32.67773438 C0.49436332 26.97876099 2.02399217 22.9943591 1.625 15.8125 C0.95701258 12.67039795 0.95701258 12.67039795 -1.5625 11.625 C-5.53686263 10.4768508 -8.39830638 9.84865766 -12.265625 11.734375 C-22.48976866 18.17179879 -35.47201117 27.98625442 -41.25 38.6875 C-50.17862884 53.85270879 -67.60656249 60.10915481 -82.99414062 67.16430664 C-92.38358529 71.48469513 -100.28953258 76.35691269 -108.375 82.8125 C-112.04846771 85.26147847 -114.03856399 85.12787716 -118.375 84.8125 C-120.375 82.8125 -120.375 82.8125 -120.625 79.6875 C-119.57894898 73.89691372 -113.89169537 70.95969311 -109.375 67.8125 C-105.17818732 65.30144767 -100.86901264 63.06998695 -96.5 60.875 C-95.31052641 60.26679325 -94.12132084 59.65806208 -92.93237305 59.04882812 C-85.0232788 55.02200731 -77.01610697 51.23417746 -68.81884766 47.82836914 C-62.48205018 45.12751844 -56.79952957 41.67785313 -52.3125 36.375 C-50.99946272 32.78603144 -51.36019114 30.4658119 -52.375 26.8125 C-55.14711462 24.18598446 -57.18038586 23.35384601 -60.9765625 23.28515625 C-67.1904252 23.48637354 -71.53120941 26.09257959 -76.75 29.25 C-78.68420538 30.36122318 -80.62178452 31.46659225 -82.5625 32.56640625 C-83.531875 33.11699707 -84.50125 33.66758789 -85.5 34.23486328 C-92.87511794 38.28190915 -100.62291614 41.56365207 -108.375 44.8125 C-109.00905762 45.08223633 -109.64311523 45.35197266 -110.29638672 45.62988281 C-119.10026664 49.32593042 -128.16818992 51.94472095 -137.34158325 54.54785156 C-185.56794549 68.21194025 -185.56794549 68.21194025 -219.52270508 103.14233398 C-227.61917059 118.4175196 -228.54349052 133.80063392 -229.375 150.8125 C-236.3170416 140.3994376 -235.21894764 121.92456066 -233.16015625 110.1171875 C-228.64859721 91.12823751 -216.91423969 75.38720945 -200.5 64.9375 C-188.4007363 57.7270597 -175.78828927 52.6342711 -162.4375 48.3125 C-160.98935601 47.83532223 -159.54136012 47.35769481 -158.09350586 46.87963867 C-149.59493898 44.09082167 -141.05229708 41.53344548 -132.4375 39.125 C-122.2439481 36.24410324 -112.89383539 32.42410969 -103.375 27.8125 C-101.2815955 26.81177692 -99.18782053 25.81182862 -97.09375 24.8125 C-92.81831808 22.76849 -88.54975972 20.71102014 -84.28515625 18.64453125 C-63.9692888 8.86306517 -63.9692888 8.86306517 -54.375 9.8125 C-51.22757545 11.03649844 -49.09483799 11.89634256 -47 14.5625 C-45.245538 16.177166 -45.245538 16.177166 -41.80859375 15.7890625 C-36.3641003 15.00638599 -32.92134289 11.88818434 -28.8125 8.4375 C-19.9463492 1.12751429 -11.76531445 -4.13964768 0 0 Z " fill="#F09400" transform="translate(239.375,23.1875)"/>
<path d="M0 0 C7.40770353 5.82288234 11.20182383 13.89453525 13.25 22.875 C13.43046875 23.48859375 13.6109375 24.1021875 13.796875 24.734375 C16.31137138 36.61320273 13.71659464 48.14348339 7.7109375 58.5390625 C2.69598208 65.64556331 -4.56093415 70.12026837 -12.75 72.875 C-22.18347374 73.88949368 -30.2334623 72.58311728 -38 67.0625 C-46.1809585 60.40433377 -49.45151572 52.77045283 -52.75 42.875 C-53.39815231 28.61564911 -52.92029623 16.14635691 -43.5 4.6875 C-31.46422486 -8.43072172 -14.83162879 -9.30287431 0 0 Z " fill="#432C0D" transform="translate(390.75,149.125)"/>
<path d="M0 0 C8.03147411 3.66791731 12.72472946 10.99303154 15.984375 18.90625 C19.67035345 31.13377467 19.14181138 44.22958224 13.984375 55.90625 C8.58939813 65.33552373 2.45214141 70.96457842 -8.015625 73.90625 C-18.83366302 74.93997363 -27.10353408 73.7317206 -36.203125 67.84375 C-43.08336138 61.55156801 -47.93358145 52.1036202 -49.015625 42.90625 C-49.19609375 41.648125 -49.3765625 40.39 -49.5625 39.09375 C-49.53826066 36.37739013 -49.36009124 35.28863344 -47.52294922 33.24926758 C-45.29819374 31.59394038 -43.01742026 30.14734713 -40.640625 28.71875 C-38.89304346 27.5973673 -37.14698672 26.47360531 -35.40234375 25.34765625 C-34.50692871 24.78062988 -33.61151367 24.21360352 -32.68896484 23.62939453 C-28.5137507 20.93819257 -24.4781284 18.06572062 -20.453125 15.15625 C-19.70546875 14.6202417 -18.9578125 14.0842334 -18.1875 13.53198242 C-13.05612535 9.80335945 -8.41980211 5.84310349 -3.9609375 1.3203125 C-2.015625 -0.09375 -2.015625 -0.09375 0 0 Z " fill="#432C0D" transform="translate(227.015625,164.09375)"/>
<path d="M0 0 C2 2 2 2 2.5 4.6875 C1.77801767 9.47063295 -0.40497213 11.98726538 -4 15 C-24.07096765 28.27927658 -47.32919261 34.26077794 -71 37 C-72.09570312 37.13148438 -73.19140625 37.26296875 -74.3203125 37.3984375 C-87.2539477 38.70237347 -100.24569945 38.61252212 -113 36 C-114.61261719 35.67322266 -114.61261719 35.67322266 -116.2578125 35.33984375 C-123.37481347 33.73983002 -128.79608041 32.30587939 -133 26 C-132.9375 23.5 -132.9375 23.5 -132 21 C-128.40192842 18.40476248 -125.14848595 17.39080395 -120.8203125 16.5703125 C-118.98484863 16.21706909 -118.98484863 16.21706909 -117.11230469 15.85668945 C-115.78330094 15.61226051 -114.45419656 15.36837826 -113.125 15.125 C-111.7437489 14.86517917 -110.36256505 14.60500064 -108.98144531 14.34448242 C-95.46146286 11.81780005 -81.88754426 9.63250689 -68.29785156 7.51855469 C-65.52627572 7.08275168 -62.75862592 6.63109358 -59.9921875 6.1640625 C-50.47123689 4.56783554 -40.91074662 3.28971704 -31.33270264 2.08987427 C-29.88646609 1.90817009 -28.44052747 1.72407499 -26.99493408 1.537323 C-8.2780888 -0.86737628 -8.2780888 -0.86737628 0 0 Z " fill="#442D0D" transform="translate(376,265)"/>
<path d="M0 0 C0.99 0 1.98 0 3 0 C3.38253186 6.33302745 2.43672746 10.4771125 -0.375 16.125 C-0.73223145 16.85855713 -1.08946289 17.59211426 -1.45751953 18.34790039 C-8.17418543 31.69319681 -18.76183928 48.01141738 -33 54 C-36.27962656 54.36440295 -38.06699268 54.46650366 -41 53 C-41.375 50.8984375 -41.375 50.8984375 -41 48 C-39.27361638 45.59451028 -37.15681778 43.64310618 -35 41.625 C-34.40348633 41.0470166 -33.80697266 40.4690332 -33.19238281 39.87353516 C-30.13233884 36.9304197 -27.00571837 34.10133327 -23.75 31.375 C-15.74438127 24.51304109 -10.03848876 15.84295525 -4.7265625 6.84765625 C-1.75647866 1.94903381 -1.75647866 1.94903381 0 0 Z " fill="#F09300" transform="translate(90,115)"/>
<path d="M0 0 C3.22153655 2.14110303 6.25264061 4.50528122 8 8 C8.56364579 12.03113758 9.06277329 16.18818723 6.94140625 19.8046875 C4.88916918 21.7735003 2.82993989 22.89807756 -0.00390625 23.24609375 C-3.97363679 23.01258019 -5.75357108 22.20357172 -8.875 19.625 C-12.13898354 15.59302034 -13.45078573 13.29051144 -13.32421875 8.00390625 C-12.81165729 4.83590593 -11.2877535 3.15702473 -9 1 C-5.56007621 -0.14664126 -3.60917881 -0.48585099 0 0 Z " fill="#875F23" transform="translate(382,158)"/>
<path d="M0 0 C4.30029553 2.48461519 6.24893907 5.39194493 8 10 C8.56854448 13.97981137 8.37330632 15.44004053 6.125 18.8125 C3.24806179 21.77405404 2.45610802 21.9543892 -1.75 22.375 C-5.05998339 22.34490924 -6.8124406 21.78930365 -9.375 19.6875 C-12.42453606 16.56535594 -13.90585535 15.01676225 -14.3125 10.625 C-13.98132511 6.78337131 -13.33032399 5.02079036 -11 2 C-7.30067202 -0.46621866 -4.29258477 -0.67202893 0 0 Z " fill="#875F23" transform="translate(223,175)"/>
</svg>
