<svg version="1.2" xmlns="http://www.w3.org/2000/svg" viewBox="0 0 1000 1000" width="1000" height="1000"><defs><clipPath clipPathUnits="userSpaceOnUse" id="cp1"><path d="m793.16 822.26c32.02 0 57.97-25.96 57.97-57.98v-191.72c0-41.95-34.01-75.96-75.96-75.96 20.29-53.29 0.55-115.65-37.1-158.47-37.64-42.83-90.44-69.22-143.65-89.73-38.04-14.66-82.07-31.8-94.42-70.66-12.35 38.86-56.38 56-94.42 70.66-53.21 20.51-106.01 46.9-143.65 89.73-37.65 42.82-57.39 105.18-37.1 158.47-41.95 0-75.96 34.01-75.96 75.96v191.72c0 32.02 25.95 57.98 57.97 57.98z"/></clipPath><clipPath clipPathUnits="userSpaceOnUse" id="cp2"><path d="m762.91 840.32h78.51v-209.45l-78.51-70.55z"/></clipPath><clipPath clipPathUnits="userSpaceOnUse" id="cp3"><path d="m237.09 840.32h-78.51v-209.45l78.51-70.55z"/></clipPath><clipPath clipPathUnits="userSpaceOnUse" id="cp4"><path d="m887.79 606.38h-775.58v128.23h36.66v29.67c0 32.02 25.95 57.98 57.97 57.98h586.32c32.02 0 57.97-25.96 57.97-57.98v-29.67h36.66z"/></clipPath></defs><style>.a{fill:#fff2e7}.b{mix-blend-mode:screen;fill:#fff2e7}.c{fill:#feb32b}.d{fill:#d49624}.e{mix-blend-mode:multiply;fill:#e6e6e6}.f{fill:#3163ab}.g{fill:#264e85}.h{mix-blend-mode:screen;fill:#3b3b3b}.i{fill:#478ef5}.j{fill:#4080de}.k{opacity:.4;mix-blend-mode:multiply;fill:#3161a8}.l{fill:#3266b0}.m{fill:#fedfa5}.n{fill:#fef6e7}.o{fill:#c78c22}.p{fill:#fec96b}</style><path fill-rule="evenodd" class="a" d="m793.2 850.3h-586.4c-47.4 0-85.9-38.6-85.9-86v-191.7c0-44.3 28.2-83.6 69.5-98.2-7.5-52.5 11-109.9 50.5-154.8 44.5-50.6 106-78.6 154.6-97.3 32.6-12.6 69.5-26.8 77.8-53 3.7-11.7 14.5-19.6 26.7-19.6 12.2 0 23 7.9 26.7 19.6 8.3 26.2 45.2 40.4 77.8 53 48.6 18.7 110.1 46.7 154.6 97.3 39.5 44.9 58 102.3 50.5 154.8 41.3 14.6 69.5 53.9 69.5 98.2v191.7c0 47.4-38.5 86-85.9 86zm-293.2-684.6c-5.2 0-9.8 3.4-11.4 8.4-10.7 33.6-51.4 49.3-87.3 63.1-46.9 18.1-106.2 45-148.4 93-38 43.2-55 98.7-45.6 148.3l1.4 7.3-7.1 1.9c-38.1 10.5-64.7 45.4-64.7 84.9v191.7c0 38.6 31.4 70 69.9 70h586.4c38.5 0 69.9-31.4 69.9-70v-191.7c0-39.5-26.6-74.4-64.7-84.9l-7.1-1.9 1.4-7.3c9.4-49.6-7.6-105.1-45.6-148.3-42.2-48-101.5-74.9-148.4-93-35.9-13.8-76.6-29.5-87.3-63.1-1.6-5-6.2-8.4-11.4-8.4z"/><path class="a" d="m793.2 822.3c32 0 57.9-26 57.9-58v-191.7c0-42-34-76-75.9-76 20.3-53.3 0.5-115.6-37.1-158.5-37.7-42.8-90.5-69.2-143.7-89.7-38-14.7-82-31.8-94.4-70.7-12.4 38.9-56.4 56-94.4 70.7-53.2 20.5-106 46.9-143.7 89.7-37.6 42.9-57.4 105.2-37.1 158.5-41.9 0-75.9 34-75.9 76v191.7c0 32 25.9 58 57.9 58z"/><g clip-path="url(#cp1)"><g style="mix-blend-mode:multiply"><path fill-rule="evenodd" class="a" d="m163.6 922.9q-0.6 0-1.2-0.4l-21.9-12.6c-0.7-0.4-1.2-1.2-1.2-2.1v-142.9c0-0.8 0.5-1.6 1.2-2.1l21.9-12.6c0.8-0.5 1.7-0.5 2.5 0l21.9 12.6c0.7 0.5 1.2 1.3 1.2 2.1v142.9c0 0.9-0.5 1.7-1.2 2.1l-21.9 12.6q-0.6 0.4-1.3 0.4zm-19.5-16.5l19.5 11.2 19.5-11.2v-140.1l-19.5-11.2-19.5 11.2zm41.5 1.4z"/><path fill-rule="evenodd" class="a" d="m198.7 904.8c-0.7 0-1.3-0.3-1.8-0.7l-101-101c-0.6-0.7-0.8-1.5-0.6-2.4l6.5-24.4c0.3-0.9 0.9-1.5 1.8-1.7l24.4-6.6c0.8-0.2 1.7 0 2.3 0.6l101.1 101.1c0.6 0.6 0.8 1.5 0.6 2.3l-6.6 24.4c-0.2 0.9-0.8 1.5-1.7 1.8l-24.4 6.5q-0.3 0.1-0.6 0.1zm-98.4-104.2l99.1 99.1 21.7-5.9 5.9-21.7-99.1-99.1-21.7 5.9z"/><path fill-rule="evenodd" class="a" d="m235.1 860.7h-142.9c-0.9 0-1.7-0.5-2.1-1.2l-12.6-21.9c-0.5-0.8-0.5-1.7 0-2.5l12.6-21.9c0.4-0.7 1.2-1.2 2.1-1.2h142.9c0.8 0 1.6 0.5 2.1 1.2l12.6 21.9c0.5 0.8 0.5 1.7 0 2.5l-12.6 21.9c-0.5 0.7-1.3 1.2-2.1 1.2zm-141.5-4.8h140.1l11.2-19.5-11.2-19.5h-140.1l-11.2 19.5z"/><path fill-rule="evenodd" class="a" d="m128.6 904.8q-0.3 0-0.6-0.1l-24.4-6.5c-0.9-0.3-1.5-0.9-1.8-1.8l-6.5-24.4c-0.2-0.8 0-1.7 0.6-2.3l101-101.1c0.7-0.6 1.5-0.8 2.4-0.6l24.4 6.6c0.9 0.2 1.5 0.8 1.7 1.7l6.6 24.4c0.2 0.9 0 1.7-0.6 2.4l-101.1 101c-0.4 0.4-1 0.7-1.7 0.7zm-22.4-11l21.7 5.9 99.1-99.1-5.9-21.7-21.7-5.9-99.1 99.1z"/><path fill-rule="evenodd" class="a" d="m331.8 922.9q-0.6 0-1.2-0.4l-21.9-12.6c-0.8-0.4-1.2-1.2-1.2-2.1v-142.9c0-0.8 0.4-1.6 1.2-2.1l21.9-12.6c0.8-0.5 1.7-0.5 2.4 0l22 12.6c0.7 0.5 1.2 1.3 1.2 2.1v142.9c0 0.9-0.5 1.7-1.2 2.1l-22 12.6q-0.5 0.4-1.2 0.4zm-19.5-16.5l19.5 11.2 19.5-11.2v-140.1l-19.5-11.2-19.5 11.2zm41.4 1.4h0.1z"/><path fill-rule="evenodd" class="a" d="m366.8 904.8c-0.6 0-1.2-0.3-1.7-0.7l-101-101c-0.6-0.7-0.9-1.5-0.6-2.4l6.5-24.4c0.2-0.9 0.9-1.5 1.7-1.7l24.5-6.6c0.8-0.2 1.7 0 2.3 0.6l101 101.1c0.7 0.6 0.9 1.5 0.7 2.3l-6.6 24.4c-0.2 0.9-0.9 1.5-1.7 1.8l-24.4 6.5q-0.4 0.1-0.7 0.1zm-98.3-104.2l99.1 99.1 21.7-5.9 5.8-21.7-99-99.1-21.8 5.9z"/><path fill-rule="evenodd" class="a" d="m403.3 860.7h-142.9c-0.9 0-1.7-0.5-2.1-1.2l-12.7-21.9c-0.4-0.8-0.4-1.7 0-2.5l12.7-21.9c0.4-0.7 1.2-1.2 2.1-1.2h142.9c0.8 0 1.6 0.5 2.1 1.2l12.6 21.9c0.4 0.8 0.4 1.7 0 2.5l-12.6 21.9c-0.5 0.7-1.3 1.2-2.1 1.2zm-141.5-4.8h140.1l11.2-19.5-11.2-19.5h-140.1l-11.3 19.5z"/><path fill-rule="evenodd" class="a" d="m296.8 904.8q-0.3 0-0.6-0.1l-24.5-6.5c-0.8-0.3-1.5-0.9-1.7-1.8l-6.5-24.4c-0.3-0.8 0-1.7 0.6-2.3l101-101.1c0.6-0.6 1.5-0.8 2.4-0.6l24.4 6.6c0.8 0.2 1.5 0.8 1.7 1.7l6.6 24.4c0.2 0.9 0 1.7-0.7 2.4l-101 101c-0.4 0.4-1.1 0.7-1.7 0.7zm-22.5-11l21.8 5.9 99-99.1-5.8-21.7-21.7-5.9-99.1 99.1z"/><path fill-rule="evenodd" class="a" d="m500 922.9q-0.6 0-1.2-0.4l-21.9-12.6c-0.8-0.4-1.2-1.2-1.2-2.1v-142.9c0-0.8 0.4-1.6 1.2-2.1l21.9-12.6c0.7-0.5 1.7-0.5 2.4 0l21.9 12.6c0.8 0.5 1.2 1.3 1.2 2.1v142.9c0 0.9-0.4 1.7-1.2 2.1l-21.9 12.6q-0.6 0.4-1.2 0.4zm-19.5-16.5l19.5 11.2 19.5-11.2v-140.1l-19.5-11.2-19.5 11.2zm41.4 1.4z"/><path fill-rule="evenodd" class="a" d="m535 904.8c-0.6 0-1.2-0.3-1.7-0.7l-101-101c-0.6-0.7-0.9-1.5-0.6-2.4l6.5-24.4c0.2-0.9 0.9-1.5 1.7-1.7l24.5-6.6c0.8-0.2 1.7 0 2.3 0.6l101 101.1c0.6 0.6 0.9 1.5 0.6 2.3l-6.5 24.4c-0.2 0.9-0.9 1.5-1.7 1.8l-24.5 6.5q-0.3 0.1-0.6 0.1zm-98.3-104.2l99 99.1 21.8-5.9 5.8-21.7-99-99.1-21.8 5.9z"/><path fill-rule="evenodd" class="a" d="m571.4 860.7h-142.8c-0.9 0-1.7-0.5-2.1-1.2l-12.7-21.9c-0.4-0.8-0.4-1.7 0-2.5l12.7-21.9c0.4-0.7 1.2-1.2 2.1-1.2h142.8c0.9 0 1.7 0.5 2.1 1.2l12.7 21.9c0.4 0.8 0.4 1.7 0 2.5l-12.7 21.9c-0.4 0.7-1.2 1.2-2.1 1.2zm-141.4-4.8h140l11.3-19.5-11.3-19.5h-140l-11.3 19.5z"/><path fill-rule="evenodd" class="a" d="m465 904.8q-0.3 0-0.6-0.1l-24.5-6.5c-0.8-0.3-1.5-0.9-1.7-1.8l-6.5-24.4c-0.3-0.8 0-1.7 0.6-2.3l101-101.1c0.6-0.6 1.5-0.8 2.3-0.6l24.5 6.6c0.8 0.2 1.5 0.8 1.7 1.7l6.5 24.4c0.3 0.9 0 1.7-0.6 2.4l-101 101c-0.5 0.4-1.1 0.7-1.7 0.7zm-22.5-11l21.8 5.9 99-99.1-5.8-21.7-21.8-5.9-99 99.1z"/><path fill-rule="evenodd" class="a" d="m668.2 922.9q-0.7 0-1.2-0.4l-22-12.6c-0.7-0.4-1.2-1.2-1.2-2.1v-142.9c0-0.8 0.5-1.6 1.2-2.1l22-12.6c0.7-0.5 1.6-0.5 2.4 0l21.9 12.6c0.8 0.5 1.2 1.3 1.2 2.1v142.9c0 0.9-0.4 1.7-1.2 2.1l-21.9 12.6q-0.6 0.4-1.2 0.4zm-19.5-16.5l19.5 11.2 19.5-11.2v-140.1l-19.5-11.2-19.5 11.2zm41.4 1.4z"/><path fill-rule="evenodd" class="a" d="m703.2 904.8c-0.6 0-1.3-0.3-1.7-0.7l-101-101c-0.7-0.7-0.9-1.5-0.7-2.4l6.6-24.4c0.2-0.9 0.9-1.5 1.7-1.7l24.4-6.6c0.9-0.2 1.8 0 2.4 0.6l101 101.1c0.6 0.6 0.9 1.5 0.6 2.3l-6.5 24.4c-0.2 0.9-0.9 1.5-1.7 1.8l-24.5 6.5q-0.3 0.1-0.6 0.1zm-98.3-104.2l99 99.1 21.8-5.9 5.8-21.7-99.1-99.1-21.7 5.9z"/><path fill-rule="evenodd" class="a" d="m739.6 860.7h-142.9c-0.8 0-1.6-0.5-2.1-1.2l-12.6-21.9c-0.4-0.8-0.4-1.7 0-2.5l12.6-21.9c0.5-0.7 1.3-1.2 2.1-1.2h142.9c0.9 0 1.7 0.5 2.1 1.2l12.7 21.9c0.4 0.8 0.4 1.7 0 2.5l-12.7 21.9c-0.4 0.7-1.2 1.2-2.1 1.2zm-141.5-4.8h140.1l11.3-19.5-11.3-19.5h-140.1l-11.2 19.5z"/><path fill-rule="evenodd" class="a" d="m633.2 904.8q-0.3 0-0.7-0.1l-24.4-6.5c-0.8-0.3-1.5-0.9-1.7-1.8l-6.6-24.4c-0.2-0.8 0-1.7 0.7-2.3l101-101.1c0.6-0.6 1.5-0.8 2.3-0.6l24.5 6.6c0.8 0.2 1.5 0.8 1.7 1.7l6.5 24.4c0.3 0.9 0 1.7-0.6 2.4l-101 101c-0.5 0.4-1.1 0.7-1.7 0.7zm-22.5-11l21.7 5.9 99.1-99.1-5.8-21.7-21.8-5.9-99 99.1z"/><path fill-rule="evenodd" class="a" d="m836.4 922.9q-0.7 0-1.3-0.4l-21.9-12.6c-0.7-0.4-1.2-1.2-1.2-2.1v-142.9c0-0.8 0.5-1.6 1.2-2.1l21.9-12.6c0.8-0.5 1.7-0.5 2.5 0l21.9 12.6c0.7 0.5 1.2 1.3 1.2 2.1v142.9c0 0.9-0.5 1.7-1.2 2.1l-21.9 12.6q-0.6 0.4-1.2 0.4zm-19.5-16.5l19.5 11.2 19.5-11.2v-140.1l-19.5-11.2-19.5 11.2zm41.4 1.4z"/><path fill-rule="evenodd" class="a" d="m871.4 904.8c-0.7 0-1.3-0.3-1.7-0.7l-101.1-101c-0.6-0.7-0.8-1.5-0.6-2.4l6.6-24.4c0.2-0.9 0.8-1.5 1.7-1.7l24.4-6.6c0.9-0.2 1.7 0 2.4 0.6l101 101.1c0.6 0.6 0.8 1.5 0.6 2.3l-6.5 24.4c-0.3 0.9-0.9 1.5-1.8 1.8l-24.4 6.5q-0.3 0.1-0.6 0.1zm-98.4-104.2l99.1 99.1 21.7-5.9 5.9-21.7-99.1-99.1-21.7 5.9z"/><path fill-rule="evenodd" class="a" d="m907.8 860.7h-142.9c-0.8 0-1.6-0.5-2.1-1.2l-12.6-21.9c-0.5-0.8-0.5-1.7 0-2.5l12.6-21.9c0.5-0.7 1.3-1.2 2.1-1.2h142.9c0.9 0 1.7 0.5 2.1 1.2l12.6 21.9c0.5 0.8 0.5 1.7 0 2.5l-12.6 21.9c-0.4 0.7-1.2 1.2-2.1 1.2zm-141.5-4.8h140.1l11.2-19.5-11.2-19.5h-140.1l-11.2 19.5z"/><path fill-rule="evenodd" class="a" d="m801.3 904.8q-0.3 0-0.6-0.1l-24.4-6.5c-0.9-0.3-1.5-0.9-1.7-1.8l-6.6-24.4c-0.2-0.8 0-1.7 0.6-2.3l101.1-101.1c0.6-0.6 1.5-0.8 2.3-0.6l24.4 6.6c0.9 0.2 1.5 0.8 1.8 1.7l6.5 24.4c0.2 0.9 0 1.7-0.6 2.4l-101 101c-0.5 0.4-1.1 0.7-1.8 0.7zm-22.4-11l21.7 5.9 99.1-99.1-5.9-21.7-21.7-5.9-99.1 99.1z"/><path fill-rule="evenodd" class="a" d="m163.6 754.7q-0.6 0-1.2-0.3l-21.9-12.7c-0.7-0.4-1.2-1.2-1.2-2.1v-142.9c0-0.8 0.5-1.6 1.2-2.1l21.9-12.6c0.8-0.4 1.7-0.4 2.5 0l21.9 12.6c0.7 0.5 1.2 1.3 1.2 2.1v142.9c0 0.9-0.5 1.7-1.2 2.1l-21.9 12.7q-0.6 0.3-1.3 0.3zm-19.5-16.5l19.5 11.3 19.5-11.3v-140.1l-19.5-11.2-19.5 11.2zm41.5 1.4z"/><path fill-rule="evenodd" class="a" d="m198.7 736.6c-0.7 0-1.3-0.2-1.8-0.7l-101-101c-0.6-0.6-0.8-1.5-0.6-2.4l6.5-24.4c0.3-0.8 0.9-1.5 1.8-1.7l24.4-6.6c0.8-0.2 1.7 0 2.3 0.7l101.1 101c0.6 0.6 0.8 1.5 0.6 2.3l-6.6 24.5c-0.2 0.8-0.8 1.5-1.7 1.7l-24.4 6.5q-0.3 0.1-0.6 0.1zm-98.4-104.2l99.1 99.1 21.7-5.8 5.9-21.8-99.1-99-21.7 5.8z"/><path fill-rule="evenodd" class="a" d="m235.1 692.5h-142.9c-0.9 0-1.7-0.4-2.1-1.2l-12.6-21.9c-0.5-0.8-0.5-1.7 0-2.4l12.6-22c0.4-0.7 1.2-1.2 2.1-1.2h142.9c0.8 0 1.6 0.5 2.1 1.2l12.6 22c0.5 0.7 0.5 1.6 0 2.4l-12.6 21.9c-0.5 0.8-1.3 1.2-2.1 1.2zm-141.5-4.8h140.1l11.2-19.5-11.2-19.5h-140.1l-11.2 19.5z"/><path fill-rule="evenodd" class="a" d="m128.6 736.6q-0.3 0-0.6-0.1l-24.4-6.5c-0.9-0.2-1.5-0.9-1.8-1.7l-6.5-24.5c-0.2-0.8 0-1.7 0.6-2.3l101-101c0.7-0.7 1.5-0.9 2.4-0.7l24.4 6.6c0.9 0.2 1.5 0.9 1.7 1.7l6.6 24.4c0.2 0.9 0 1.8-0.6 2.4l-101.1 101c-0.4 0.5-1 0.7-1.7 0.7zm-22.4-10.9l21.7 5.8 99.1-99.1-5.9-21.7-21.7-5.8-99.1 99z"/><path fill-rule="evenodd" class="a" d="m331.8 754.7q-0.6 0-1.2-0.3l-21.9-12.7c-0.8-0.4-1.2-1.2-1.2-2.1v-142.9c0-0.8 0.4-1.6 1.2-2.1l21.9-12.6c0.8-0.4 1.7-0.4 2.4 0l22 12.6c0.7 0.5 1.2 1.3 1.2 2.1v142.9c0 0.9-0.5 1.7-1.2 2.1l-22 12.7q-0.5 0.3-1.2 0.3zm-19.5-16.5l19.5 11.3 19.5-11.3v-140.1l-19.5-11.2-19.5 11.2zm41.4 1.4h0.1z"/><path fill-rule="evenodd" class="a" d="m366.8 736.6c-0.6 0-1.2-0.2-1.7-0.7l-101-101c-0.6-0.6-0.9-1.5-0.6-2.4l6.5-24.4c0.2-0.8 0.9-1.5 1.7-1.7l24.5-6.6c0.8-0.2 1.7 0 2.3 0.7l101 101c0.7 0.6 0.9 1.5 0.7 2.3l-6.6 24.5c-0.2 0.8-0.9 1.5-1.7 1.7l-24.4 6.5q-0.4 0.1-0.7 0.1zm-98.3-104.2l99.1 99.1 21.7-5.8 5.8-21.8-99-99-21.8 5.8z"/><path fill-rule="evenodd" class="a" d="m403.3 692.5h-142.9c-0.9 0-1.7-0.4-2.1-1.2l-12.7-21.9c-0.4-0.8-0.4-1.7 0-2.4l12.7-22c0.4-0.7 1.2-1.2 2.1-1.2h142.9c0.8 0 1.6 0.5 2.1 1.2l12.6 22c0.4 0.7 0.4 1.6 0 2.4l-12.6 21.9c-0.5 0.8-1.3 1.2-2.1 1.2zm-141.5-4.8h140.1l11.2-19.5-11.2-19.5h-140.1l-11.3 19.5z"/><path fill-rule="evenodd" class="a" d="m296.8 736.6q-0.3 0-0.6-0.1l-24.5-6.5c-0.8-0.2-1.5-0.9-1.7-1.7l-6.5-24.5c-0.3-0.8 0-1.7 0.6-2.3l101-101c0.6-0.7 1.5-0.9 2.4-0.7l24.4 6.6c0.8 0.2 1.5 0.9 1.7 1.7l6.6 24.4c0.2 0.9 0 1.8-0.7 2.4l-101 101c-0.4 0.5-1.1 0.7-1.7 0.7zm-22.5-10.9l21.8 5.8 99-99.1-5.8-21.7-21.7-5.8-99.1 99z"/><path fill-rule="evenodd" class="a" d="m500 754.7q-0.6 0-1.2-0.3l-21.9-12.7c-0.8-0.4-1.2-1.2-1.2-2.1v-142.9c0-0.8 0.4-1.6 1.2-2.1l21.9-12.6c0.7-0.4 1.7-0.4 2.4 0l21.9 12.6c0.8 0.5 1.2 1.3 1.2 2.1v142.9c0 0.9-0.4 1.7-1.2 2.1l-21.9 12.7q-0.6 0.3-1.2 0.3zm-19.5-16.5l19.5 11.3 19.5-11.3v-140.1l-19.5-11.2-19.5 11.2zm41.4 1.4z"/><path fill-rule="evenodd" class="a" d="m535 736.6c-0.6 0-1.2-0.2-1.7-0.7l-101-101c-0.6-0.6-0.9-1.5-0.6-2.4l6.5-24.4c0.2-0.8 0.9-1.5 1.7-1.7l24.5-6.6c0.8-0.2 1.7 0 2.3 0.7l101 101c0.6 0.6 0.9 1.5 0.6 2.3l-6.5 24.5c-0.2 0.8-0.9 1.5-1.7 1.7l-24.5 6.5q-0.3 0.1-0.6 0.1zm-98.3-104.2l99 99.1 21.8-5.8 5.8-21.8-99-99-21.8 5.8z"/><path fill-rule="evenodd" class="a" d="m571.4 692.5h-142.8c-0.9 0-1.7-0.4-2.1-1.2l-12.7-21.9c-0.4-0.8-0.4-1.7 0-2.4l12.7-22c0.4-0.7 1.2-1.2 2.1-1.2h142.8c0.9 0 1.7 0.5 2.1 1.2l12.7 22c0.4 0.7 0.4 1.6 0 2.4l-12.7 21.9c-0.4 0.8-1.2 1.2-2.1 1.2zm-141.4-4.8h140l11.3-19.5-11.3-19.5h-140l-11.3 19.5z"/><path fill-rule="evenodd" class="a" d="m465 736.6q-0.3 0-0.6-0.1l-24.5-6.5c-0.8-0.2-1.5-0.9-1.7-1.7l-6.5-24.5c-0.3-0.8 0-1.7 0.6-2.3l101-101c0.6-0.7 1.5-0.9 2.3-0.7l24.5 6.6c0.8 0.2 1.5 0.9 1.7 1.7l6.5 24.4c0.3 0.9 0 1.8-0.6 2.4l-101 101c-0.5 0.5-1.1 0.7-1.7 0.7zm-22.5-10.9l21.8 5.8 99-99.1-5.8-21.7-21.8-5.8-99 99z"/><path fill-rule="evenodd" class="a" d="m668.2 754.7q-0.7 0-1.2-0.3l-22-12.7c-0.7-0.4-1.2-1.2-1.2-2.1v-142.9c0-0.8 0.5-1.6 1.2-2.1l22-12.6c0.7-0.4 1.6-0.4 2.4 0l21.9 12.6c0.8 0.5 1.2 1.3 1.2 2.1v142.9c0 0.9-0.4 1.7-1.2 2.1l-21.9 12.7q-0.6 0.3-1.2 0.3zm-19.5-16.5l19.5 11.3 19.5-11.3v-140.1l-19.5-11.2-19.5 11.2zm41.4 1.4z"/><path fill-rule="evenodd" class="a" d="m703.2 736.6c-0.6 0-1.3-0.2-1.7-0.7l-101-101c-0.7-0.6-0.9-1.5-0.7-2.4l6.6-24.4c0.2-0.8 0.9-1.5 1.7-1.7l24.4-6.6c0.9-0.2 1.8 0 2.4 0.7l101 101c0.6 0.6 0.9 1.5 0.6 2.3l-6.5 24.5c-0.2 0.8-0.9 1.5-1.7 1.7l-24.5 6.5q-0.3 0.1-0.6 0.1zm-98.3-104.2l99 99.1 21.8-5.8 5.8-21.8-99.1-99-21.7 5.8z"/><path fill-rule="evenodd" class="a" d="m739.6 692.5h-142.9c-0.8 0-1.6-0.4-2.1-1.2l-12.6-21.9c-0.4-0.8-0.4-1.7 0-2.4l12.6-22c0.5-0.7 1.3-1.2 2.1-1.2h142.9c0.9 0 1.7 0.5 2.1 1.2l12.7 22c0.4 0.7 0.4 1.6 0 2.4l-12.7 21.9c-0.4 0.8-1.2 1.2-2.1 1.2zm-141.5-4.8h140.1l11.3-19.5-11.3-19.5h-140.1l-11.2 19.5z"/><path fill-rule="evenodd" class="a" d="m633.2 736.6q-0.4 0-0.7-0.1l-24.4-6.5c-0.8-0.2-1.5-0.9-1.7-1.7l-6.6-24.5c-0.2-0.8 0-1.7 0.7-2.3l101-101c0.6-0.7 1.5-0.9 2.3-0.7l24.5 6.6c0.8 0.2 1.5 0.9 1.7 1.7l6.5 24.4c0.3 0.9 0 1.8-0.6 2.4l-101 101c-0.5 0.5-1.1 0.7-1.7 0.7zm-22.5-10.9l21.7 5.8 99.1-99.1-5.8-21.7-21.8-5.8-99 99z"/><path fill-rule="evenodd" class="a" d="m836.4 754.7q-0.7 0-1.3-0.3l-21.9-12.7c-0.7-0.4-1.2-1.2-1.2-2.1v-142.9c0-0.8 0.5-1.6 1.2-2.1l21.9-12.6c0.8-0.4 1.7-0.4 2.5 0l21.9 12.6c0.7 0.5 1.2 1.3 1.2 2.1v142.9c0 0.9-0.5 1.7-1.2 2.1l-21.9 12.7q-0.6 0.3-1.2 0.3zm-19.5-16.5l19.5 11.3 19.5-11.3v-140.1l-19.5-11.2-19.5 11.2zm41.4 1.4z"/><path fill-rule="evenodd" class="a" d="m871.4 736.6c-0.7 0-1.3-0.2-1.7-0.7l-101.1-101c-0.6-0.6-0.8-1.5-0.6-2.4l6.6-24.4c0.2-0.8 0.8-1.5 1.7-1.7l24.4-6.6c0.9-0.2 1.7 0 2.4 0.7l101 101c0.6 0.6 0.8 1.5 0.6 2.3l-6.5 24.5c-0.3 0.8-0.9 1.5-1.8 1.7l-24.4 6.5q-0.3 0.1-0.6 0.1zm-98.4-104.2l99.1 99.1 21.7-5.8 5.9-21.8-99.1-99-21.7 5.8z"/><path fill-rule="evenodd" class="a" d="m907.8 692.5h-142.9c-0.8 0-1.6-0.4-2.1-1.2l-12.6-21.9c-0.5-0.8-0.5-1.7 0-2.4l12.6-22c0.5-0.7 1.3-1.2 2.1-1.2h142.9c0.9 0 1.7 0.5 2.1 1.2l12.6 22c0.5 0.7 0.5 1.6 0 2.4l-12.6 21.9c-0.4 0.8-1.2 1.2-2.1 1.2zm-141.5-4.8h140.1l11.2-19.5-11.2-19.5h-140.1l-11.2 19.5z"/><path fill-rule="evenodd" class="a" d="m801.3 736.6q-0.3 0-0.6-0.1l-24.4-6.5c-0.9-0.2-1.5-0.9-1.7-1.7l-6.6-24.5c-0.2-0.8 0-1.7 0.6-2.3l101.1-101c0.6-0.7 1.5-0.9 2.3-0.7l24.4 6.6c0.9 0.2 1.5 0.9 1.8 1.7l6.5 24.4c0.2 0.9 0 1.8-0.6 2.4l-101 101c-0.5 0.5-1.1 0.7-1.8 0.7zm-22.4-10.9l21.7 5.8 99.1-99.1-5.9-21.7-21.7-5.8-99.1 99z"/><path fill-rule="evenodd" class="a" d="m163.6 586.5q-0.6 0-1.2-0.3l-21.9-12.7c-0.7-0.4-1.2-1.2-1.2-2.1v-142.8c0-0.9 0.5-1.7 1.2-2.1l21.9-12.7c0.8-0.4 1.7-0.4 2.5 0l21.9 12.7c0.7 0.4 1.2 1.2 1.2 2.1v142.8c0 0.9-0.5 1.7-1.2 2.1l-21.9 12.7q-0.6 0.3-1.3 0.3zm-19.5-16.5l19.5 11.3 19.5-11.3v-140l-19.5-11.3-19.5 11.3zm41.5 1.4z"/><path fill-rule="evenodd" class="a" d="m198.7 568.4c-0.7 0-1.3-0.2-1.8-0.7l-101-101c-0.6-0.6-0.8-1.5-0.6-2.3l6.5-24.5c0.3-0.8 0.9-1.5 1.8-1.7l24.4-6.5c0.8-0.3 1.7 0 2.3 0.6l101.1 101c0.6 0.6 0.8 1.5 0.6 2.3l-6.6 24.5c-0.2 0.8-0.8 1.5-1.7 1.7l-24.4 6.5q-0.3 0.1-0.6 0.1zm-98.4-104.1l99.1 99 21.7-5.8 5.9-21.8-99.1-99-21.7 5.8z"/><path fill-rule="evenodd" class="a" d="m235.1 524.3h-142.9c-0.9 0-1.7-0.4-2.1-1.2l-12.6-21.9c-0.5-0.7-0.5-1.7 0-2.4l12.6-21.9c0.4-0.8 1.2-1.2 2.1-1.2h142.9c0.8 0 1.6 0.4 2.1 1.2l12.6 21.9c0.5 0.7 0.5 1.7 0 2.4l-12.6 21.9c-0.5 0.8-1.3 1.2-2.1 1.2zm-141.5-4.8h140.1l11.2-19.5-11.2-19.5h-140.1l-11.2 19.5z"/><path fill-rule="evenodd" class="a" d="m128.6 568.4q-0.3 0-0.6-0.1l-24.4-6.5c-0.9-0.2-1.5-0.9-1.8-1.7l-6.5-24.5c-0.2-0.8 0-1.7 0.6-2.3l101-101c0.7-0.6 1.5-0.9 2.4-0.6l24.4 6.5c0.9 0.2 1.5 0.9 1.7 1.7l6.6 24.5c0.2 0.8 0 1.7-0.6 2.3l-101.1 101c-0.4 0.5-1 0.7-1.7 0.7zm-22.4-10.9l21.7 5.8 99.1-99-5.9-21.8-21.7-5.8-99.1 99z"/><path fill-rule="evenodd" class="a" d="m331.8 586.5q-0.6 0-1.2-0.3l-21.9-12.7c-0.8-0.4-1.2-1.2-1.2-2.1v-142.8c0-0.9 0.4-1.7 1.2-2.1l21.9-12.7c0.8-0.4 1.7-0.4 2.4 0l22 12.7c0.7 0.4 1.2 1.2 1.2 2.1v142.8c0 0.9-0.5 1.7-1.2 2.1l-22 12.7q-0.5 0.3-1.2 0.3zm-19.5-16.5l19.5 11.3 19.5-11.3v-140l-19.5-11.3-19.5 11.3zm41.4 1.4h0.1z"/><path fill-rule="evenodd" class="a" d="m366.8 568.4c-0.6 0-1.2-0.2-1.7-0.7l-101-101c-0.6-0.6-0.9-1.5-0.6-2.3l6.5-24.5c0.2-0.8 0.9-1.5 1.7-1.7l24.5-6.5c0.8-0.3 1.7 0 2.3 0.6l101 101c0.7 0.6 0.9 1.5 0.7 2.3l-6.6 24.5c-0.2 0.8-0.9 1.5-1.7 1.7l-24.4 6.5q-0.4 0.1-0.7 0.1zm-98.3-104.1l99.1 99 21.7-5.8 5.8-21.8-99-99-21.8 5.8z"/><path fill-rule="evenodd" class="a" d="m403.3 524.3h-142.9c-0.9 0-1.7-0.4-2.1-1.2l-12.7-21.9c-0.4-0.7-0.4-1.7 0-2.4l12.7-21.9c0.4-0.8 1.2-1.2 2.1-1.2h142.9c0.8 0 1.6 0.4 2.1 1.2l12.6 21.9c0.4 0.7 0.4 1.7 0 2.4l-12.6 21.9c-0.5 0.8-1.3 1.2-2.1 1.2zm-141.5-4.8h140.1l11.2-19.5-11.2-19.5h-140.1l-11.3 19.5z"/><path fill-rule="evenodd" class="a" d="m296.8 568.4q-0.3 0-0.6-0.1l-24.5-6.5c-0.8-0.2-1.5-0.9-1.7-1.7l-6.5-24.5c-0.3-0.8 0-1.7 0.6-2.3l101-101c0.6-0.6 1.5-0.9 2.4-0.6l24.4 6.5c0.8 0.2 1.5 0.9 1.7 1.7l6.6 24.5c0.2 0.8 0 1.7-0.7 2.3l-101 101c-0.4 0.5-1.1 0.7-1.7 0.7zm-22.5-10.9l21.8 5.8 99-99-5.8-21.8-21.7-5.8-99.1 99z"/><path fill-rule="evenodd" class="a" d="m500 586.5q-0.6 0-1.2-0.3l-21.9-12.7c-0.8-0.4-1.2-1.2-1.2-2.1v-142.8c0-0.9 0.4-1.7 1.2-2.1l21.9-12.7c0.7-0.4 1.7-0.4 2.4 0l21.9 12.7c0.8 0.4 1.2 1.2 1.2 2.1v142.8c0 0.9-0.4 1.7-1.2 2.1l-21.9 12.7q-0.6 0.3-1.2 0.3zm-19.5-16.5l19.5 11.3 19.5-11.3v-140l-19.5-11.3-19.5 11.3zm41.4 1.4z"/><path fill-rule="evenodd" class="a" d="m535 568.4c-0.6 0-1.2-0.2-1.7-0.7l-101-101c-0.6-0.6-0.9-1.5-0.6-2.3l6.5-24.5c0.2-0.8 0.9-1.5 1.7-1.7l24.5-6.5c0.8-0.3 1.7 0 2.3 0.6l101 101c0.6 0.6 0.9 1.5 0.6 2.3l-6.5 24.5c-0.2 0.8-0.9 1.5-1.7 1.7l-24.5 6.5q-0.3 0.1-0.6 0.1zm-98.3-104.1l99 99 21.8-5.8 5.8-21.8-99-99-21.8 5.8z"/><path fill-rule="evenodd" class="a" d="m571.4 524.3h-142.8c-0.9 0-1.7-0.4-2.1-1.2l-12.7-21.9c-0.4-0.7-0.4-1.7 0-2.4l12.7-21.9c0.4-0.8 1.2-1.2 2.1-1.2h142.8c0.9 0 1.7 0.4 2.1 1.2l12.7 21.9c0.4 0.7 0.4 1.7 0 2.4l-12.7 21.9c-0.4 0.8-1.2 1.2-2.1 1.2zm-141.4-4.8h140l11.3-19.5-11.3-19.5h-140l-11.3 19.5z"/><path fill-rule="evenodd" class="a" d="m465 568.4q-0.3 0-0.6-0.1l-24.5-6.5c-0.8-0.2-1.5-0.9-1.7-1.7l-6.5-24.5c-0.3-0.8 0-1.7 0.6-2.3l101-101c0.6-0.6 1.5-0.9 2.3-0.6l24.5 6.5c0.8 0.2 1.5 0.9 1.7 1.7l6.5 24.5c0.3 0.8 0 1.7-0.6 2.3l-101 101c-0.5 0.5-1.1 0.7-1.7 0.7zm-22.5-10.9l21.8 5.8 99-99-5.8-21.8-21.8-5.8-99 99z"/><path fill-rule="evenodd" class="a" d="m668.2 586.5q-0.7 0-1.2-0.3l-22-12.7c-0.7-0.4-1.2-1.2-1.2-2.1v-142.8c0-0.9 0.5-1.7 1.2-2.1l22-12.7c0.7-0.4 1.6-0.4 2.4 0l21.9 12.7c0.8 0.4 1.2 1.2 1.2 2.1v142.8c0 0.9-0.4 1.7-1.2 2.1l-21.9 12.7q-0.6 0.3-1.2 0.3zm-19.5-16.5l19.5 11.3 19.5-11.3v-140l-19.5-11.3-19.5 11.3zm41.4 1.4z"/><path fill-rule="evenodd" class="a" d="m703.2 568.4c-0.6 0-1.3-0.2-1.7-0.7l-101-101c-0.7-0.6-0.9-1.5-0.7-2.3l6.6-24.5c0.2-0.8 0.9-1.5 1.7-1.7l24.4-6.5c0.9-0.3 1.8 0 2.4 0.6l101 101c0.6 0.6 0.9 1.5 0.6 2.3l-6.5 24.5c-0.2 0.8-0.9 1.5-1.7 1.7l-24.5 6.5q-0.3 0.1-0.6 0.1zm-98.3-104.1l99 99 21.8-5.8 5.8-21.8-99.1-99-21.7 5.8z"/><path fill-rule="evenodd" class="a" d="m739.6 524.3h-142.9c-0.8 0-1.6-0.4-2.1-1.2l-12.6-21.9c-0.4-0.7-0.4-1.7 0-2.4l12.6-21.9c0.5-0.8 1.3-1.2 2.1-1.2h142.9c0.9 0 1.7 0.4 2.1 1.2l12.7 21.9c0.4 0.7 0.4 1.7 0 2.4l-12.7 21.9c-0.4 0.8-1.2 1.2-2.1 1.2zm-141.5-4.8h140.1l11.3-19.5-11.3-19.5h-140.1l-11.2 19.5z"/><path fill-rule="evenodd" class="a" d="m633.2 568.4q-0.3 0-0.7-0.1l-24.4-6.5c-0.8-0.2-1.5-0.9-1.7-1.7l-6.6-24.5c-0.2-0.8 0-1.7 0.7-2.3l101-101c0.6-0.6 1.5-0.9 2.3-0.6l24.5 6.5c0.8 0.2 1.5 0.9 1.7 1.7l6.5 24.5c0.3 0.8 0 1.7-0.6 2.3l-101 101c-0.5 0.5-1.1 0.7-1.7 0.7zm-22.5-10.9l21.7 5.8 99.1-99-5.8-21.8-21.8-5.8-99 99z"/><path fill-rule="evenodd" class="a" d="m836.4 586.5q-0.7 0-1.3-0.3l-21.9-12.7c-0.7-0.4-1.2-1.2-1.2-2.1v-142.8c0-0.9 0.5-1.7 1.2-2.1l21.9-12.7c0.8-0.4 1.7-0.4 2.5 0l21.9 12.7c0.7 0.4 1.2 1.2 1.2 2.1v142.8c0 0.9-0.5 1.7-1.2 2.1l-21.9 12.7q-0.6 0.3-1.2 0.3zm-19.5-16.5l19.5 11.3 19.5-11.3v-140l-19.5-11.3-19.5 11.3zm41.4 1.4z"/><path fill-rule="evenodd" class="a" d="m871.4 568.4c-0.7 0-1.3-0.2-1.7-0.7l-101.1-101c-0.6-0.6-0.8-1.5-0.6-2.3l6.6-24.5c0.2-0.8 0.8-1.5 1.7-1.7l24.4-6.5c0.9-0.3 1.7 0 2.4 0.6l101 101c0.6 0.6 0.8 1.5 0.6 2.3l-6.5 24.5c-0.3 0.8-0.9 1.5-1.8 1.7l-24.4 6.5q-0.3 0.1-0.6 0.1zm-98.4-104.1l99.1 99 21.7-5.8 5.9-21.8-99.1-99-21.7 5.8z"/><path fill-rule="evenodd" class="a" d="m907.8 524.3h-142.9c-0.8 0-1.6-0.4-2.1-1.2l-12.6-21.9c-0.5-0.7-0.5-1.7 0-2.4l12.6-21.9c0.5-0.8 1.3-1.2 2.1-1.2h142.9c0.9 0 1.7 0.4 2.1 1.2l12.6 21.9c0.5 0.7 0.5 1.7 0 2.4l-12.6 21.9c-0.4 0.8-1.2 1.2-2.1 1.2zm-141.5-4.8h140.1l11.2-19.5-11.2-19.5h-140.1l-11.2 19.5z"/><path fill-rule="evenodd" class="a" d="m801.3 568.4q-0.3 0-0.6-0.1l-24.4-6.5c-0.9-0.2-1.5-0.9-1.7-1.7l-6.6-24.5c-0.2-0.8 0-1.7 0.6-2.3l101.1-101c0.6-0.6 1.5-0.9 2.3-0.6l24.4 6.5c0.9 0.2 1.5 0.9 1.8 1.7l6.5 24.5c0.2 0.8 0 1.7-0.6 2.3l-101 101c-0.5 0.5-1.1 0.7-1.8 0.7zm-22.4-10.9l21.7 5.8 99.1-99-5.9-21.8-21.7-5.8-99.1 99z"/><path fill-rule="evenodd" class="a" d="m163.6 418.3q-0.6 0-1.2-0.3l-21.9-12.6c-0.7-0.5-1.2-1.3-1.2-2.1v-142.9c0-0.9 0.5-1.7 1.2-2.1l21.9-12.7c0.8-0.4 1.7-0.4 2.5 0l21.9 12.7c0.7 0.4 1.2 1.2 1.2 2.1v142.9c0 0.8-0.5 1.6-1.2 2.1l-21.9 12.6q-0.6 0.3-1.3 0.3zm-19.5-16.4l19.5 11.2 19.5-11.2v-140.1l-19.5-11.3-19.5 11.3zm41.5 1.4z"/><path fill-rule="evenodd" class="a" d="m198.7 400.3c-0.7 0-1.3-0.3-1.8-0.8l-101-101c-0.6-0.6-0.8-1.5-0.6-2.3l6.5-24.5c0.3-0.8 0.9-1.5 1.8-1.7l24.4-6.5c0.8-0.3 1.7 0 2.3 0.6l101.1 101c0.6 0.6 0.8 1.5 0.6 2.4l-6.6 24.4c-0.2 0.8-0.8 1.5-1.7 1.7l-24.4 6.6q-0.3 0.1-0.6 0.1zm-98.4-104.2l99.1 99 21.7-5.8 5.9-21.7-99.1-99.1-21.7 5.8z"/><path fill-rule="evenodd" class="a" d="m235.1 356.2h-142.9c-0.9 0-1.7-0.5-2.1-1.2l-12.6-22c-0.5-0.7-0.5-1.6 0-2.4l12.6-21.9c0.4-0.8 1.2-1.2 2.1-1.2h142.9c0.8 0 1.6 0.4 2.1 1.2l12.6 21.9c0.5 0.8 0.5 1.7 0 2.4l-12.6 22c-0.5 0.7-1.3 1.2-2.1 1.2zm-141.5-4.9h140.1l11.2-19.5-11.2-19.5h-140.1l-11.2 19.5z"/><path fill-rule="evenodd" class="a" d="m128.6 400.3q-0.3 0-0.6-0.1l-24.4-6.6c-0.9-0.2-1.5-0.9-1.8-1.7l-6.5-24.4c-0.2-0.9 0-1.8 0.6-2.4l101-101c0.7-0.6 1.5-0.9 2.4-0.6l24.4 6.5c0.9 0.2 1.5 0.9 1.7 1.7l6.6 24.5c0.2 0.8 0 1.7-0.6 2.3l-101.1 101c-0.4 0.5-1 0.8-1.7 0.8zm-22.4-11l21.7 5.8 99.1-99-5.9-21.8-21.7-5.8-99.1 99.1z"/><path fill-rule="evenodd" class="a" d="m331.8 418.3q-0.6 0-1.2-0.3l-21.9-12.6c-0.8-0.5-1.2-1.3-1.2-2.1v-142.9c0-0.9 0.4-1.7 1.2-2.1l21.9-12.7c0.8-0.4 1.7-0.4 2.4 0l22 12.7c0.7 0.4 1.2 1.2 1.2 2.1v142.9c0 0.8-0.5 1.6-1.2 2.1l-22 12.6q-0.5 0.3-1.2 0.3zm-19.5-16.4l19.5 11.2 19.5-11.2v-140.1l-19.5-11.3-19.5 11.3zm41.4 1.4h0.1z"/><path fill-rule="evenodd" class="a" d="m366.8 400.3c-0.6 0-1.2-0.3-1.7-0.8l-101-101c-0.6-0.6-0.9-1.5-0.6-2.3l6.5-24.5c0.2-0.8 0.9-1.5 1.7-1.7l24.5-6.5c0.8-0.3 1.7 0 2.3 0.6l101 101c0.7 0.6 0.9 1.5 0.7 2.4l-6.6 24.4c-0.2 0.8-0.9 1.5-1.7 1.7l-24.4 6.6q-0.4 0.1-0.7 0.1zm-98.3-104.2l99.1 99 21.7-5.8 5.8-21.7-99-99.1-21.8 5.8z"/><path fill-rule="evenodd" class="a" d="m403.3 356.2h-142.9c-0.9 0-1.7-0.5-2.1-1.2l-12.7-22c-0.4-0.7-0.4-1.6 0-2.4l12.7-21.9c0.4-0.8 1.2-1.2 2.1-1.2h142.9c0.8 0 1.6 0.4 2.1 1.2l12.6 21.9c0.4 0.8 0.4 1.7 0 2.4l-12.6 22c-0.5 0.7-1.3 1.2-2.1 1.2zm-141.5-4.9h140.1l11.2-19.5-11.2-19.5h-140.1l-11.3 19.5z"/><path fill-rule="evenodd" class="a" d="m296.8 400.3q-0.3 0-0.6-0.1l-24.5-6.6c-0.8-0.2-1.5-0.9-1.7-1.7l-6.5-24.4c-0.3-0.9 0-1.8 0.6-2.4l101-101c0.6-0.6 1.5-0.9 2.4-0.6l24.4 6.5c0.8 0.2 1.5 0.9 1.7 1.7l6.6 24.5c0.2 0.8 0 1.7-0.7 2.3l-101 101c-0.4 0.5-1.1 0.8-1.7 0.8zm-22.5-11l21.8 5.8 99-99-5.8-21.8-21.7-5.8-99.1 99.1z"/><path fill-rule="evenodd" class="a" d="m500 418.3q-0.6 0-1.2-0.3l-21.9-12.6c-0.8-0.5-1.2-1.3-1.2-2.1v-142.9c0-0.9 0.4-1.7 1.2-2.1l21.9-12.7c0.7-0.4 1.7-0.4 2.4 0l21.9 12.7c0.8 0.4 1.2 1.2 1.2 2.1v142.9c0 0.8-0.4 1.6-1.2 2.1l-21.9 12.6q-0.6 0.3-1.2 0.3zm-19.5-16.4l19.5 11.2 19.5-11.2v-140.1l-19.5-11.3-19.5 11.3zm41.4 1.4z"/><path fill-rule="evenodd" class="a" d="m535 400.3c-0.6 0-1.2-0.3-1.7-0.8l-101-101c-0.6-0.6-0.9-1.5-0.6-2.3l6.5-24.5c0.2-0.8 0.9-1.5 1.7-1.7l24.5-6.5c0.8-0.3 1.7 0 2.3 0.6l101 101c0.6 0.6 0.9 1.5 0.6 2.4l-6.5 24.4c-0.2 0.8-0.9 1.5-1.7 1.7l-24.5 6.6q-0.3 0.1-0.6 0.1zm-98.3-104.2l99 99 21.8-5.8 5.8-21.7-99-99.1-21.8 5.8z"/><path fill-rule="evenodd" class="a" d="m571.4 356.2h-142.8c-0.9 0-1.7-0.5-2.1-1.2l-12.7-22c-0.4-0.7-0.4-1.6 0-2.4l12.7-21.9c0.4-0.8 1.2-1.2 2.1-1.2h142.8c0.9 0 1.7 0.4 2.1 1.2l12.7 21.9c0.4 0.8 0.4 1.7 0 2.4l-12.7 22c-0.4 0.7-1.2 1.2-2.1 1.2zm-141.4-4.9h140l11.3-19.5-11.3-19.5h-140l-11.3 19.5z"/><path fill-rule="evenodd" class="a" d="m465 400.3q-0.3 0-0.6-0.1l-24.5-6.6c-0.8-0.2-1.5-0.9-1.7-1.7l-6.5-24.4c-0.3-0.9 0-1.8 0.6-2.4l101-101c0.6-0.6 1.5-0.9 2.3-0.6l24.5 6.5c0.8 0.2 1.5 0.9 1.7 1.7l6.5 24.5c0.3 0.8 0 1.7-0.6 2.3l-101 101c-0.5 0.5-1.1 0.8-1.7 0.8zm-22.5-11l21.8 5.8 99-99-5.8-21.8-21.8-5.8-99 99.1z"/><path fill-rule="evenodd" class="a" d="m668.2 418.3q-0.7 0-1.2-0.3l-22-12.6c-0.7-0.5-1.2-1.3-1.2-2.1v-142.9c0-0.9 0.5-1.7 1.2-2.1l22-12.7c0.7-0.4 1.6-0.4 2.4 0l21.9 12.7c0.8 0.4 1.2 1.2 1.2 2.1v142.9c0 0.8-0.4 1.6-1.2 2.1l-21.9 12.6q-0.6 0.3-1.2 0.3zm-19.5-16.4l19.5 11.2 19.5-11.2v-140.1l-19.5-11.3-19.5 11.3zm41.4 1.4z"/><path fill-rule="evenodd" class="a" d="m703.2 400.3c-0.6 0-1.3-0.3-1.7-0.8l-101-101c-0.7-0.6-0.9-1.5-0.7-2.3l6.6-24.5c0.2-0.8 0.9-1.5 1.7-1.7l24.4-6.5c0.9-0.3 1.8 0 2.4 0.6l101 101c0.6 0.6 0.9 1.5 0.6 2.4l-6.5 24.4c-0.2 0.8-0.9 1.5-1.7 1.7l-24.5 6.6q-0.3 0.1-0.6 0.1zm-98.3-104.2l99 99 21.8-5.8 5.8-21.7-99.1-99.1-21.7 5.8z"/><path fill-rule="evenodd" class="a" d="m739.6 356.2h-142.9c-0.8 0-1.6-0.5-2.1-1.2l-12.6-22c-0.4-0.7-0.4-1.6 0-2.4l12.6-21.9c0.5-0.8 1.3-1.2 2.1-1.2h142.9c0.9 0 1.7 0.4 2.1 1.2l12.7 21.9c0.4 0.8 0.4 1.7 0 2.4l-12.7 22c-0.4 0.7-1.2 1.2-2.1 1.2zm-141.5-4.9h140.1l11.3-19.5-11.3-19.5h-140.1l-11.2 19.5z"/><path fill-rule="evenodd" class="a" d="m633.2 400.3q-0.3 0-0.7-0.1l-24.4-6.6c-0.8-0.2-1.5-0.9-1.7-1.7l-6.6-24.4c-0.2-0.9 0-1.8 0.7-2.4l101-101c0.6-0.6 1.5-0.9 2.3-0.6l24.5 6.5c0.8 0.2 1.5 0.9 1.7 1.7l6.5 24.5c0.3 0.8 0 1.7-0.6 2.3l-101 101c-0.5 0.5-1.1 0.8-1.7 0.8zm-22.5-11l21.7 5.8 99.1-99-5.8-21.8-21.8-5.8-99 99.1z"/><path fill-rule="evenodd" class="a" d="m836.4 418.3q-0.7 0-1.3-0.3l-21.9-12.6c-0.7-0.5-1.2-1.3-1.2-2.1v-142.9c0-0.9 0.5-1.7 1.2-2.1l21.9-12.7c0.8-0.4 1.7-0.4 2.5 0l21.9 12.7c0.7 0.4 1.2 1.2 1.2 2.1v142.9c0 0.8-0.5 1.6-1.2 2.1l-21.9 12.6q-0.6 0.3-1.2 0.3zm-19.5-16.4l19.5 11.2 19.5-11.2v-140.1l-19.5-11.3-19.5 11.3zm41.4 1.4z"/><path fill-rule="evenodd" class="a" d="m871.4 400.3c-0.7 0-1.3-0.3-1.7-0.8l-101.1-101c-0.6-0.6-0.8-1.5-0.6-2.3l6.6-24.5c0.2-0.8 0.8-1.5 1.7-1.7l24.4-6.5c0.9-0.3 1.7 0 2.4 0.6l101 101c0.6 0.6 0.8 1.5 0.6 2.4l-6.5 24.4c-0.3 0.8-0.9 1.5-1.8 1.7l-24.4 6.6q-0.3 0.1-0.6 0.1zm-98.4-104.2l99.1 99 21.7-5.8 5.9-21.7-99.1-99.1-21.7 5.8z"/><path fill-rule="evenodd" class="a" d="m907.8 356.2h-142.9c-0.8 0-1.6-0.5-2.1-1.2l-12.6-22c-0.5-0.7-0.5-1.6 0-2.4l12.6-21.9c0.5-0.8 1.3-1.2 2.1-1.2h142.9c0.9 0 1.7 0.4 2.1 1.2l12.6 21.9c0.5 0.8 0.5 1.7 0 2.4l-12.6 22c-0.4 0.7-1.2 1.2-2.1 1.2zm-141.5-4.9h140.1l11.2-19.5-11.2-19.5h-140.1l-11.2 19.5z"/><path fill-rule="evenodd" class="a" d="m801.3 400.3q-0.3 0-0.6-0.1l-24.4-6.6c-0.9-0.2-1.5-0.9-1.7-1.7l-6.6-24.4c-0.2-0.9 0-1.8 0.6-2.4l101.1-101c0.6-0.6 1.5-0.9 2.3-0.6l24.4 6.5c0.9 0.2 1.5 0.9 1.8 1.7l6.5 24.5c0.2 0.8 0 1.7-0.6 2.3l-101 101c-0.5 0.5-1.1 0.8-1.8 0.8zm-22.4-11l21.7 5.8 99.1-99-5.9-21.8-21.7-5.8-99.1 99.1z"/><path fill-rule="evenodd" class="a" d="m163.6 250.2q-0.6 0-1.2-0.4l-21.9-12.6c-0.7-0.5-1.2-1.3-1.2-2.1v-142.9c0-0.9 0.5-1.7 1.2-2.1l21.9-12.6c0.8-0.5 1.7-0.5 2.5 0l21.9 12.6c0.7 0.4 1.2 1.2 1.2 2.1v142.9c0 0.8-0.5 1.6-1.2 2.1l-21.9 12.6q-0.6 0.4-1.3 0.4zm-19.5-16.5l19.5 11.2 19.5-11.2v-140.1l-19.5-11.2-19.5 11.2zm41.5 1.4z"/><path fill-rule="evenodd" class="a" d="m198.7 232.1c-0.7 0-1.3-0.3-1.8-0.7l-101-101.1c-0.6-0.6-0.8-1.5-0.6-2.3l6.5-24.4c0.3-0.9 0.9-1.5 1.8-1.8l24.4-6.5c0.8-0.2 1.7 0 2.3 0.6l101.1 101c0.6 0.7 0.8 1.5 0.6 2.4l-6.6 24.4c-0.2 0.9-0.8 1.5-1.7 1.7l-24.4 6.6q-0.3 0.1-0.6 0.1zm-98.4-104.2l99.1 99.1 21.7-5.9 5.9-21.7-99.1-99.1-21.7 5.9z"/><path fill-rule="evenodd" class="a" d="m235.1 188h-142.9c-0.9 0-1.7-0.5-2.1-1.2l-12.6-21.9c-0.5-0.8-0.5-1.7 0-2.5l12.6-21.9c0.4-0.7 1.2-1.2 2.1-1.2h142.9c0.8 0 1.6 0.5 2.1 1.2l12.6 21.9c0.5 0.8 0.5 1.7 0 2.5l-12.6 21.9c-0.5 0.7-1.3 1.2-2.1 1.2zm-141.5-4.9h140.1l11.2-19.5-11.2-19.5h-140.1l-11.2 19.5z"/><path fill-rule="evenodd" class="a" d="m128.6 232.1q-0.3 0-0.6-0.1l-24.4-6.6c-0.9-0.2-1.5-0.8-1.8-1.7l-6.5-24.4c-0.2-0.9 0-1.7 0.6-2.4l101-101c0.7-0.6 1.5-0.8 2.4-0.6l24.4 6.5c0.9 0.3 1.5 0.9 1.7 1.8l6.6 24.4c0.2 0.8 0 1.7-0.6 2.3l-101.1 101.1c-0.4 0.4-1 0.7-1.7 0.7zm-22.4-11l21.7 5.9 99.1-99.1-5.9-21.7-21.7-5.9-99.1 99.1z"/><path fill-rule="evenodd" class="a" d="m331.8 250.2q-0.6 0-1.2-0.4l-21.9-12.6c-0.8-0.5-1.2-1.3-1.2-2.1v-142.9c0-0.9 0.4-1.7 1.2-2.1l21.9-12.6c0.8-0.5 1.7-0.5 2.4 0l22 12.6c0.7 0.4 1.2 1.2 1.2 2.1v142.9c0 0.8-0.5 1.6-1.2 2.1l-22 12.6q-0.5 0.4-1.2 0.4zm-19.5-16.5l19.5 11.2 19.5-11.2v-140.1l-19.5-11.2-19.5 11.2zm41.4 1.4h0.1z"/><path fill-rule="evenodd" class="a" d="m366.8 232.1c-0.6 0-1.2-0.3-1.7-0.7l-101-101.1c-0.6-0.6-0.9-1.5-0.6-2.3l6.5-24.4c0.2-0.9 0.9-1.5 1.7-1.8l24.5-6.5c0.8-0.2 1.7 0 2.3 0.6l101 101c0.7 0.7 0.9 1.5 0.7 2.4l-6.6 24.4c-0.2 0.9-0.9 1.5-1.7 1.7l-24.4 6.6q-0.4 0.1-0.7 0.1zm-98.3-104.2l99.1 99.1 21.7-5.9 5.8-21.7-99-99.1-21.8 5.9z"/><path fill-rule="evenodd" class="a" d="m403.3 188h-142.9c-0.9 0-1.7-0.5-2.1-1.2l-12.7-21.9c-0.4-0.8-0.4-1.7 0-2.5l12.7-21.9c0.4-0.7 1.2-1.2 2.1-1.2h142.9c0.8 0 1.6 0.5 2.1 1.2l12.6 21.9c0.4 0.8 0.4 1.7 0 2.5l-12.6 21.9c-0.5 0.7-1.3 1.2-2.1 1.2zm-141.5-4.9h140.1l11.2-19.5-11.2-19.5h-140.1l-11.3 19.5z"/><path fill-rule="evenodd" class="a" d="m296.8 232.1q-0.3 0-0.6-0.1l-24.5-6.6c-0.8-0.2-1.5-0.8-1.7-1.7l-6.5-24.4c-0.3-0.9 0-1.7 0.6-2.4l101-101c0.6-0.6 1.5-0.8 2.4-0.6l24.4 6.5c0.8 0.3 1.5 0.9 1.7 1.8l6.6 24.4c0.2 0.8 0 1.7-0.7 2.3l-101 101.1c-0.4 0.4-1.1 0.7-1.7 0.7zm-22.5-11l21.8 5.9 99-99.1-5.8-21.7-21.7-5.9-99.1 99.1z"/><path fill-rule="evenodd" class="a" d="m500 250.2q-0.6 0-1.2-0.4l-21.9-12.6c-0.8-0.5-1.2-1.3-1.2-2.1v-142.9c0-0.9 0.4-1.7 1.2-2.1l21.9-12.6c0.7-0.5 1.7-0.5 2.4 0l21.9 12.6c0.8 0.4 1.2 1.2 1.2 2.1v142.9c0 0.8-0.4 1.6-1.2 2.1l-21.9 12.6q-0.6 0.4-1.2 0.4zm-19.5-16.5l19.5 11.2 19.5-11.2v-140.1l-19.5-11.2-19.5 11.2zm41.4 1.4z"/><path fill-rule="evenodd" class="a" d="m535 232.1c-0.6 0-1.2-0.3-1.7-0.7l-101-101.1c-0.6-0.6-0.9-1.5-0.6-2.3l6.5-24.4c0.2-0.9 0.9-1.5 1.7-1.8l24.5-6.5c0.8-0.2 1.7 0 2.3 0.6l101 101c0.6 0.7 0.9 1.5 0.6 2.4l-6.5 24.4c-0.2 0.9-0.9 1.5-1.7 1.7l-24.5 6.6q-0.3 0.1-0.6 0.1zm-98.3-104.2l99 99.1 21.8-5.9 5.8-21.7-99-99.1-21.8 5.9z"/><path fill-rule="evenodd" class="a" d="m571.4 188h-142.8c-0.9 0-1.7-0.5-2.1-1.2l-12.7-21.9c-0.4-0.8-0.4-1.7 0-2.5l12.7-21.9c0.4-0.7 1.2-1.2 2.1-1.2h142.8c0.9 0 1.7 0.5 2.1 1.2l12.7 21.9c0.4 0.8 0.4 1.7 0 2.5l-12.7 21.9c-0.4 0.7-1.2 1.2-2.1 1.2zm-141.4-4.9h140l11.3-19.5-11.3-19.5h-140l-11.3 19.5z"/><path fill-rule="evenodd" class="a" d="m465 232.1q-0.3 0-0.6-0.1l-24.5-6.6c-0.8-0.2-1.5-0.8-1.7-1.7l-6.5-24.4c-0.3-0.9 0-1.7 0.6-2.4l101-101c0.6-0.6 1.5-0.8 2.3-0.6l24.5 6.5c0.8 0.3 1.5 0.9 1.7 1.8l6.5 24.4c0.3 0.8 0 1.7-0.6 2.3l-101 101.1c-0.5 0.4-1.1 0.7-1.7 0.7zm-22.5-11l21.8 5.9 99-99.1-5.8-21.7-21.8-5.9-99 99.1z"/><path fill-rule="evenodd" class="a" d="m668.2 250.2q-0.7 0-1.2-0.4l-22-12.6c-0.7-0.5-1.2-1.3-1.2-2.1v-142.9c0-0.9 0.5-1.7 1.2-2.1l22-12.6c0.7-0.5 1.6-0.5 2.4 0l21.9 12.6c0.8 0.4 1.2 1.2 1.2 2.1v142.9c0 0.8-0.4 1.6-1.2 2.1l-21.9 12.6q-0.6 0.4-1.2 0.4zm-19.5-16.5l19.5 11.2 19.5-11.2v-140.1l-19.5-11.2-19.5 11.2zm41.4 1.4z"/><path fill-rule="evenodd" class="a" d="m703.2 232.1c-0.6 0-1.3-0.3-1.7-0.7l-101-101.1c-0.7-0.6-0.9-1.5-0.7-2.3l6.6-24.4c0.2-0.9 0.9-1.5 1.7-1.8l24.4-6.5c0.9-0.2 1.8 0 2.4 0.6l101 101c0.6 0.7 0.9 1.5 0.6 2.4l-6.5 24.4c-0.2 0.9-0.9 1.5-1.7 1.7l-24.5 6.6q-0.3 0.1-0.6 0.1zm-98.3-104.2l99 99.1 21.8-5.9 5.8-21.7-99.1-99.1-21.7 5.9z"/><path fill-rule="evenodd" class="a" d="m739.6 188h-142.9c-0.8 0-1.6-0.5-2.1-1.2l-12.6-21.9c-0.4-0.8-0.4-1.7 0-2.5l12.6-21.9c0.5-0.7 1.3-1.2 2.1-1.2h142.9c0.9 0 1.7 0.5 2.1 1.2l12.7 21.9c0.4 0.8 0.4 1.7 0 2.5l-12.7 21.9c-0.4 0.7-1.2 1.2-2.1 1.2zm-141.5-4.9h140.1l11.3-19.5-11.3-19.5h-140.1l-11.2 19.5z"/><path fill-rule="evenodd" class="a" d="m633.2 232.1q-0.3 0-0.7-0.1l-24.4-6.6c-0.8-0.2-1.5-0.8-1.7-1.7l-6.6-24.4c-0.2-0.9 0-1.7 0.7-2.4l101-101c0.6-0.6 1.5-0.8 2.3-0.6l24.5 6.5c0.8 0.3 1.5 0.9 1.7 1.8l6.5 24.4c0.3 0.8 0 1.7-0.6 2.3l-101 101.1c-0.5 0.4-1.1 0.7-1.7 0.7zm-22.5-11l21.7 5.9 99.1-99.1-5.8-21.7-21.8-5.9-99 99.1z"/><path fill-rule="evenodd" class="a" d="m836.4 250.2q-0.7 0-1.3-0.4l-21.9-12.6c-0.7-0.5-1.2-1.3-1.2-2.1v-142.9c0-0.9 0.5-1.7 1.2-2.1l21.9-12.6c0.8-0.5 1.7-0.5 2.5 0l21.9 12.6c0.7 0.4 1.2 1.2 1.2 2.1v142.9c0 0.8-0.5 1.6-1.2 2.1l-21.9 12.6q-0.6 0.4-1.2 0.4zm-19.5-16.5l19.5 11.2 19.5-11.2v-140.1l-19.5-11.2-19.5 11.2zm41.4 1.4z"/><path fill-rule="evenodd" class="a" d="m871.4 232.1c-0.7 0-1.3-0.3-1.7-0.7l-101.1-101.1c-0.6-0.6-0.8-1.5-0.6-2.3l6.6-24.4c0.2-0.9 0.8-1.5 1.7-1.8l24.4-6.5c0.9-0.2 1.7 0 2.4 0.6l101 101c0.6 0.7 0.8 1.5 0.6 2.4l-6.5 24.4c-0.3 0.9-0.9 1.5-1.8 1.7l-24.4 6.6q-0.3 0.1-0.6 0.1zm-98.4-104.2l99.1 99.1 21.7-5.9 5.9-21.7-99.1-99.1-21.7 5.9z"/><path fill-rule="evenodd" class="a" d="m907.8 188h-142.9c-0.8 0-1.6-0.5-2.1-1.2l-12.6-21.9c-0.5-0.8-0.5-1.7 0-2.5l12.6-21.9c0.5-0.7 1.3-1.2 2.1-1.2h142.9c0.9 0 1.7 0.5 2.1 1.2l12.6 21.9c0.5 0.8 0.5 1.7 0 2.5l-12.6 21.9c-0.4 0.7-1.2 1.2-2.1 1.2zm-141.5-4.9h140.1l11.2-19.5-11.2-19.5h-140.1l-11.2 19.5z"/><path fill-rule="evenodd" class="a" d="m801.3 232.1q-0.3 0-0.6-0.1l-24.4-6.6c-0.9-0.2-1.5-0.8-1.7-1.7l-6.6-24.4c-0.2-0.9 0-1.7 0.6-2.4l101.1-101c0.6-0.6 1.5-0.8 2.3-0.6l24.4 6.5c0.9 0.3 1.5 0.9 1.8 1.8l6.5 24.4c0.2 0.8 0 1.7-0.6 2.3l-101 101.1c-0.5 0.4-1.1 0.7-1.8 0.7zm-22.4-11l21.7 5.9 99.1-99.1-5.9-21.7-21.7-5.9-99.1 99.1z"/></g><path class="b" d="m1004.7 429.2c-4.5-2.3-11.7-1.5-14.4 2.7 2.8-7.9-1.8-17.5-9.6-20.4-7.9-2.8-17.8 0.4-20.7 8.2 3.9-14.4 7.9-29.3 6.1-44.2-1.8-14.8-11-29.8-25.4-33.8-11-3.2-22.8 0.5-33.2 5.3-10.1 4.6-19.8 10.4-27.6 18.2 0.9-8.2 1.1-16.5 0.1-24.7-2.8-22.3-16.5-44.8-38.2-50.9-16.5-4.7-34.2 0.9-49.8 8-16.7 7.6-32.7 17.4-45.1 31-12.3 13.6-23.4 30.7-23.1 49.1-9.3-2.7-20 0.7-26.3 8.1-6.2 7.5-9.8 19.8-5.5 28.5-5.9-3.2-13.5-2.9-19.1 0.8-5.6 3.6-12.5 12.7-11.9 19.3l-68.6 10.9h182.2 166.8 65.6c2-4.6 2.1-13.7-2.3-16.1z"/><path class="b" d="m8.8 509.1c5.1-2.7 13.5-1.8 16.6 3.1-3.2-9.1 2.1-20.3 11.1-23.6 9.1-3.3 20.6 0.4 24 9.4-4.7-16.6-9.3-33.8-7.1-51 2.1-17.1 12.7-34.4 29.3-39.1 12.7-3.7 26.3 0.6 38.4 6.1 11.6 5.3 22.8 12 31.9 21-1.1-9.4-1.3-19-0.1-28.5 3.2-25.7 19.1-51.7 44.1-58.8 19.1-5.4 39.5 1 57.6 9.2 19.3 8.9 37.8 20.1 52.1 35.9 14.2 15.7 27.1 35.5 26.7 56.7 10.8-3.1 23.2 0.8 30.4 9.4 7.1 8.6 11.4 22.9 6.4 32.9 6.8-3.7 15.6-3.3 22 0.9 6.5 4.2 14.5 14.7 13.8 22.4l79.3 12.6h-210.6-192.8-75.8c-2.3-5.3-2.4-15.9 2.7-18.6z"/><path class="c" d="m502.1 372.7h-4.7v-63.2h4.7z"/><path class="c" d="m647 520.6c0 85.8-65.9 155.4-147.3 155.4-81.3 0-147.2-69.6-147.2-155.4 0-85.8 65.9-155.4 147.2-155.4 81.4 0 147.3 69.6 147.3 155.4z"/><path fill-rule="evenodd" class="d" d="m499.7 677c-72.3 0-131.1-70.2-131.1-156.4 0-86.2 58.8-156.4 131.1-156.4 72.4 0 131.2 70.2 131.2 156.4 0 86.2-58.8 156.4-131.2 156.4zm0-310.9c-71.2 0-129.2 69.3-129.2 154.5 0 85.2 58 154.5 129.2 154.5 71.3 0 129.3-69.3 129.3-154.5 0-85.2-58-154.5-129.3-154.5z"/><path fill-rule="evenodd" class="d" d="m499.7 677c-62.8 0-114-70.2-114-156.4 0-86.2 51.2-156.4 114-156.4 62.9 0 114.1 70.2 114.1 156.4 0 86.2-51.2 156.4-114.1 156.4zm0-310.9c-61.8 0-112.1 69.3-112.1 154.5 0 85.2 50.3 154.5 112.1 154.5 61.9 0 112.2-69.3 112.2-154.5 0-85.2-50.3-154.5-112.2-154.5z"/><path fill-rule="evenodd" class="d" d="m499.7 677c-53.4 0-96.9-70.2-96.9-156.4 0-86.2 43.5-156.4 96.9-156.4 53.5 0 97 70.2 97 156.4 0 86.2-43.5 156.4-97 156.4zm0-310.9c-52.4 0-95 69.3-95 154.5 0 85.2 42.6 154.5 95 154.5 52.5 0 95.1-69.3 95.1-154.5 0-85.2-42.6-154.5-95.1-154.5z"/><path fill-rule="evenodd" class="d" d="m499.7 677c-44 0-79.8-70.2-79.8-156.4 0-86.2 35.8-156.4 79.8-156.4 44.1 0 79.9 70.2 79.9 156.4 0 86.2-35.8 156.4-79.9 156.4zm0-310.9c-42.9 0-77.9 69.3-77.9 154.5 0 85.2 35 154.5 77.9 154.5 43 0 78-69.3 78-154.5 0-85.2-35-154.5-78-154.5z"/><path fill-rule="evenodd" class="d" d="m499.7 677c-34.6 0-62.8-70.2-62.8-156.4 0-86.2 28.2-156.4 62.8-156.4 34.7 0 62.9 70.2 62.9 156.4 0 86.2-28.2 156.4-62.9 156.4zm0-310.9c-33.5 0-60.8 69.3-60.8 154.5 0 85.2 27.3 154.5 60.8 154.5 33.6 0 60.9-69.3 60.9-154.5 0-85.2-27.3-154.5-60.9-154.5z"/><path fill-rule="evenodd" class="d" d="m499.7 677c-25.2 0-45.7-70.2-45.7-156.4 0-86.2 20.5-156.4 45.7-156.4 25.3 0 45.8 70.2 45.8 156.4 0 86.2-20.5 156.4-45.8 156.4zm0-310.9c-24.1 0-43.8 69.3-43.8 154.5 0 85.2 19.7 154.5 43.8 154.5 24.2 0 43.8-69.3 43.8-154.5 0-85.2-19.6-154.5-43.8-154.5z"/><path fill-rule="evenodd" class="d" d="m499.7 677c-17.9 0-28.6-79.5-28.6-156.4 0-76.9 10.7-156.4 28.6-156.4 18 0 28.7 79.5 28.7 156.4 0 76.9-10.7 156.4-28.7 156.4zm0-310.9c-14.4 0-26.7 70.8-26.7 154.5 0 83.7 12.3 154.5 26.7 154.5 14.5 0 26.8-70.8 26.8-154.5 0-83.7-12.3-154.5-26.8-154.5z"/><path fill-rule="evenodd" class="d" d="m499.7 677c-1.5 0-5.2 0-8.4-46.4-2-29.4-3.1-68.5-3.1-110 0-41.5 1.1-80.6 3.1-110 3.2-46.4 6.9-46.4 8.4-46.4 1.6 0 5.3 0 8.5 46.4 2 29.4 3.1 68.5 3.1 110 0 41.5-1.1 80.6-3.1 110-3.2 46.4-6.9 46.4-8.5 46.4zm0-310.9c-4 1.8-9.6 56.5-9.6 154.5 0 98 5.6 152.7 9.7 154.5 4-1.8 9.6-56.5 9.6-154.5 0-98-5.6-152.7-9.7-154.5z"/><path class="e" d="m523.1 367.1c32.6 14.2 59 42.8 69 77.1 4.7 16 5.9 33.8-1.1 49-7.5 16-23.1 26.9-39.8 32.6-16.8 5.7-34.6 6.8-52.2 7.9 23.2 31 71.3 46.2 109.5 39.6 11.8-2 23.1-6.2 33.4-12.2 3.3-12.9 5.1-26.5 5.1-40.5 0-77.5-53.7-141.7-123.9-153.5z"/><path class="f" d="m671.1 530c0-19.6-76.7-35.4-171.4-35.4-94.6 0-171.3 15.8-171.3 35.4 0 4.8 4.6 9.3 13 13.5v108.8h316.7v-108.8c8.4-4.2 13-8.7 13-13.5z"/><path class="e" d="m658.1 543.5c8.4-4.2 13-8.7 13-13.5 0-19.6-76.7-35.4-171.4-35.4-59.4 0-111.8 6.3-142.5 15.7-0.6 6.6 0 13 2.4 18.6 66.5-0.9 133.1-1.9 199.5 2 13.4 0.7 27.2 1.8 39.7 6.9 12.5 5.2 23.7 15.2 26.8 28.3 3.2 13.2-4 28.9-17.1 32.3 15.8 7.7 33.5 11.7 49.6 9.7z"/><path class="g" d="m340.2 542.9c25-13.2 87-22.5 159.5-22.5 72.6 0 134.6 9.3 159.6 22.5 7.6-4 11.8-8.4 11.8-12.9 0-19.6-76.7-35.4-171.4-35.4-94.6 0-171.3 15.8-171.3 35.4 0 4.5 4.2 8.9 11.8 12.9z"/><path class="h" d="m395.5 426.1c-9.4 13-16.5 27.9-18.4 43.8-0.3 3-0.2 6.8 2.5 8.3 2.8 1.7 6.3-0.3 8.6-2.6 7.4-7.4 10.2-18.1 14.5-27.6 5.9-13.4 15.2-25.3 26.7-34.3 3.5-2.7 7.2-5.3 9.6-9 7.6-11.8-6-18.6-14.7-10.5-10.4 9.6-20.5 20.4-28.8 31.9z"/><path class="h" d="m450.4 388.3c-0.9 1.8-1.2 4.1 0 5.6 1.2 1.3 3.1 1.4 4.8 1.4 9.6-0.2 19.1-3.7 26.6-9.7 1.1-0.9 2.3-2.1 2.3-3.5-0.1-2.3-2.9-3.4-5.1-3.7-9.8-1.4-23.8-0.5-28.6 9.9z"/><path class="h" d="m417.1 504.1c2.2-0.2 5.1 0.2 5.5 2.4 0.4 2.2-2.4 3.5-4.6 4-20 4.8-40.2 11.1-60.5 14.5-7.8 1.3-6-4.8-0.7-8 7.5-4.6 19.4-6 27.9-7.9 10.7-2.3 21.5-4 32.4-5z"/><path class="h" d="m431.7 503.6c-1.2 0.8-1.7 3-0.4 3.8 0.5 0.3 1.2 0.4 1.8 0.4 6.1 0 12.1-0.5 18.1-1.6 1.4-0.3 3.3-1.1 3-2.6-0.1-1.1-1.4-1.6-2.6-1.8-5.1-1.1-15.3-1.2-19.9 1.8z"/><path class="c" d="m509.1 341.1c0 5.1-4.2 9.3-9.4 9.3-5.1 0-9.3-4.2-9.3-9.3 0-5.1 4.2-9.3 9.3-9.3 5.2 0 9.4 4.2 9.4 9.3z"/><path class="c" d="m506.3 294.9c0.4 0.9 0.7 1.8 0.7 2.9 0 4-3.3 7.2-7.3 7.2-3.9 0-7.2-3.2-7.2-7.2 0-1.1 0.3-2 0.7-2.9-2.1 1.8-3.3 4.4-3.3 7.3 0 5.5 4.4 9.9 9.8 9.9 5.5 0 9.9-4.4 9.9-9.9 0-2.9-1.2-5.5-3.3-7.3z"/><path class="i" d="m762.9 840.3h-526.3v-280h526.3z"/><path class="j" d="m762.9 840.3h78.5v-209.4l-78.5-70.6z"/><g clip-path="url(#cp2)"><path class="f" d="m794 885.2h-16.6v-260.9c0-4.6 3.7-8.3 8.3-8.3 4.6 0 8.3 3.7 8.3 8.3z"/><path class="k" d="m785.7 616q-0.9 0-1.7 0.2c4.9 16.2 5.1 33.9 5.2 51.1q0.2 46.2 0.3 92.5c0.1 15.2 0.1 30.6-2.2 45.7-1.7 11.2-4.8 22.3-9.9 32.5v9.4c5.7-0.5 11.4-1 16.6-2.8v-220.3c0-4.6-3.7-8.3-8.3-8.3z"/><path class="f" d="m826.2 910.7h-16.6v-260.8c0-4.6 3.7-8.3 8.3-8.3 4.6 0 8.3 3.7 8.3 8.3z"/><path class="k" d="m817.9 641.6q-0.9 0-1.7 0.1c4.9 16.2 5.1 34 5.2 51.1q0.1 46.3 0.3 92.5c0 15.3 0.1 30.6-2.2 45.7-1.7 11.2-4.8 22.4-9.9 32.5v9.5c5.6-0.5 11.3-1.1 16.6-2.8v-220.3c0-4.6-3.7-8.3-8.3-8.3z"/></g><path class="j" d="m237.1 840.3h-78.5v-209.4l78.5-70.6z"/><g clip-path="url(#cp3)"><path class="f" d="m206 885.2h16.6v-260.9c0-4.6-3.7-8.3-8.3-8.3-4.6 0-8.3 3.7-8.3 8.3z"/><path class="k" d="m214.3 616q0.9 0 1.7 0.2c-4.9 16.2-5.1 33.9-5.2 51.1q-0.2 46.2-0.3 92.5c-0.1 15.2-0.1 30.6 2.2 45.7 1.7 11.2 4.8 22.3 9.9 32.5v9.4c-5.7-0.5-11.4-1-16.6-2.8v-220.3c0-4.6 3.7-8.3 8.3-8.3z"/><path class="f" d="m173.8 910.7h16.6v-260.8c0-4.6-3.7-8.3-8.3-8.3-4.6 0-8.3 3.7-8.3 8.3z"/><path class="k" d="m182.1 641.6q0.9 0 1.7 0.1c-4.9 16.2-5.1 34-5.2 51.1q-0.1 46.3-0.3 92.5c0 15.3-0.1 30.6 2.2 45.7 1.7 11.2 4.8 22.4 9.9 32.5v9.5c-5.6-0.5-11.3-1.1-16.6-2.8v-220.3c0-4.6 3.7-8.3 8.3-8.3z"/></g><path class="f" d="m541.2 840.3h-82.9l-3.2-142.3c-0.6-25.1 19.6-45.7 44.6-45.7 25.1 0 45.3 20.6 44.7 45.7z"/><path class="k" d="m541.2 840.3l3.2-142.3c0.6-25.1-19.6-45.7-44.7-45.7-6.6 0-12.8 1.4-18.4 4 6.9 1.3 13.5 4.4 18.9 8.8 12.2 10.1 18.8 25.5 22.7 40.9 11.6 45.5 1.8 95.7-24.8 134.3z"/><path class="f" d="m316.7 723.9h-45.2l-1.8-44.2c-0.3-13.7 10.7-25 24.4-25 13.7 0 24.7 11.3 24.4 25z"/><path class="k" d="m316.7 723.9l1.8-44.2c0.3-13.7-10.7-25-24.4-25-3.6 0-7 0.8-10.1 2.2 3.8 0.7 7.4 2.4 10.3 4.8 16.9 13.9 17.6 40 5.6 57.2-1.6 2.4-3.8 4.8-6.7 5 7.7-0.6 15.8 0 23.5 0z"/><path class="f" d="m373.5 723.9h-45.2l-1.8-44.2c-0.3-13.7 10.7-25 24.4-25 13.7 0 24.7 11.3 24.4 25z"/><path class="k" d="m373.5 723.9l1.8-44.2c0.3-13.7-10.7-25-24.4-25-3.6 0-7 0.8-10.1 2.2 3.7 0.7 7.4 2.4 10.3 4.8 16.9 13.9 17.6 40 5.6 57.2-1.6 2.4-3.8 4.8-6.7 5 7.7-0.6 15.7 0 23.5 0z"/><path class="f" d="m430.3 723.9h-45.3l-1.7-44.2c-0.3-13.7 10.7-25 24.4-25 13.6 0 24.7 11.3 24.3 25z"/><path class="k" d="m430.3 723.9l1.7-44.2c0.4-13.7-10.7-25-24.3-25-3.6 0-7.1 0.8-10.1 2.2 3.7 0.7 7.4 2.4 10.3 4.8 16.8 13.9 17.6 40 5.6 57.2-1.7 2.4-3.8 4.8-6.7 5 7.7-0.6 15.7 0 23.5 0z"/><path class="f" d="m626.4 723.9h-45.2l-1.8-44.2c-0.3-13.7 10.7-25 24.4-25 13.7 0 24.7 11.3 24.4 25z"/><path class="k" d="m626.4 723.9l1.8-44.2c0.3-13.7-10.7-25-24.4-25-3.6 0-7 0.8-10.1 2.2 3.8 0.7 7.4 2.4 10.4 4.8 16.8 13.9 17.5 40 5.5 57.2-1.6 2.4-3.8 4.8-6.6 5 7.7-0.6 15.7 0 23.4 0z"/><path class="f" d="m683.2 723.9h-45.2l-1.8-44.2c-0.3-13.7 10.7-25 24.4-25 13.7 0 24.7 11.3 24.4 25z"/><path class="k" d="m683.2 723.9l1.8-44.2c0.3-13.7-10.7-25-24.4-25-3.6 0-7 0.8-10.1 2.2 3.8 0.7 7.4 2.4 10.4 4.8 16.8 13.9 17.5 40 5.5 57.2-1.6 2.4-3.8 4.8-6.7 5 7.8-0.6 15.8 0 23.5 0z"/><path class="f" d="m740 723.9h-45.2l-1.8-44.2c-0.3-13.7 10.7-25 24.4-25 13.7 0 24.7 11.3 24.4 25z"/><path class="k" d="m740 723.9l1.8-44.2c0.3-13.7-10.7-25-24.4-25-3.6 0-7 0.8-10.1 2.2 3.8 0.7 7.4 2.4 10.4 4.8 16.8 13.9 17.5 40 5.5 57.2-1.6 2.4-3.8 4.8-6.7 5 7.7-0.6 15.8 0 23.5 0z"/><path class="l" d="m423.4 754.2h-154.9c-1.7 0-3-1.3-3-3 0-1.7 1.3-3.1 3-3.1h154.9c1.7 0 3 1.4 3 3.1 0 1.7-1.3 3-3 3z"/><path class="j" d="m411 760h-16.8c-1.6 0-2.8-1.3-2.8-2.9 0-1.6 1.2-2.9 2.8-2.9h16.8c1.6 0 2.8 1.3 2.8 2.9 0 1.6-1.2 2.9-2.8 2.9z"/><path class="j" d="m407.2 840.3h-9.2v-80.3h9.2z"/><path class="j" d="m373.2 760h-16.7c-1.6 0-2.9-1.3-2.9-2.9 0-1.6 1.3-2.9 2.9-2.9h16.7c1.6 0 2.9 1.3 2.9 2.9 0 1.6-1.3 2.9-2.9 2.9z"/><path class="j" d="m369.5 840.3h-9.3v-80.3h9.3z"/><path class="j" d="m335.4 760h-16.7c-1.6 0-2.9-1.3-2.9-2.9 0-1.6 1.3-2.9 2.9-2.9h16.7c1.6 0 2.9 1.3 2.9 2.9 0 1.6-1.3 2.9-2.9 2.9z"/><path class="j" d="m331.7 840.3h-9.3v-80.3h9.3z"/><path class="j" d="m297.7 760h-16.7c-1.6 0-2.9-1.3-2.9-2.9 0-1.6 1.3-2.9 2.9-2.9h16.7c1.6 0 2.9 1.3 2.9 2.9 0 1.6-1.3 2.9-2.9 2.9z"/><path class="j" d="m294 840.3h-9.3v-80.3h9.3z"/><path class="l" d="m742.9 754.2h-154.8c-1.7 0-3.1-1.3-3.1-3 0-1.7 1.4-3.1 3.1-3.1h154.8c1.7 0 3.1 1.4 3.1 3.1 0 1.7-1.4 3-3.1 3z"/><path class="j" d="m730.5 760h-16.7c-1.6 0-2.9-1.3-2.9-2.9 0-1.6 1.3-2.9 2.9-2.9h16.7c1.6 0 2.9 1.3 2.9 2.9 0 1.6-1.3 2.9-2.9 2.9z"/><path class="j" d="m726.8 840.3h-9.3v-80.3h9.3z"/><path class="j" d="m692.8 760h-16.8c-1.6 0-2.8-1.3-2.8-2.9 0-1.6 1.2-2.9 2.8-2.9h16.8c1.6 0 2.8 1.3 2.8 2.9 0 1.6-1.2 2.9-2.8 2.9z"/><path class="j" d="m689 840.3h-9.2v-80.3h9.2z"/><path class="j" d="m655 760h-16.7c-1.6 0-2.9-1.3-2.9-2.9 0-1.6 1.3-2.9 2.9-2.9h16.7c1.6 0 2.9 1.3 2.9 2.9 0 1.6-1.3 2.9-2.9 2.9z"/><path class="j" d="m651.3 840.3h-9.3v-80.3h9.3z"/><path class="j" d="m617.2 760h-16.7c-1.6 0-2.9-1.3-2.9-2.9 0-1.6 1.3-2.9 2.9-2.9h16.7c1.6 0 2.9 1.3 2.9 2.9 0 1.6-1.3 2.9-2.9 2.9z"/><path class="j" d="m613.5 840.3h-9.3v-80.3h9.3z"/><path class="j" d="m330.1 608.6h-74v-33.8h74z"/><path class="j" d="m415.1 608.6h-73.9v-33.8h73.9z"/><path class="j" d="m500.2 608.6h-73.9v-33.8h73.9z"/><path class="j" d="m585.2 608.6h-73.9v-33.8h73.9z"/><path class="j" d="m670.3 608.6h-73.9v-33.8h73.9z"/><path class="j" d="m755.3 608.6h-73.9v-33.8h73.9z"/><path class="j" d="m280.3 630.5h-23.6v-12h23.6z"/><path class="j" d="m307.6 630.5h-23.7v-12h23.7z"/><path class="j" d="m334.8 630.5h-23.7v-12h23.7z"/><path class="j" d="m362 630.5h-23.6v-12h23.6z"/><path class="j" d="m389.3 630.5h-23.7v-12h23.7z"/><path class="j" d="m416.5 630.5h-23.7v-12h23.7z"/><path class="j" d="m449.5 630.5h-23.7v-12h23.7z"/><path class="j" d="m476.7 630.5h-23.6v-12h23.6z"/><path class="j" d="m504 630.5h-23.7v-12h23.7z"/><path class="j" d="m531.2 630.5h-23.7v-12h23.7z"/><path class="j" d="m558.4 630.5h-23.7v-12h23.7z"/><path class="j" d="m585.6 630.5h-23.6v-12h23.6z"/><path class="j" d="m618.7 630.5h-23.7v-12h23.7z"/><path class="j" d="m645.9 630.5h-23.7v-12h23.7z"/><path class="j" d="m673.1 630.5h-23.7v-12h23.7z"/><path class="j" d="m700.3 630.5h-23.6v-12h23.6z"/><path class="j" d="m727.6 630.5h-23.7v-12h23.7z"/><path class="j" d="m754.8 630.5h-23.7v-12h23.7z"/></g><g clip-path="url(#cp4)"><path class="m" d="m744.7 839.5c10.2-21.8 28.4-39.8 50.3-49.8 21.9-10.1 47.3-12.2 70.6-5.8-4 17.3-16.9 33.7-31.6 43.7-12.6 8.7-27.9 13.1-43.2 14.5-15.3 1.4-30.9-0.4-46.1-2.6z"/><path class="n" d="m712.2 860.2q-0.2-0.1-0.3-0.3c-0.5-0.7-0.3-1.6 0.4-2 42.6-28 88.4-51.2 136.1-68.9 0.8-0.3 1.6 0.1 1.9 0.8 0.2 0.8-0.1 1.6-0.9 1.9-47.5 17.7-93.1 40.8-135.5 68.6-0.6 0.4-1.3 0.3-1.7-0.1z"/><path class="n" d="m801.6 810.7q-0.1 0-0.1-0.1c-0.6-0.5-0.6-1.4-0.1-2 9-9.8 29.7-23.5 30.6-24.1 0.7-0.4 1.6-0.2 2 0.4 0.4 0.7 0.3 1.6-0.4 2-0.2 0.2-21.3 14.2-30.1 23.7-0.5 0.5-1.3 0.6-1.9 0.1z"/><path class="n" d="m779.6 821.3c-0.4-0.3-0.6-0.8-0.5-1.4 0.1-0.8 0.8-1.3 1.6-1.2 15.6 2.6 51.7-5.5 52.1-5.6 0.8-0.1 1.6 0.3 1.7 1.1 0.2 0.8-0.3 1.6-1.1 1.7-1.5 0.4-37 8.4-53.2 5.7q-0.3-0.1-0.6-0.3z"/><path class="n" d="m762.8 830c-0.6-0.4-0.7-1.3-0.3-1.9 11.4-16.1 37.2-34.8 38.3-35.6 0.6-0.5 1.5-0.3 2 0.3 0.5 0.7 0.3 1.6-0.3 2-0.3 0.2-26.6 19.3-37.6 34.9-0.5 0.7-1.4 0.9-2 0.4q-0.1 0-0.1-0.1z"/><path class="c" d="m700.7 840.1c-6.9-7.8-6.1-20.2-0.7-29.1 5.3-8.9 14.1-15.1 22.9-20.6 8.8-5.6 17.9-11 24.4-19.1 6.8-8.4 10.1-19.1 14.8-28.8 4.7-9.7 11.9-19.4 22.3-22.2 5.9-1.6 12.2-0.8 18.2-1.9 18.6-3.3 29.7-22.4 46-32 5.5-3.2 13.6-4.9 17.6 0.1 3.8 4.7 0.8 12.1-3.9 16.1-4.7 4-10.7 6.1-15.1 10.4-12.3 12-6.9 34.5-18.5 47.2-7.6 8.2-20.2 9.7-28.8 16.9-7.5 6.4-10.8 16.4-13 26-2.1 9.6-3.5 19.7-8.4 28.2-4.8 8.6-14.4 15.5-24.1 13.6-18.1 5.2-41.2 9.3-53.7-4.8z"/><path class="o" d="m711.1 858.3q-0.5 0-1-0.3c-0.7-0.5-0.9-1.5-0.4-2.3 40.7-58.6 87.9-113 140.3-161.7 0.6-0.6 1.6-0.5 2.3 0.1 0.6 0.7 0.5 1.7-0.1 2.3-52.2 48.5-99.2 102.7-139.8 161.2-0.3 0.5-0.8 0.7-1.3 0.7z"/><path class="o" d="m782 767.5q-0.2 0-0.4 0c-0.9-0.3-1.4-1.1-1.2-2 3.6-14.1 8.3-28.1 13.8-41.5 0.4-0.9 1.3-1.2 2.2-0.9 0.8 0.3 1.2 1.3 0.8 2.1-5.5 13.3-10.1 27.1-13.6 41.1-0.2 0.7-0.9 1.2-1.6 1.2z"/><path class="o" d="m771 779.5q-0.1 0-0.3 0c-0.9-0.2-1.5-1-1.3-1.9 1.8-11.2 4.3-22.4 7.2-33.3 0.2-0.9 1.1-1.4 2-1.1 0.8 0.2 1.4 1.1 1.1 1.9-2.9 10.9-5.3 22-7.1 33-0.1 0.8-0.8 1.4-1.6 1.4z"/><path class="o" d="m731.7 828.6q-0.2 0-0.3-0.1c-0.9-0.1-1.5-1-1.3-1.9 2.8-14.9 6.5-29.8 11-44.2 0.2-0.9 1.1-1.4 2-1.1 0.8 0.3 1.3 1.2 1.1 2-4.5 14.4-8.2 29.2-10.9 43.9-0.2 0.8-0.9 1.4-1.6 1.4z"/><path class="o" d="m741.7 818c-0.7 0-1.3-0.4-1.6-1.1-0.3-0.9 0.2-1.8 1-2.1 13.1-4.4 25.9-9.8 38.1-16 0.8-0.4 1.8-0.1 2.2 0.7 0.4 0.8 0.1 1.8-0.7 2.2-12.4 6.3-25.3 11.7-38.5 16.2q-0.3 0.1-0.5 0.1z"/><path class="o" d="m785.9 764.4c-0.7 0-1.3-0.4-1.5-1.1-0.3-0.9 0.2-1.8 1-2 14.8-4.8 29.3-10.9 43-18.1 0.8-0.5 1.8-0.2 2.2 0.6 0.5 0.8 0.2 1.8-0.6 2.2-13.9 7.4-28.6 13.6-43.6 18.4q-0.3 0-0.5 0z"/><path class="m" d="m577.9 843.5c-7.9-13.5-11-29.8-8.4-45.3 2.6-15.4 10.8-29.9 22.7-40.1 7.9 8.5 12 21.4 12 33 0 10-3.2 19.8-8 28.5-4.8 8.8-11.5 16.5-18.3 23.9z"/><path class="n" d="m577.2 868.6q-0.1 0.1-0.3 0c-0.5 0-0.9-0.4-0.9-0.9 0.5-33.2 4.8-66.3 12.7-98.5 0.1-0.5 0.6-0.8 1.1-0.7 0.5 0.1 0.8 0.6 0.7 1.1-7.9 32.1-12.1 65.1-12.6 98.1 0 0.4-0.3 0.8-0.7 0.9z"/><path class="n" d="m583.2 802.4q0 0 0 0c-0.5 0.1-1-0.2-1.1-0.7-2-8.4-1.9-24.6-1.8-25.3 0-0.5 0.4-0.9 0.9-0.9 0.5 0 0.9 0.4 0.9 0.9 0 0.2-0.1 16.7 1.8 24.9 0.1 0.4-0.2 0.9-0.7 1.1z"/><path class="n" d="m580.9 818.1c-0.3 0.1-0.7 0-0.9-0.2-0.4-0.4-0.4-1-0.1-1.4 7.1-7.4 16-29.8 16.1-30.1 0.1-0.4 0.7-0.7 1.2-0.5 0.5 0.2 0.7 0.7 0.5 1.2-0.4 1-9 23-16.4 30.7q-0.2 0.2-0.4 0.3z"/><path class="n" d="m579.5 830.3c-0.5 0.2-1-0.1-1.2-0.5-4.5-12-5.1-32.8-5.2-33.7 0-0.5 0.4-0.9 1-0.9 0.5 0 0.9 0.4 0.9 0.9 0 0.2 0.7 21.3 5.1 33 0.2 0.5-0.1 1-0.6 1.2q0 0 0 0z"/><path class="c" d="m564.5 885.5c-7.1-5.3-8.5-15.7-5.7-24 2.9-8.3 9.2-14.9 15.5-21 6.3-6.1 12.9-12.2 16.9-20.1 4.1-8.1 5-17.5 7.2-26.4 2.3-8.9 6.5-18.1 14.7-22.3 4.6-2.3 9.9-2.8 14.7-4.7 14.8-6 20.7-23.7 32.5-34.5 4-3.6 10.4-6.4 14.6-3 4 3.3 2.8 9.9-0.4 14-3.2 4.1-7.8 7-10.7 11.3-8.1 12 0.3 29.8-7.1 42.3-4.9 8.1-15.1 11.5-20.9 19-5.2 6.6-6.2 15.4-6.3 23.8-0.1 8.3 0.5 16.9-2 24.8-2.6 8-9.3 15.3-17.7 15.5-14.1 7.4-32.5 14.8-45.3 5.3z"/><path class="o" d="m576.2 898.8q-0.4 0.1-0.8-0.1c-0.7-0.3-1-1.1-0.7-1.8 23.5-55.7 53.2-109 88.1-158.3 0.4-0.6 1.3-0.8 1.9-0.3 0.6 0.4 0.8 1.3 0.3 1.9-34.8 49.2-64.3 102.3-87.8 157.8-0.2 0.4-0.5 0.7-1 0.8z"/><path class="o" d="m619.3 811.3q-0.2 0-0.4 0c-0.7-0.1-1.3-0.7-1.3-1.5 0.5-12.3 1.9-24.6 4.2-36.7 0.2-0.8 0.9-1.3 1.6-1.1 0.8 0.1 1.3 0.8 1.1 1.6-2.2 11.9-3.6 24.2-4.2 36.4 0 0.6-0.4 1.1-1 1.3z"/><path class="o" d="m612.2 823.1q-0.1 0-0.2 0c-0.8 0-1.4-0.5-1.5-1.3-0.4-9.6-0.3-19.3 0.2-28.8 0.1-0.8 0.7-1.4 1.5-1.3 0.7 0 1.3 0.7 1.3 1.4-0.5 9.5-0.6 19.1-0.2 28.6 0 0.7-0.4 1.3-1.1 1.4z"/><path class="o" d="m588.1 870.6q-0.1 0-0.2 0c-0.8 0-1.4-0.6-1.4-1.3-0.3-12.9 0.2-25.9 1.4-38.6 0.1-0.8 0.7-1.3 1.5-1.3 0.8 0.1 1.3 0.8 1.2 1.5-1.1 12.7-1.6 25.6-1.4 38.3 0 0.7-0.4 1.2-1.1 1.4z"/><path class="o" d="m594.6 860.1c-0.6 0.1-1.2-0.1-1.5-0.7-0.4-0.6-0.1-1.5 0.5-1.8 10-6 19.7-12.7 28.8-19.9 0.6-0.5 1.4-0.4 1.9 0.2 0.5 0.6 0.4 1.4-0.2 1.9-9.2 7.4-19 14.1-29.1 20.1q-0.2 0.1-0.4 0.2z"/><path class="o" d="m621.9 808c-0.5 0.1-1.1-0.1-1.4-0.6-0.4-0.7-0.2-1.5 0.5-1.9 11.4-6.5 22.4-14.1 32.5-22.5 0.6-0.5 1.4-0.4 1.9 0.2 0.5 0.6 0.4 1.4-0.1 1.9-10.3 8.6-21.4 16.2-33 22.8q-0.1 0.1-0.4 0.1z"/><path class="p" d="m696.1 753.3c7-8.4 9.5-20.4 6.3-30.9-8 7.8-9.9 20.3-6.3 30.9z"/><path class="p" d="m687.6 773.1c5.3-9.5 5.5-21.8 0.4-31.5-6.3 9.2-5.9 21.8-0.4 31.5z"/><path class="p" d="m663.9 812c5.8-9.2 6.6-21.5 2.1-31.4-6.9 8.8-7.1 21.5-2.1 31.4z"/><path class="p" d="m727.3 719.5c1.5-12.4 9.3-23.8 20.2-29.8-0.8 12.5-9.2 24-20.2 29.8z"/><path class="p" d="m708.3 763.4c7.2-15.5 21.9-27.3 38.6-31.1-5.6 15.6-22.1 29.6-38.6 31.1z"/><path class="p" d="m680.2 815.8c6.1-11.8 17.6-20.5 30.6-23.1-4.8 13-16.7 22.8-30.6 23.1z"/><path class="c" d="m651.6 862.2q-0.4 0-0.9-0.1c-0.7-0.3-1-1.1-0.7-1.8 23.6-55.7 53.2-109 88.1-158.3 0.5-0.7 1.3-0.8 1.9-0.4 0.7 0.5 0.8 1.3 0.4 1.9-34.8 49.2-64.4 102.3-87.8 157.8-0.2 0.5-0.6 0.8-1 0.9z"/><path class="c" d="m694.6 774.6q-0.2 0-0.4 0c-0.7 0-1.3-0.6-1.3-1.4 0.5-12.3 2-24.7 4.3-36.8 0.1-0.7 0.8-1.2 1.6-1.1 0.7 0.2 1.2 0.9 1.1 1.6-2.3 12-3.7 24.2-4.2 36.4-0.1 0.7-0.5 1.2-1.1 1.3z"/><path class="c" d="m687.5 786.5q-0.1 0-0.2 0c-0.8 0-1.4-0.6-1.4-1.3-0.4-9.6-0.4-19.3 0.2-28.9 0-0.7 0.7-1.3 1.4-1.3 0.8 0.1 1.3 0.7 1.3 1.5-0.5 9.5-0.6 19.1-0.2 28.5 0.1 0.7-0.4 1.3-1.1 1.5z"/><path class="c" d="m663.5 833.9q-0.2 0.1-0.3 0.1c-0.8 0-1.4-0.6-1.4-1.4-0.3-12.8 0.2-25.8 1.4-38.6 0.1-0.7 0.8-1.3 1.5-1.2 0.8 0.1 1.3 0.7 1.3 1.5-1.2 12.7-1.7 25.5-1.4 38.3 0 0.6-0.5 1.2-1.1 1.3z"/><path class="c" d="m669.9 823.5c-0.5 0.1-1.1-0.2-1.4-0.7-0.4-0.6-0.2-1.5 0.4-1.9 10.1-5.9 19.7-12.6 28.8-19.9 0.6-0.5 1.5-0.4 1.9 0.2 0.5 0.6 0.4 1.5-0.2 2-9.1 7.3-18.9 14.1-29.1 20.1q-0.2 0.1-0.4 0.2z"/><path class="c" d="m697.3 771.4c-0.6 0.1-1.2-0.1-1.5-0.7-0.4-0.6-0.1-1.5 0.5-1.9 11.5-6.4 22.4-14 32.5-22.4 0.6-0.5 1.5-0.4 2 0.2 0.4 0.5 0.4 1.4-0.2 1.9-10.3 8.5-21.3 16.2-32.9 22.7q-0.2 0.1-0.4 0.2z"/><path class="m" d="m651.5 866.3c-0.6-21.7 6.7-43.6 20.2-60.6 13.5-17.1 33.1-29.2 54.4-33.5 3.9 15.6 0.3 34-7.5 48.1-6.6 12.1-17.1 21.9-28.9 29.3-11.7 7.4-25.1 12.3-38.2 16.7z"/><path class="n" d="m633.8 896.3q-0.2 0-0.4-0.1c-0.6-0.4-0.8-1.2-0.5-1.8 22.9-39.9 50.3-77.3 81.5-111.1 0.5-0.5 1.3-0.6 1.9-0.1 0.5 0.5 0.5 1.3 0 1.9-31 33.6-58.3 70.8-81.1 110.6-0.3 0.5-0.9 0.7-1.4 0.6z"/><path class="n" d="m685.6 819.9q-0.1 0-0.1 0c-0.7-0.2-1.1-0.9-0.9-1.6 3.3-11.6 14.3-31.1 14.8-31.9 0.3-0.6 1.1-0.9 1.8-0.5 0.6 0.4 0.8 1.2 0.4 1.8-0.1 0.2-11.3 20.1-14.5 31.3-0.2 0.7-0.9 1.1-1.5 0.9z"/><path class="n" d="m672.2 837.4c-0.5-0.1-0.8-0.4-1-0.9-0.2-0.6 0.2-1.4 0.9-1.6 13.6-4.3 39.4-25.6 39.6-25.8 0.6-0.4 1.4-0.4 1.8 0.2 0.5 0.5 0.4 1.4-0.1 1.8-1.1 0.9-26.5 21.9-40.6 26.3q-0.3 0.1-0.6 0z"/><path class="n" d="m662.2 851.3c-0.6-0.1-1.1-0.8-1-1.4 2.6-17.6 15.7-43.2 16.3-44.3 0.3-0.7 1.1-0.9 1.8-0.6 0.6 0.3 0.8 1.1 0.5 1.8-0.1 0.2-13.5 26.3-16 43.4-0.1 0.8-0.8 1.2-1.5 1.1q0 0-0.1 0z"/><path class="m" d="m255.3 839.5c-10.2-21.8-28.4-39.8-50.3-49.8-21.9-10.1-47.3-12.2-70.6-5.8 4 17.3 16.9 33.7 31.6 43.7 12.6 8.7 27.9 13.1 43.2 14.5 15.3 1.4 30.9-0.4 46.1-2.6z"/><path class="n" d="m287.8 860.2q0.2-0.1 0.3-0.3c0.5-0.7 0.3-1.6-0.4-2-42.6-28-88.4-51.2-136.1-68.9-0.8-0.3-1.6 0.1-1.9 0.8-0.2 0.8 0.1 1.6 0.9 1.9 47.5 17.7 93.1 40.8 135.5 68.6 0.6 0.4 1.3 0.3 1.7-0.1z"/><path class="n" d="m198.4 810.7q0.1 0 0.1-0.1c0.6-0.5 0.6-1.4 0.1-2-9-9.8-29.7-23.5-30.6-24.1-0.7-0.4-1.6-0.2-2 0.4-0.4 0.7-0.3 1.6 0.4 2 0.2 0.2 21.3 14.2 30.1 23.7 0.5 0.5 1.3 0.6 1.9 0.1z"/><path class="n" d="m220.4 821.3c0.4-0.3 0.6-0.8 0.5-1.4-0.1-0.8-0.8-1.3-1.6-1.2-15.6 2.6-51.7-5.5-52.1-5.6-0.8-0.1-1.6 0.3-1.7 1.1-0.2 0.8 0.3 1.6 1.1 1.7 1.5 0.4 37 8.4 53.2 5.7q0.3-0.1 0.6-0.3z"/><path class="n" d="m237.2 830c0.6-0.4 0.7-1.3 0.3-1.9-11.4-16.1-37.2-34.8-38.3-35.6-0.6-0.5-1.5-0.3-2 0.3-0.5 0.7-0.3 1.6 0.3 2 0.3 0.2 26.6 19.3 37.6 34.9 0.5 0.7 1.4 0.9 2 0.4q0.1 0 0.1-0.1z"/><path class="c" d="m299.3 840.1c6.9-7.8 6.1-20.2 0.7-29.1-5.3-8.9-14.1-15.1-22.9-20.6-8.8-5.6-17.9-11-24.4-19.1-6.8-8.4-10.1-19.1-14.8-28.8-4.7-9.7-11.9-19.4-22.3-22.2-5.9-1.6-12.2-0.8-18.2-1.9-18.6-3.3-29.7-22.4-46-32-5.5-3.2-13.6-4.9-17.6 0.1-3.8 4.7-0.8 12.1 3.9 16.1 4.7 4 10.7 6.1 15.1 10.4 12.3 12 6.9 34.5 18.5 47.2 7.6 8.2 20.2 9.7 28.8 16.9 7.5 6.4 10.8 16.4 13 26 2.1 9.6 3.5 19.7 8.4 28.2 4.8 8.6 14.4 15.5 24.1 13.6 18.1 5.2 41.2 9.3 53.7-4.8z"/><path class="o" d="m288.9 858.3q0.5 0 1-0.3c0.7-0.5 0.9-1.5 0.4-2.3-40.7-58.6-87.9-113-140.3-161.7-0.6-0.6-1.6-0.5-2.3 0.1-0.6 0.7-0.5 1.7 0.1 2.3 52.2 48.5 99.2 102.7 139.8 161.2 0.3 0.5 0.8 0.7 1.3 0.7z"/><path class="o" d="m218 767.5q0.2 0 0.4 0c0.9-0.3 1.4-1.1 1.2-2-3.6-14.1-8.3-28.1-13.8-41.5-0.4-0.9-1.3-1.2-2.2-0.9-0.8 0.3-1.2 1.3-0.8 2.1 5.5 13.3 10.1 27.1 13.6 41.1 0.2 0.7 0.9 1.2 1.6 1.2z"/><path class="o" d="m229 779.5q0.1 0 0.3 0c0.9-0.2 1.5-1 1.3-1.9-1.8-11.2-4.3-22.4-7.2-33.3-0.2-0.9-1.1-1.4-2-1.1-0.8 0.2-1.4 1.1-1.1 1.9 2.9 10.9 5.3 22 7.1 33 0.1 0.8 0.8 1.4 1.6 1.4z"/><path class="o" d="m268.3 828.6q0.2 0 0.3-0.1c0.9-0.1 1.5-1 1.3-1.9-2.8-14.9-6.5-29.8-11-44.2-0.2-0.9-1.1-1.4-2-1.1-0.8 0.3-1.3 1.2-1.1 2 4.5 14.4 8.2 29.2 10.9 43.9 0.2 0.8 0.9 1.4 1.6 1.4z"/><path class="o" d="m258.3 818c0.7 0 1.3-0.4 1.6-1.1 0.3-0.9-0.2-1.8-1-2.1-13.1-4.4-25.9-9.8-38.1-16-0.8-0.4-1.8-0.1-2.2 0.7-0.4 0.8-0.1 1.8 0.7 2.2 12.4 6.3 25.3 11.7 38.5 16.2q0.3 0.1 0.5 0.1z"/><path class="o" d="m214.1 764.4c0.7 0 1.3-0.4 1.5-1.1 0.3-0.9-0.2-1.8-1-2-14.8-4.8-29.3-10.9-43-18.1-0.8-0.5-1.8-0.2-2.2 0.6-0.5 0.8-0.2 1.8 0.6 2.2 13.9 7.4 28.6 13.6 43.6 18.4q0.3 0 0.5 0z"/><path class="m" d="m422.1 843.5c7.9-13.5 11-29.8 8.4-45.3-2.6-15.4-10.8-29.9-22.7-40.1-7.9 8.5-12 21.4-12 33 0 10 3.2 19.8 8 28.5 4.8 8.8 11.5 16.5 18.3 23.9z"/><path class="n" d="m422.8 868.6q0.1 0.1 0.3 0c0.5 0 0.9-0.4 0.9-0.9-0.5-33.2-4.8-66.3-12.7-98.5-0.1-0.5-0.6-0.8-1.1-0.7-0.5 0.1-0.8 0.6-0.7 1.1 7.9 32.1 12.1 65.1 12.6 98.1 0 0.4 0.3 0.8 0.7 0.9z"/><path class="n" d="m416.8 802.4q0 0 0 0c0.5 0.1 1-0.2 1.1-0.7 2-8.4 1.9-24.6 1.8-25.3 0-0.5-0.4-0.9-0.9-0.9-0.5 0-0.9 0.4-0.9 0.9 0 0.2 0.1 16.7-1.8 24.9-0.1 0.4 0.2 0.9 0.7 1.1z"/><path class="n" d="m419.1 818.1c0.3 0.1 0.7 0 0.9-0.2 0.4-0.4 0.4-1 0.1-1.4-7.1-7.4-16-29.8-16.1-30.1-0.1-0.4-0.7-0.7-1.2-0.5-0.5 0.2-0.7 0.7-0.5 1.2 0.4 1 9 23 16.4 30.7q0.2 0.2 0.4 0.3z"/><path class="n" d="m420.5 830.3c0.5 0.2 1-0.1 1.2-0.5 4.5-12 5.1-32.8 5.2-33.7 0-0.5-0.4-0.9-1-0.9-0.5 0-0.9 0.4-0.9 0.9 0 0.2-0.7 21.3-5.1 33-0.2 0.5 0.1 1 0.6 1.2q0 0 0 0z"/><path class="c" d="m435.5 885.5c7.1-5.3 8.5-15.7 5.7-24-2.9-8.3-9.2-14.9-15.5-21-6.3-6.1-12.9-12.2-16.9-20.1-4.1-8.1-5-17.5-7.2-26.4-2.3-8.9-6.5-18.1-14.7-22.3-4.6-2.3-9.9-2.8-14.7-4.7-14.8-6-20.7-23.7-32.5-34.5-4-3.6-10.4-6.4-14.6-3-4 3.3-2.8 9.9 0.4 14 3.2 4.1 7.8 7 10.7 11.3 8.1 12-0.3 29.8 7.1 42.3 4.9 8.1 15.1 11.5 20.9 19 5.2 6.6 6.2 15.4 6.3 23.8 0.1 8.3-0.5 16.9 2 24.8 2.6 8 9.3 15.3 17.7 15.5 14.1 7.4 32.5 14.8 45.3 5.3z"/><path class="o" d="m423.8 898.8q0.4 0.1 0.8-0.1c0.7-0.3 1-1.1 0.7-1.8-23.5-55.7-53.2-109-88.1-158.3-0.4-0.6-1.3-0.8-1.9-0.3-0.6 0.4-0.8 1.3-0.3 1.9 34.8 49.2 64.3 102.3 87.8 157.8 0.2 0.4 0.5 0.7 1 0.8z"/><path class="o" d="m380.7 811.3q0.2 0 0.4 0c0.7-0.1 1.3-0.7 1.3-1.5-0.5-12.3-1.9-24.6-4.2-36.7-0.2-0.8-0.9-1.3-1.6-1.1-0.8 0.1-1.3 0.8-1.1 1.6 2.2 11.9 3.6 24.2 4.2 36.4 0 0.6 0.4 1.1 1 1.3z"/><path class="o" d="m387.8 823.1q0.1 0 0.2 0c0.8 0 1.4-0.5 1.5-1.3 0.4-9.6 0.3-19.3-0.2-28.8-0.1-0.8-0.7-1.4-1.5-1.3-0.7 0-1.3 0.7-1.3 1.4 0.5 9.5 0.6 19.1 0.2 28.6 0 0.7 0.4 1.3 1.1 1.4z"/><path class="o" d="m411.9 870.6q0.1 0 0.2 0c0.8 0 1.4-0.6 1.4-1.3 0.3-12.9-0.2-25.9-1.4-38.6-0.1-0.8-0.7-1.3-1.5-1.3-0.8 0.1-1.3 0.8-1.2 1.5 1.1 12.7 1.6 25.6 1.4 38.3 0 0.7 0.4 1.2 1.1 1.4z"/><path class="o" d="m405.4 860.1c0.6 0.1 1.2-0.1 1.5-0.7 0.4-0.6 0.1-1.5-0.5-1.8-10-6-19.7-12.7-28.8-19.9-0.6-0.5-1.4-0.4-1.9 0.2-0.5 0.6-0.4 1.4 0.2 1.9 9.2 7.4 19 14.1 29.1 20.1q0.2 0.1 0.4 0.2z"/><path class="o" d="m378.1 808c0.5 0.1 1.1-0.1 1.4-0.6 0.4-0.7 0.2-1.5-0.5-1.9-11.4-6.5-22.4-14.1-32.5-22.5-0.6-0.5-1.4-0.4-1.9 0.2-0.5 0.6-0.4 1.4 0.1 1.9 10.3 8.6 21.4 16.2 33 22.8q0.1 0.1 0.4 0.1z"/><path class="p" d="m303.9 753.3c-7-8.4-9.5-20.4-6.3-30.9 8 7.8 9.9 20.3 6.3 30.9z"/><path class="p" d="m312.4 773.1c-5.3-9.5-5.5-21.8-0.4-31.5 6.3 9.2 5.9 21.8 0.4 31.5z"/><path class="p" d="m336.1 812c-5.8-9.2-6.6-21.5-2.1-31.4 6.9 8.8 7.1 21.5 2.1 31.4z"/><path class="p" d="m272.7 719.5c-1.5-12.4-9.3-23.8-20.2-29.8 0.8 12.5 9.2 24 20.2 29.8z"/><path class="p" d="m291.7 763.4c-7.2-15.5-21.9-27.3-38.6-31.1 5.6 15.6 22.1 29.6 38.6 31.1z"/><path class="p" d="m319.8 815.8c-6.1-11.8-17.6-20.5-30.6-23.1 4.8 13 16.7 22.8 30.6 23.1z"/><path class="c" d="m348.4 862.2q0.4 0 0.9-0.1c0.7-0.3 1-1.1 0.7-1.8-23.6-55.7-53.2-109-88.1-158.3-0.5-0.7-1.3-0.8-1.9-0.4-0.7 0.5-0.8 1.3-0.4 1.9 34.8 49.2 64.4 102.3 87.8 157.8 0.2 0.5 0.6 0.8 1 0.9z"/><path class="c" d="m305.4 774.6q0.2 0 0.4 0c0.7 0 1.3-0.6 1.3-1.4-0.5-12.3-2-24.7-4.3-36.8-0.1-0.7-0.8-1.2-1.6-1.1-0.7 0.2-1.2 0.9-1.1 1.6 2.3 12 3.7 24.2 4.2 36.4 0.1 0.7 0.5 1.2 1.1 1.3z"/><path class="c" d="m312.5 786.5q0.1 0 0.2 0c0.8 0 1.4-0.6 1.4-1.3 0.4-9.6 0.4-19.3-0.2-28.9 0-0.7-0.7-1.3-1.4-1.3-0.8 0.1-1.3 0.7-1.3 1.5 0.5 9.5 0.6 19.1 0.2 28.5-0.1 0.7 0.4 1.3 1.1 1.5z"/><path class="c" d="m336.5 833.9q0.2 0.1 0.3 0.1c0.8 0 1.4-0.6 1.4-1.4 0.3-12.8-0.2-25.8-1.4-38.6-0.1-0.7-0.8-1.3-1.5-1.2-0.8 0.1-1.3 0.7-1.3 1.5 1.2 12.7 1.7 25.5 1.4 38.3 0 0.6 0.5 1.2 1.1 1.3z"/><path class="c" d="m330.1 823.5c0.5 0.1 1.1-0.2 1.4-0.7 0.4-0.6 0.2-1.5-0.4-1.9-10.1-5.9-19.7-12.6-28.8-19.9-0.6-0.5-1.5-0.4-1.9 0.2-0.5 0.6-0.4 1.5 0.2 2 9.1 7.3 18.9 14.1 29.1 20.1q0.2 0.1 0.4 0.2z"/><path class="c" d="m302.7 771.4c0.6 0.1 1.2-0.1 1.5-0.7 0.4-0.6 0.2-1.5-0.5-1.9-11.5-6.4-22.4-14-32.5-22.4-0.6-0.5-1.5-0.4-2 0.2-0.4 0.5-0.4 1.4 0.2 1.9 10.3 8.5 21.3 16.2 32.9 22.7q0.2 0.1 0.4 0.2z"/><path class="m" d="m348.5 866.3c0.6-21.7-6.7-43.6-20.2-60.6-13.5-17.1-33.1-29.2-54.4-33.5-3.9 15.6-0.3 34 7.5 48.1 6.6 12.1 17.1 21.9 28.9 29.3 11.7 7.4 25.1 12.3 38.2 16.7z"/><path class="n" d="m366.2 896.3q0.2 0 0.4-0.1c0.6-0.4 0.8-1.2 0.5-1.8-22.9-39.9-50.3-77.3-81.5-111.1-0.5-0.5-1.3-0.6-1.9-0.1-0.5 0.5-0.5 1.3 0 1.9 31 33.6 58.3 70.8 81.1 110.6 0.3 0.5 0.9 0.7 1.4 0.6z"/><path class="n" d="m314.4 819.9q0.1 0 0.1 0c0.7-0.2 1.1-0.9 0.9-1.6-3.3-11.6-14.3-31.1-14.8-31.9-0.3-0.6-1.1-0.9-1.8-0.5-0.6 0.4-0.8 1.2-0.4 1.8 0.1 0.2 11.3 20.1 14.5 31.3 0.2 0.7 0.9 1.1 1.5 0.9z"/><path class="n" d="m327.8 837.4c0.5-0.1 0.8-0.4 1-0.9 0.2-0.6-0.2-1.4-0.9-1.6-13.6-4.3-39.4-25.6-39.6-25.8-0.6-0.4-1.4-0.4-1.8 0.2-0.5 0.5-0.4 1.4 0.1 1.8 1.1 0.9 26.5 21.9 40.6 26.3q0.3 0.1 0.6 0z"/><path class="n" d="m337.8 851.3c0.6-0.1 1.1-0.8 1-1.4-2.6-17.6-15.7-43.2-16.3-44.3-0.3-0.7-1.1-0.9-1.8-0.6-0.6 0.3-0.8 1.1-0.5 1.8 0.1 0.2 13.5 26.3 16 43.4 0.1 0.8 0.8 1.2 1.5 1.1q0 0 0.1 0z"/></g></svg>