<svg version="1.2" xmlns="http://www.w3.org/2000/svg" viewBox="0 0 1500 1000" width="1000" height="1000"><style>.a{fill:#f5f5f5}.b{fill:#ebebeb}.c{fill:#e0e0e0}.d{fill:#ff725e}.e{fill:#fff}.f{fill:#263238}.g{fill:#777}.h{fill:#ff725d}.i{fill:#455a64}.j{fill:#ae7461}.k{fill:#6f4439}.l{fill:#ff9a6c}.m{fill:#ffbf9d}</style><path class="a" d="m1279.5 673.8l15.5 117.3-146.7 19.5-15.5-117.3z"/><path class="b" d="m1148.4 801.5l136.4-18.1-13.6-102.5-136.4 18.1z"/><path class="c" d="m1147.4 799.5l39.2-70 34.8 35.9 17.2-23.9 45.2 39.9z"/><path class="c" d="m1238.6 706.1c0.8 5.9-3.4 11.4-9.3 12.2-6 0.8-11.4-3.4-12.2-9.3-0.8-6 3.4-11.4 9.3-12.2 6-0.8 11.4 3.4 12.2 9.3z"/><path class="d" d="m1253.5 164.2l-46.5 164.2c-1.5 5-6.8 7.7-11.6 6l-121.3-41 48.4-166.6 123.5 25.1c5.6 1.2 9.1 6.8 7.5 12.3z"/><path class="c" d="m1195.9 334.9q-0.3-0.1-0.6-0.2l-121.6-41.1 0.1-0.2 48.5-167 123.8 25.2c2.8 0.6 5.1 2.2 6.6 4.7 1.5 2.4 1.9 5.2 1.1 8l-46.6 164.2c-0.7 2.5-2.3 4.5-4.6 5.7-2.1 1.1-4.5 1.3-6.7 0.7z"/><path class="b" d="m1242 150.2l10.2 7.2-47.8 168.6-1 3.5-12.2-3.5z"/><path class="e" d="m1122.1 126.3c0 0 48.6-4.5 119.9 23.3l-51 176.6-116.8-35.9z"/><path class="c" d="m1122.1 126.3q0 0-0.2 0.8-0.2 0.8-0.7 2.3c-0.6 2-1.4 5-2.6 8.9-2.2 7.8-5.5 19.2-9.7 33.6-8.4 28.9-20.4 69.9-34.5 118.5l-0.1-0.2c35.2 10.8 74.9 23 116.8 35.8l-0.2 0.1c0.6-2 1.2-4.3 1.9-6.6 18.4-63.8 35.5-122.8 49.1-170l0.1 0.2c-17.4-6.8-33.8-11.8-48.4-15.3-14.6-3.5-27.5-5.6-38.1-6.8-10.7-1.2-19-1.5-24.7-1.5q-2.1 0-3.8 0-1.6 0-2.7 0.1c-1.4 0.1-2.1 0.1-2.2 0.1q0 0 0.6-0.1 0.5 0 1.6-0.1 1.1 0 2.7-0.1 1.7 0 3.8 0c5.7 0 14 0.3 24.7 1.5 10.6 1.2 23.5 3.2 38.1 6.7 14.7 3.5 31 8.5 48.5 15.3h0.1v0.1c-13.7 47.2-30.7 106.2-49.1 170-0.7 2.3-1.3 4.5-1.9 6.6l-0.1 0.2-0.1-0.1c-41.9-12.8-81.6-25-116.8-35.8l-0.1-0.1v-0.1c14.2-48.6 26.2-89.6 34.6-118.5 4.3-14.4 7.6-25.8 9.9-33.6 1.1-3.9 2-6.8 2.6-8.9q0.4-1.5 0.7-2.2 0.2-0.8 0.2-0.8z"/><path class="c" d="m1127.4 127.3c-3.2 12.7-15.9 58.5-15.9 58.5l9.3-7.8 4.4 10 16.8-64-10.5 0.1c-1.9 0-3.6 1.3-4.1 3.2z"/><path class="c" d="m1194.7 327q0 0 0.2-0.4 0.1-0.5 0.3-1.4 0.5-1.7 1.4-5.1c1.3-4.4 3.1-10.8 5.4-18.7 4.5-15.8 10.9-37.6 18-61.6 7-24.1 13.4-45.9 18.1-61.6 2.2-7.9 4.1-14.3 5.4-18.7q0.9-3.3 1.4-5.1 0.3-0.9 0.4-1.3 0.2-0.5 0.2-0.5 0 0-0.1 0.5-0.2 0.4-0.4 1.3-0.5 1.8-1.4 5.1c-1.3 4.4-3.1 10.8-5.3 18.7-4.6 15.8-10.9 37.6-18 61.7-7.1 24-13.5 45.8-18.1 61.6-2.3 7.9-4.2 14.2-5.4 18.7q-1 3.3-1.5 5-0.3 0.9-0.4 1.4-0.1 0.4-0.2 0.4z"/><path class="c" d="m1198 327.9c-0.1 0 11-38.9 24.7-86.8 13.8-47.9 25-86.7 25.1-86.7 0 0-11 38.9-24.8 86.8-13.7 47.9-24.9 86.7-25 86.7z"/><path class="c" d="m988.5 84.2l-48.1 170c-0.9 3.1 1.2 6.3 4.5 7.1l129.2 32.1c3.1 0.8 2.7-5.4 3.5-8.3l10.4-167.8c0.8-2.9-0.9-5.9-3.9-7l-87.9-29.7c-3.3-1.1-6.8 0.5-7.7 3.6z"/><path class="b" d="m1009.2 84.2l-49.2 178.9 114.8 27.8 47.7-164.1z"/><path class="e" d="m1020.3 84.2c0 0 72.2 6.7 101.5 43.7l-47.7 164.1-105.1-27z"/><path class="c" d="m1021 83c-0.4 1.3-21.2 75.1-51.1 180.9l-0.1-0.2c30.5 7.9 64 16.5 99 25.5q3.1 0.8 6 1.5l-0.1 0.1c18-62.1 34.6-119.1 47.7-164v0.1c-1.4-1.7-2.7-3.4-4.2-4.8q-0.6-0.6-1.1-1.2-0.6-0.5-1.1-1.1-1.2-1-2.3-2.1c-3.1-2.7-6.3-5.1-9.5-7.3-3.3-2.2-6.6-4.1-9.8-5.9-1.6-0.8-3.2-1.7-4.8-2.4q-1.2-0.6-2.4-1.2-1.2-0.6-2.4-1.1c-6.3-2.8-12.4-5-18.1-6.8-5.6-1.9-10.9-3.3-15.6-4.5-9.6-2.3-17.1-3.6-22.2-4.4q-3.9-0.6-5.9-0.8c-1.3-0.2-1.9-0.2-2-0.3 0 0 0.7 0.1 2 0.2q2 0.3 5.9 0.8c5.1 0.8 12.7 2.1 22.2 4.4 4.8 1.2 10 2.6 15.7 4.4 5.7 1.8 11.7 4 18.1 6.8q1.2 0.6 2.4 1.1 1.1 0.6 2.4 1.2c1.6 0.8 3.2 1.6 4.8 2.4 3.2 1.8 6.6 3.7 9.8 5.9 3.3 2.2 6.4 4.7 9.5 7.4q1.2 1 2.3 2.1 0.6 0.5 1.2 1.1 0.5 0.5 1.1 1.1c1.5 1.5 2.8 3.2 4.2 4.8v0.1c-13 45-29.6 102-47.6 164.1l-0.1 0.2-0.1-0.1q-3-0.7-6.1-1.5c-35-9-68.5-17.6-99-25.5h-0.2l0.1-0.2c30-105.7 51-179.5 51.4-180.8z"/><path class="b" d="m993.4 85.4l15.8-1.2-49.2 178.9-14.7-8z"/><path class="c" d="m950.3 252.7c-0.1-0.1 10.4-37.5 23.5-83.7 13.1-46.2 23.8-83.6 23.9-83.5 0 0-10.5 37.4-23.6 83.6-13.1 46.2-23.7 83.6-23.8 83.6z"/><path class="a" d="m994.3 112.1l-20.7 24.9 7 23.5z"/><path class="c" d="m954.4 252.8c0 0 10-35.7 22.5-79.8 12.5-44 22.6-79.6 22.7-79.6 0.1 0-9.9 35.7-22.4 79.7-12.5 44-22.7 79.7-22.8 79.7z"/><path class="c" d="m956.4 260.1c0 0 10.6-37.7 23.7-84.2 13.2-46.5 24-84.2 24-84.1 0.1 0-10.5 37.7-23.7 84.2-13.1 46.5-23.9 84.1-24 84.1z"/><path class="c" d="m1100.2 138.9c0 0.1-0.9-0.4-2.4-1.5-1.6-1-3.8-2.4-6.6-4.1-5.6-3.4-13.6-7.7-23-11.4-9.3-3.6-18.2-5.8-24.6-7.1-3.2-0.6-5.9-1-7.7-1.3-1.8-0.3-2.8-0.5-2.8-0.5 0-0.1 1 0 2.9 0.1 1.8 0.2 4.5 0.5 7.7 1.1 6.5 1 15.4 3.2 24.9 6.8 9.4 3.7 17.4 8.1 23 11.7 2.7 1.8 4.9 3.3 6.4 4.4 1.5 1.1 2.2 1.8 2.2 1.8z"/><path class="c" d="m1096 153c0 0.1-0.9-0.4-2.4-1.5-1.6-1-3.8-2.4-6.6-4.1-5.6-3.4-13.7-7.7-23-11.3-9.3-3.7-18.2-5.9-24.6-7.2-3.2-0.6-5.9-1-7.7-1.3-1.8-0.3-2.8-0.5-2.8-0.5 0-0.1 1 0 2.9 0.1 1.8 0.2 4.5 0.5 7.7 1.1 6.5 1 15.4 3.2 24.9 6.8 9.4 3.7 17.4 8.1 23 11.7 2.7 1.8 4.9 3.3 6.4 4.4 1.4 1.1 2.2 1.8 2.2 1.8z"/><path class="c" d="m1091.8 167.2c-0.1 0-0.9-0.5-2.5-1.5-1.5-1.1-3.7-2.5-6.5-4.2-5.6-3.4-13.7-7.7-23-11.3-9.4-3.6-18.2-5.9-24.6-7.1-3.2-0.7-5.9-1.1-7.7-1.4-1.8-0.3-2.8-0.5-2.8-0.5 0-0.1 1 0 2.9 0.1 1.8 0.2 4.4 0.5 7.7 1.1 6.5 1.1 15.4 3.2 24.9 6.8 9.4 3.7 17.4 8.1 22.9 11.7 2.8 1.8 5 3.3 6.5 4.4 1.4 1.2 2.2 1.8 2.2 1.9z"/><path class="c" d="m1087.6 181.3c-0.1 0-0.9-0.5-2.5-1.5-1.5-1.1-3.7-2.5-6.5-4.2-5.6-3.4-13.7-7.7-23-11.3-9.4-3.6-18.2-5.9-24.6-7.1-3.3-0.7-5.9-1.1-7.7-1.4-1.8-0.3-2.8-0.4-2.8-0.5 0-0.1 1 0 2.8 0.1 1.9 0.2 4.5 0.5 7.8 1.1 6.5 1.1 15.4 3.2 24.8 6.8 9.5 3.7 17.5 8.1 23 11.7 2.8 1.8 5 3.3 6.5 4.4 1.4 1.2 2.2 1.8 2.2 1.9z"/><path class="c" d="m1084.4 196.1c0 0.1-0.9-0.4-2.4-1.5-1.6-1-3.8-2.4-6.6-4.1-5.6-3.4-13.6-7.7-23-11.4-9.3-3.6-18.2-5.8-24.6-7.1-3.2-0.6-5.9-1-7.7-1.3-1.8-0.3-2.8-0.5-2.8-0.5 0-0.1 1 0 2.9 0.1 1.8 0.2 4.5 0.5 7.7 1.1 6.5 1 15.4 3.2 24.9 6.8 9.4 3.7 17.4 8.1 23 11.7 2.7 1.8 4.9 3.3 6.4 4.4 1.5 1.1 2.2 1.8 2.2 1.8z"/><path class="c" d="m1081.9 215.6c0 0.1-0.9-0.5-2.5-1.6q-1.2-0.8-3-1.9c-1.1-0.7-2.5-1.5-4-2.4-2.9-1.8-6.5-3.7-10.6-5.8-4.1-2-8.7-4-13.6-5.9-4.9-1.9-9.7-3.5-14-4.8-4.4-1.2-8.4-2.2-11.8-2.9-1.7-0.3-3.2-0.6-4.6-0.8q-2-0.4-3.4-0.6c-2-0.3-3-0.5-3-0.6 0 0 1.1 0 3 0.2q1.5 0.1 3.5 0.4c1.4 0.2 2.9 0.4 4.6 0.8 3.5 0.5 7.5 1.5 11.9 2.7 4.4 1.2 9.2 2.8 14.2 4.6 4.9 2 9.5 4.1 13.6 6.1 4.1 2.1 7.7 4.1 10.6 6 1.5 0.9 2.8 1.8 3.9 2.6q1.7 1.1 2.9 2c1.5 1.2 2.4 1.9 2.3 1.9z"/><path class="c" d="m1077.3 232.9c0 0-1-0.5-2.7-1.5-1.6-1-4.1-2.3-7.2-3.9-6.1-3.2-14.9-7.2-25-10.5-10-3.4-19.3-5.8-26-7.6-3.3-0.8-6-1.5-8-2-1.9-0.5-2.9-0.9-2.9-0.9 0-0.1 1.1 0.1 3 0.5 1.9 0.4 4.6 1 8 1.7 6.8 1.6 16.2 3.9 26.3 7.3 10.1 3.4 18.8 7.5 24.9 10.8 3.1 1.8 5.5 3.2 7.1 4.3 1.7 1.1 2.5 1.7 2.5 1.8z"/><path class="c" d="m1069.9 250.1c-0.1 0.1-1-0.4-2.8-1.2-1.7-0.8-4.2-2-7.4-3.4-6.2-2.8-15.1-6.2-25.1-9.1-10-3-19.3-5.1-26-6.4-3.4-0.7-6.1-1.2-8-1.5-1.9-0.3-3-0.5-2.9-0.6 0-0.1 1 0 2.9 0.2 2 0.2 4.7 0.6 8.1 1.2 6.8 1.1 16.1 3.1 26.2 6.1 10 3 18.9 6.5 25.1 9.5 3.2 1.4 5.6 2.7 7.3 3.6 1.7 1 2.6 1.5 2.6 1.6z"/><path class="c" d="m1213.7 165.2c-0.1 0.1-1.2-0.3-3.3-0.9-2.1-0.7-5.1-1.7-8.8-2.9-7.5-2.3-17.9-5.1-29.6-7.5-11.8-2.3-22.5-3.7-30.3-4.4-3.9-0.4-7-0.7-9.2-0.9-2.2-0.1-3.4-0.3-3.4-0.3q0-0.1 0.9-0.1 1 0 2.5 0.1c2.2 0 5.4 0.2 9.3 0.5 7.8 0.5 18.6 1.8 30.3 4.2 11.8 2.3 22.2 5.3 29.7 7.8 3.7 1.2 6.7 2.3 8.7 3.1q1.4 0.6 2.4 0.9 0.8 0.4 0.8 0.4z"/><path class="c" d="m1210.1 197.5q0 0-0.9-0.2-1-0.3-2.5-0.7c-2.4-0.6-5.6-1.5-9.4-2.6-7.9-2.1-18.9-4.8-31.1-7.4-12.3-2.6-23.4-4.5-31.5-5.7-3.9-0.6-7.2-1.1-9.6-1.5q-1.6-0.2-2.6-0.4-0.9-0.1-0.9-0.2 0 0 0.9 0 1.1 0.1 2.6 0.3c2.3 0.2 5.6 0.6 9.7 1.1 8.1 1 19.3 2.8 31.6 5.4 12.2 2.6 23.2 5.5 31.1 7.8 3.9 1.1 7.1 2.1 9.3 2.8q1.4 0.5 2.5 0.9 0.8 0.3 0.8 0.4z"/><path class="c" d="m1204.4 213.5q-0.1 0.1-1-0.2-1-0.2-2.6-0.6c-2.4-0.7-5.6-1.5-9.5-2.6-8.1-2.1-19.2-5-31.6-8-12.4-2.9-23.6-5.4-31.8-7.1-3.9-0.8-7.2-1.5-9.6-2q-1.6-0.3-2.7-0.5-0.9-0.3-0.9-0.3 0-0.1 1 0.1 1 0.1 2.6 0.4c2.3 0.3 5.7 0.9 9.8 1.7 8.2 1.5 19.5 3.8 31.9 6.7 12.3 3 23.5 6 31.5 8.3 4 1.2 7.2 2.2 9.4 2.9q1.6 0.5 2.6 0.8 0.9 0.4 0.9 0.4z"/><path class="c" d="m1199.8 232.3c-0.1 0.2-20.1-4.8-44.7-11.3-24.7-6.5-44.6-12-44.5-12.3 0.1-0.3 20.1 4.8 44.7 11.3 24.6 6.5 44.6 12 44.5 12.3z"/><path class="c" d="m1197 251.5c-0.1 0.2-20-5-44.5-11.7-24.6-6.7-44.4-12.3-44.3-12.6 0.1-0.2 20 5 44.5 11.7 24.5 6.7 44.3 12.3 44.3 12.6z"/><path class="c" d="m1191.5 271.2c-0.1 0.3-19.8-5.5-44.1-13-24.3-7.5-43.9-13.8-43.8-14 0.1-0.3 19.8 5.6 44.1 13 24.3 7.5 43.9 13.8 43.8 14z"/><path class="c" d="m1181.6 288.5c-0.1 0.3-17.6-4.7-39-11.2-21.5-6.4-38.9-11.9-38.8-12.2 0.1-0.2 17.6 4.8 39 11.3 21.5 6.4 38.9 11.9 38.8 12.1z"/><path class="c" d="m1214 182.6q0 0.1-0.9-0.2-1-0.3-2.4-0.7c-2.3-0.7-5.4-1.6-9.1-2.7-7.7-2.2-18.3-4.9-30.2-7.4-11.9-2.4-22.8-3.9-30.7-4.9-3.9-0.5-7-0.8-9.4-1.1q-1.5-0.2-2.5-0.3-0.9-0.1-0.9-0.2 0 0 0.9 0 1 0.1 2.5 0.1c2.3 0.1 5.5 0.4 9.5 0.8 7.9 0.8 18.8 2.3 30.8 4.7 11.9 2.4 22.6 5.3 30.2 7.7 3.8 1.2 6.9 2.2 9 2.9q1.4 0.6 2.4 0.9 0.8 0.4 0.8 0.4z"/><path class="a" d="m503.4 127.9l9.3 108.7 42.2 11.5 81.7-9.5-11.5-122.4z"/><path class="b" d="m1322.5 294.9l-12.8 9.7c0 0 7.8 7 16.8 9.3 9 2.4 17.2 3.1 25.4 2.2 0 0-19.5-3.4-29.4-21.2z"/><path class="c" d="m615.3 156.1c0 0.3-20.7 2.4-46.3 4.9-25.5 2.5-46.3 4.3-46.3 4.1 0-0.2 20.7-2.4 46.3-4.8 25.5-2.5 46.3-4.4 46.3-4.2z"/><path class="c" d="m616.5 172.9c0 0.2-20.7 2.4-46.3 4.8-25.5 2.5-46.2 4.4-46.3 4.2 0-0.2 20.7-2.4 46.3-4.9 25.5-2.5 46.3-4.3 46.3-4.1z"/><path class="c" d="m618.4 187.6c0.1 0.2-20.6 2.4-46.2 4.9-25.6 2.5-46.3 4.3-46.3 4.1 0-0.2 20.7-2.4 46.2-4.9 25.6-2.4 46.3-4.3 46.3-4.1z"/><path class="c" d="m619.7 201.9c0 0.2-20.7 2.4-46.2 4.8-25.6 2.5-46.3 4.4-46.3 4.2 0-0.2 20.7-2.4 46.2-4.9 25.6-2.5 46.3-4.3 46.3-4.1z"/><path class="a" d="m327.7 645.9l31.4 94.2-117.8 39.4-31.5-94.3z"/><path class="b" d="m243.3 772.2l109.6-36.6-27.5-82.4-109.6 36.6z"/><path class="c" d="m243.3 772.2l21.2-64 34.4 24.1 10.4-22.5 43.6 25.8z"/><path class="c" d="m296.2 690.6c1.6 4.8-1 10-5.8 11.5-4.7 1.6-9.9-0.9-11.5-5.7-1.6-4.8 1-9.9 5.8-11.5 4.8-1.6 9.9 1 11.5 5.7z"/><path class="a" d="m515.3 572.3l-28.9 147.4-184.3-36.1 28.9-147.4z"/><path class="c" d="m515.3 572.3q-0.1 0-0.9-0.1-1-0.2-2.6-0.5-3.5-0.7-10.1-1.9c-8.7-1.7-21.5-4.2-37.7-7.3-32.4-6.2-78.4-15.2-133.1-25.8l0.6-0.4c-8.6 43.9-18.4 94.2-28.8 147.4l-0.5-0.7c68.2 13.4 131.6 25.9 184.3 36.2l-0.6 0.4c8.8-44.4 16.1-81.1 21.2-106.8 2.6-12.9 4.6-23 6-29.9q1-5.1 1.6-7.9c0.3-1.7 0.6-2.7 0.6-2.7q0 0-0.5 2.7-0.5 2.7-1.5 7.8c-1.3 6.9-3.2 16.9-5.7 29.8-5 25.8-12.1 62.6-20.7 107.1l-0.1 0.5-0.5-0.1c-52.7-10.3-116.1-22.7-184.3-36l-0.5-0.1 0.1-0.5v-0.1c10.4-53.2 20.3-103.4 28.9-147.3l0.1-0.5 0.5 0.1c54.8 10.9 100.9 20 133.3 26.4 16.1 3.2 28.9 5.8 37.6 7.5q6.5 1.3 9.9 2 1.6 0.3 2.5 0.5 0.9 0.2 0.9 0.2z"/><path class="b" d="m310.3 675.5l171.3 33.6 25.2-128.8-171.3-33.6z"/><path class="c" d="m310.3 675.5l75.5-68.3 27.3 57.3 30.4-21.8 38.1 66.4z"/><path class="c" d="m440.5 607.7c-1.4 7.5-8.6 12.3-16.1 10.9-7.5-1.5-12.3-8.7-10.8-16.1 1.4-7.5 8.6-12.4 16.1-10.9 7.4 1.5 12.3 8.7 10.8 16.1z"/><path class="e" d="m1197.5 447.3c36.3-0.9 73.6 9.3 100 30.5 26.4 21.2 36.7 53.2 32.9 84.2-4.3 34.5-41.3 64.7-77.4 67.5 0 0 7.4 20.2 25.8 25.8-26.7 3.9-45-2.5-61.1-21.3-47.7 7.1-94.3-5.2-121.7-29.3-29.6-26-35.3-68.8-16.6-101.4 18.7-32.5 64.8-58.7 121.3-56"/><path class="c" d="m1200.7 447.3q0 0-1.9 0-2 0-5.7 0c-2.6-0.1-5.7 0.1-9.3 0.3-3.7 0-7.9 0.6-12.6 1.2-9.5 1.3-21 3.7-33.6 8.6-6.4 2.3-12.9 5.5-19.6 9.3-6.7 3.9-13.3 8.6-19.7 14.3-6.4 5.7-12.4 12.5-17.3 20.4-4.8 8-8.5 17.1-10.4 27-2 9.8-2 20.4 0 30.9 2.1 10.5 6.1 21.1 12.7 30.3 6.4 9.3 15 17.4 25.1 23.8 10 6.4 21.2 11.4 33.1 15 23.8 7.1 50 8.9 76.1 5.1l0.3-0.1 0.2 0.3c3.8 4.4 8.2 8.8 13.4 12.3 3.4 2.4 7.1 4.4 10.9 5.9 3.9 1.5 7.9 2.6 12 3.2 8.1 1.3 16.3 0.7 24.3-0.3v1c-6.3-2-11.8-5.7-16.1-10.3-4.3-4.7-7.8-10-10.1-15.8l-0.3-0.6 0.7-0.1c11.1-1 21.7-4.3 31.2-9 9.6-4.8 18.2-11.1 25.4-18.5 7.1-7.4 12.9-15.9 16.6-25 3.8-9.1 4.7-18.8 4.6-28.1-0.1-9.4-1.5-18.5-4.1-26.9-2.6-8.4-6.3-16.1-10.8-23-9-13.8-21.3-23.5-33.2-30.5-12-6.9-23.7-11.4-34.3-14.3-10.5-2.9-19.7-4.4-27.3-5.2-3.8-0.5-7.2-0.6-10.1-0.9-2.9-0.1-5.4-0.2-7.3-0.2q-3 0-4.6 0-1.5-0.1-1.5-0.1 0 0 1.5 0 1.6 0 4.6-0.1c1.9 0 4.4 0.1 7.3 0.2 3 0.2 6.3 0.3 10.1 0.7 7.6 0.8 16.9 2.3 27.5 5.2 10.5 2.8 22.4 7.2 34.4 14.2 12 6.9 24.4 16.7 33.6 30.6 4.5 6.9 8.3 14.7 10.9 23.2 2.6 8.5 4 17.6 4.2 27 0.1 4.8-0.2 9.5-0.8 14.3q-0.4 1.8-0.7 3.6c-0.2 1.2-0.4 2.5-0.8 3.6-0.8 2.4-1.3 4.8-2.4 7.1-3.7 9.2-9.5 17.8-16.7 25.2-7.3 7.5-15.9 13.9-25.6 18.7-9.7 4.9-20.4 8.2-31.6 9.2l0.4-0.7c2.3 5.6 5.7 10.9 9.9 15.5 4.3 4.5 9.6 8.1 15.6 10l2.3 0.7-2.3 0.3c-8.1 1.1-16.4 1.6-24.7 0.3-4.1-0.6-8.2-1.7-12.1-3.3-4-1.5-7.7-3.5-11.2-5.9-5.2-3.7-9.8-8.1-13.6-12.6l0.5 0.2c-26.3 3.8-52.7 2-76.6-5.1-11.9-3.7-23.2-8.7-33.3-15.2-10.2-6.4-18.9-14.6-25.4-24-6.6-9.4-10.7-20.1-12.8-30.7-2-10.6-2-21.3 0-31.3 2-10 5.7-19.2 10.7-27.2 4.9-8 11-14.8 17.4-20.6 6.4-5.6 13.2-10.3 19.8-14.3 6.8-3.7 13.4-6.9 19.8-9.2 12.7-4.9 24.3-7.2 33.7-8.5 4.8-0.5 9-1.1 12.7-1.1 3.6-0.2 6.7-0.4 9.3-0.2q3.7 0 5.7 0.1 1.9 0.1 1.9 0.1z"/><path class="f" d="m1433.4 912.5c0 0.3-301.1 0.6-672.4 0.6-371.4 0-672.4-0.3-672.4-0.6 0-0.2 301-0.5 672.4-0.5 371.3 0 672.4 0.3 672.4 0.5z"/><path class="g" d="m1160.6 525h-6.3v-8.9h6.3zm-6.3 0h-25.6v-8.9h21.7l-6.6 5.7v-8.2q0-4.2-0.8-6.4-0.8-2.2-2.6-3.1-1.9-0.9-5.2-0.9h-4.9v-8.9h4.9q6.2 0 10.5 2.1 4.2 2 6.4 6.3 2.2 4.2 2.2 10.9zm6.3 0v-8.9q0.3 0 0.5 0.3 0.3 0.3 0.4 0.9 0.2 0.6 0.2 1.4 0.1 0.8 0.1 1.8 0 1.1-0.1 1.9 0 0.8-0.2 1.4-0.1 0.6-0.4 0.9-0.2 0.3-0.5 0.3zm43.5 0h-6.4v-8.9h6.4zm-43.5-8.9v8.9q-0.3 0-0.5-0.3-0.3-0.3-0.4-0.9-0.1-0.6-0.2-1.4-0.1-0.8-0.1-1.9 0-1.4 0.1-2.4 0.1-0.9 0.4-1.5 0.3-0.5 0.7-0.5zm37.1 8.9h-37.1v-8.9h30.5l-3.9 3.6v-10q0-2.7-0.5-4.1-0.6-1.4-2-2-1.4-0.6-4-0.6-2.4 0-4.8 0.3-2.3 0.3-3.6 0.9l6.6-6.1q-0.4 1.4-0.8 3.5-0.3 2-0.5 4.3-0.2 2.4-0.2 4.5 0 1.8 0.2 4 0.2 2.2 0.4 3.9 0.3 1.7 0.4 2.4l-9.9 2.7q-0.3-0.9-0.7-2.9-0.3-1.9-0.6-4.5-0.2-2.7-0.2-5.6 0-3 0.2-5.9 0.3-2.8 0.7-5.1 0.5-2.3 0.8-3.6 1.6-0.6 4.8-1.1 3.2-0.6 7.2-0.6 5.7 0 9.4 1.5 3.8 1.6 5.7 5 1.9 3.4 1.9 9.3zm6.4 0v-9q0.3 0 0.4 0.4 0.3 0.3 0.4 0.9 0.2 0.5 0.3 1.4 0.1 0.8 0.1 1.8 0 1-0.1 1.9-0.1 0.8-0.3 1.4-0.1 0.5-0.4 0.8-0.1 0.4-0.4 0.4zm38.9 0h-6.4v-9h6.4zm-38.9-8.9v8.9q-0.4 0-0.6-0.3-0.2-0.3-0.4-0.8-0.1-0.6-0.2-1.4-0.1-0.9-0.1-1.9 0-1.4 0.2-2.4 0.1-1 0.3-1.5 0.3-0.6 0.8-0.6zm32.5 8.9h-32.5v-8.9h25.7l-3.7 2.8v-8.6q0-3.4-2.1-5.1-2.1-1.9-7-1.9-1.2 0-3.3 0.2-2.1 0.1-4.6 0.5l-1-8.2q2.7-0.6 5.2-1 2.5-0.4 5-0.4 5.3 0 9.4 1.9 4.1 2 6.5 5.6 2.4 3.5 2.4 8.4zm6.4 0v-8.9q0.3 0 0.5 0.3 0.3 0.4 0.4 1 0.1 0.5 0.2 1.4 0.1 0.8 0.1 1.8 0 1-0.1 1.9-0.1 0.8-0.2 1.4-0.1 0.5-0.4 0.8-0.2 0.3-0.5 0.3zm17.1 0h-10.5v-42.7h10.5zm-10.5 0h-6.6v-8.9h6.6zm-6.6-8.9v8.9q-0.3 0-0.6-0.3-0.2-0.3-0.3-0.8-0.2-0.6-0.3-1.4 0-0.9 0-1.9 0-1.4 0.1-2.4 0.1-1 0.3-1.5 0.3-0.6 0.8-0.6zm36.8 8.9h-10.5v-42.7h10.5zm-39.3 73h-21q-5.1 0-8.7-1.6-3.6-1.7-5.5-5-1.9-3.4-1.9-8.4 0-5.1 1.9-8.6 1.9-3.4 5.5-5.2 3.6-1.8 8.7-1.8h14.6v25.8h-10.5v-18.4l1.7 1.5h-5.8q-1.7 0-2.9 0.4-1.3 0.4-2.1 1.9-0.6 1.4-0.6 4.4 0 2.8 0.6 4.1 0.6 1.3 1.8 1.7 1.3 0.3 3.2 0.3h21zm0 0v-8.9q0.3 0 0.5 0.3 0.2 0.3 0.3 0.9 0.2 0.6 0.3 1.5 0.1 0.7 0.1 1.8 0 1-0.1 1.9-0.1 0.8-0.3 1.4-0.1 0.5-0.3 0.8-0.2 0.3-0.5 0.3zm15.2-47.7q-2.5 0-3.7-1.7-1.2-1.8-1.2-5.2v-2.1h3.1v2.1q0 2.3 0.5 3.1 0.5 0.7 1.3 0.7 1.1 0 1.5-1.7 0.5-1.8-0.1-5.6l3.1-0.5q0.9 5.1-0.3 8.1-1.1 2.8-4.2 2.8zm-6.7 0q-3.2 0-4.3-2.8-1.1-3-0.2-8.1l3 0.5q-0.6 3.8-0.1 5.6 0.5 1.7 1.6 1.7 0.8 0 1.3-0.7 0.5-0.8 0.5-3.1v-2.1h3.1v2.1q0 3.4-1.2 5.2-1.2 1.7-3.7 1.7zm10.6-13.9h-14.6v-3.1h14.6zm4.3 61.6h-6.3v-8.9h6.3zm-23.4-8.9v8.9q-0.3 0-0.6-0.3-0.2-0.3-0.3-0.8-0.2-0.7-0.3-1.4 0-0.9 0-1.9 0-1.4 0.1-2.4 0.1-1 0.3-1.5 0.3-0.6 0.8-0.6zm17.1 8.9h-10.5v-42.7h10.5zm-10.5 0h-6.6v-8.9h6.6zm16.8 0v-8.9q0.3 0 0.5 0.3 0.2 0.3 0.3 0.9 0.2 0.6 0.3 1.4 0.1 0.8 0.1 1.9 0 1-0.1 1.8-0.1 0.8-0.3 1.5-0.1 0.5-0.3 0.8-0.2 0.3-0.5 0.3zm17.1 0h-10.5v-42.7h10.5zm-10.5 0h-6.6v-8.9h6.6zm-6.6-8.9v8.9q-0.3 0-0.6-0.3-0.2-0.3-0.3-0.9-0.1-0.6-0.3-1.4 0-0.8 0-1.8 0-1.5 0.1-2.4 0.1-1 0.4-1.6 0.3-0.5 0.7-0.5z"/><path class="e" d="m1052.3 377.1l9.4-27.8c-8.7-16.7-12.5-36.3-9.7-56.6 6.3-46 46.1-81.1 92.5-81.4 58.3-0.4 102.9 51 94.2 108.7-6.9 46.2-47.8 80.8-94.5 80.1-23.9-0.4-45.4-9.5-61.7-24.1v0.1z"/><path class="f" d="m1052.3 377.1c0 0 0.7-0.1 2-0.1q2.1-0.1 5.9-0.3c5.2-0.3 12.6-0.6 22.3-1.1l-0.3 0.7c-0.2-0.2-0.1-0.5 0.1-0.7 0.1-0.1 0.4 0 0.5 0.1 9 7.9 22.6 16.8 40.9 21.1 9 2.2 19.2 3 29.8 2 10.7-0.9 21.9-3.7 32.6-9 10.7-5.2 21-12.8 29.5-22.6 8.6-9.8 15.4-21.8 19.4-35.1 8-26.6 3.3-59-15.7-83.2l-3.5-4.5-4-4.2c-2.5-2.9-5.6-5.1-8.4-7.6-6-4.6-12.3-8.7-19-11.6-13.4-6.2-28-9-41.9-8.6-14 0.4-27.4 4.1-39.1 9.9-11.7 5.9-21.6 14-29.3 23.1-15.6 18.4-22.1 40.4-22.3 59-0.4 18.7 4.8 34.1 10.3 44.7q0 0.2 0 0.3c-3.1 8.9-5.5 15.7-7.2 20.5q-1.2 3.4-1.9 5.3c-0.4 1.2-0.7 1.9-0.7 1.9q-0.1 0 0.5-1.7 0.6-2 1.7-5.3c1.6-4.9 3.9-11.9 6.8-21v0.4c-5.6-10.7-11.1-26.1-10.9-45.2 0.1-18.8 6.6-41.2 22.3-60 7.9-9.3 18-17.6 29.9-23.6 11.8-6.1 25.5-9.8 39.8-10.3 14.3-0.4 29.1 2.4 42.8 8.7 6.9 3 13.4 7.2 19.5 11.9 2.8 2.6 6 4.8 8.6 7.8l4 4.2 3.7 4.6c19.4 24.8 24.1 57.9 15.9 85-4.1 13.7-11.1 25.9-19.9 35.8-8.7 10-19.2 17.7-30.1 23-11 5.3-22.4 8.1-33.2 9-10.9 0.9-21.2 0.1-30.4-2.3-18.4-4.4-32.1-13.6-41.1-21.8l0.7-0.5c0.1 0.2 0.1 0.5-0.1 0.6q-0.1 0.1-0.2 0.1c-9.9 0.2-17.5 0.4-22.7 0.5q-3.7 0.1-5.7 0.1-2 0-1.9 0z"/><path  d="m1126.2 341.8q-7.3 0-13.1-2.6-5.7-2.7-9-7.4-3.2-4.7-3.2-10.5 0-1.7 0.2-4.3 0.3-2.5 0.7-5.6 0.4-3.2 0.8-6.5 0.6-3.5 1.1-6.7l13.6 1.8q-0.9 5.3-1.5 9.6-0.5 4.2-0.8 7.2-0.4 2.9-0.4 4.3 0 2.8 1.3 4.8 1.3 2 3.9 3.1 2.6 1.2 6.4 1.2 4 0 6.3-1.2 2.2-1.2 3.1-3.1 0.9-1.9 0.9-4.1v-40h13.7v40q0 6-3.1 10.5-3 4.5-8.5 7.1-5.4 2.4-12.4 2.4zm64.8-19.8h-41l0.2-11.7h38.4l-11.3 9.5v-15.4q0-4.2-1.1-6.5-1.1-2.4-3-3.4-1.9-1.1-4.5-1.1-3.3 0-6.5 1.6-3.1 1.5-5.8 3.8-2.7 2.3-5 5-2.3 2.6-4 4.9-1.6 2.3-2.8 3.5l-2.6-9q3.8-4.7 6.6-8.2 2.8-3.6 5.2-6.1 2.3-2.6 4.6-4.1 2.4-1.6 5.3-2.3 2.9-0.7 6.9-0.7 5.2 0 8.9 1.7 3.9 1.7 6.4 4.8 2.7 3.1 3.9 7.2 1.2 4.1 1.2 8.9zm-19.3-47.7h-13.9v-10.5h13.9z"/><path class="e" d="m796.6 68c-39.8-1.2-80.5 11.8-109.4 39.1-28.9 27.3-44.4 69.4-36 108.3 8.3 38.8 37.9 84.6 77.5 88.3 0 0 1 22-21.7 27.4 34.5 4.6 52.4 0 70-24.2 52.2 9.1 100.6-5.6 130.6-36.6 32.4-33.5 38.6-88.5 18.2-130.3-20.4-41.9-71-75.6-132.7-72.1"/><path class="f" d="m793.1 67.9q0 0 2.2-0.1 2.3 0 6.6-0.2c5.8 0 14.5 0.4 25.4 2 10.9 1.9 24.2 5.4 38.5 12.2 1.7 0.9 3.5 1.8 5.3 2.8 1.8 1 3.7 1.8 5.4 3 3.6 2.2 7.4 4.4 10.9 7.2 3.7 2.5 7.2 5.6 10.8 8.6 3.4 3.3 7 6.6 10.2 10.4 6.6 7.4 12.8 16 17.6 25.8 4.8 9.8 8.4 20.7 10.3 32.2 1.9 11.6 2.3 23.9 0.7 36.3-1.6 12.5-5.3 25.1-11.2 36.9-5.8 11.9-14.1 23-24.6 32.1-2.7 2.2-5.3 4.6-8.2 6.5-1.5 1.1-2.8 2.1-4.3 3.1q-2.3 1.4-4.5 2.8c-1.5 1-3 1.9-4.6 2.7q-2.4 1.3-4.7 2.6-2.5 1.1-4.9 2.2c-1.6 0.8-3.3 1.6-5 2.2-13.4 5.3-27.8 9-42.7 10.2-14.9 1.3-30.2 0.6-45.4-2l0.5-0.2c-3.7 5.1-8.1 10.3-13.4 14.6-7.9 6.4-17.7 10.1-27.6 11-10 0.9-19.9 0-29.5-1.2l-2.7-0.3 2.7-0.7c6.1-1.5 11.9-4.7 15.6-9.7 3.8-4.9 5.6-11.2 5.7-17.2l0.4 0.5c-13.1-1.3-25.1-7.2-34.9-15.1-9.8-7.9-17.8-17.6-24.2-27.9-6.4-10.2-11.4-21-15-32-3.7-11-5.8-22.2-6-33.2-0.4-22 5.9-42.6 15.3-59.3 9.4-17 22.1-30.1 35.1-39.8 6.5-4.8 13.2-8.7 19.6-12.1 6.5-3.3 12.9-5.9 18.9-8 12.1-4.2 22.9-6.3 31.7-7.5 8.8-1.2 15.7-1.4 20.4-1.5q3.5 0.1 5.3 0.1 1.8 0.1 1.8 0.1 0 0-1.8 0-1.8 0-5.3 0c-4.7 0.2-11.5 0.4-20.4 1.6-8.8 1.3-19.5 3.5-31.5 7.6-6 2.3-12.4 4.8-18.8 8.1-6.4 3.4-13 7.3-19.5 12.1-13 9.7-25.5 22.8-34.8 39.6-9.3 16.7-15.6 37.1-15.1 59 0.2 10.9 2.3 22 5.9 32.9 3.6 10.9 8.6 21.7 15 31.8 6.4 10.2 14.3 19.8 24 27.6 9.7 7.8 21.5 13.7 34.4 14.9h0.5v0.4c-0.1 6.4-1.9 12.8-5.9 17.9-3.8 5.3-9.9 8.6-16.2 10.1v-1c9.5 1.2 19.4 2.1 29.1 1.1 9.8-0.8 19.4-4.4 27.2-10.7 5.2-4.3 9.5-9.4 13.2-14.4l0.2-0.2h0.3c15.1 2.6 30.3 3.3 45.1 2 14.8-1.2 29.1-4.8 42.4-10.2 1.7-0.6 3.4-1.3 5-2.1q2.4-1.1 4.8-2.2 2.4-1.3 4.7-2.6c1.6-0.8 3.1-1.6 4.6-2.6q2.2-1.4 4.4-2.8c1.5-1 2.9-2.1 4.3-3.1 2.9-1.9 5.4-4.2 8.1-6.4 10.4-9 18.6-20 24.5-31.8 5.9-11.8 9.5-24.2 11.1-36.6 1.6-12.3 1.2-24.5-0.7-36-1.9-11.5-5.3-22.4-10.1-32.1-4.7-9.7-10.8-18.2-17.4-25.6-3.2-3.8-6.8-7.1-10.1-10.4-3.7-3-7.1-6.1-10.8-8.6-3.5-2.7-7.2-4.9-10.8-7.2-1.7-1.2-3.6-2-5.4-3-1.8-0.9-3.5-1.9-5.3-2.8-14.2-6.8-27.4-10.4-38.3-12.3-10.9-1.7-19.5-2.2-25.3-2.2q-4.3 0.1-6.6 0.1c-1.5 0-2.2 0-2.2 0z"/><path class="f" d="m735.1 234.6l-5 25.2h-2.7l2.4-11.6h-15.8l-2.3 11.6h-2.7l5.1-25.2h2.6l-2.2 11.2h15.8l2.2-11.2z"/><path fill-rule="evenodd" class="f" d="m740.2 251q-0.1 0.4-0.1 0.8c0 3.8 2.2 5.9 6.5 5.9 2.6 0 4.8-0.9 6.2-2.4l1.2 1.8c-1.8 1.8-4.6 2.9-7.6 2.9-5.4 0-8.8-3.1-8.8-8.1 0-6.5 4.4-11.2 10.5-11.2 5 0 8.2 3 8.2 8 0 0.8-0.1 1.6-0.2 2.3zm0.2-1.9h13.5q0.1-0.3 0.1-0.7c0-3.6-2.4-5.5-6-5.5-3.8 0-6.6 2.4-7.6 6.2z"/><path class="f" d="m764.9 233.1h2.5l-5.3 26.7h-2.6z"/><path class="f" d="m774.6 233.1h2.5l-5.3 26.7h-2.6z"/><path fill-rule="evenodd" class="f" d="m778.7 251.9c0-6.4 4.6-11.2 11-11.2 5.2 0 8.6 3.1 8.6 8 0 6.5-4.6 11.3-11 11.3-5.2 0-8.6-3.2-8.6-8.1zm17-3.1c0-3.7-2.2-5.9-6.2-5.9-4.7 0-8.2 3.8-8.2 8.9 0 3.7 2.3 5.9 6.2 5.9 4.7 0 8.2-3.7 8.2-8.9z"/><path class="d" d="m843 240.8v10.4c0 0.4 0.3 0.7 0.8 0.7l6.1 0.1q0.3 0 0.5 0.1l13.7 10.4c0.5 0.4 1.2 0 1.2-0.6l-0.3-32.1c0-0.7-0.7-1-1.2-0.6l-13.3 10.3q-0.1 0.2-0.4 0.2l-6.3 0.3c-0.5 0-0.8 0.4-0.8 0.8z"/><path class="f" d="m850.4 252.2c-0.3 0-0.6-2.8-0.6-6.1 0-3.4 0.3-6.2 0.6-6.2 0.4 0 0.6 2.8 0.6 6.2 0 3.3-0.2 6.1-0.6 6.1z"/><path class="d" d="m876.1 258l-4.2-2.1c3.1-6.2 2.7-14-1-19.9l3.9-2.5c4.6 7.2 5.1 16.8 1.3 24.5z"/><path class="d" d="m884.4 263.1l-4.1-2.1c4.9-9.8 4.2-22.1-1.6-31.3l3.9-2.5c6.7 10.6 7.4 24.6 1.8 35.9z"/><path  d="m726.6 191h-8.7v-11.7h8.7zm-8.7 0h-13.7v-56h13.7zm8.7 0v-11.7q0.4 0 0.8 0.4 0.3 0.4 0.4 1.2 0.2 0.8 0.3 1.9 0.1 1 0.1 2.4 0 1.3-0.1 2.5-0.1 1-0.3 1.8-0.1 0.7-0.4 1.1-0.4 0.4-0.8 0.4zm24.8-47.7h-19.2v-4h19.2zm0-8.8h-19.2v-4h19.2zm5.6 56.4h-8.3v-11.7h8.3zm-30.4-11.7v11.7q-0.4 0-0.7-0.4-0.3-0.4-0.5-1.1-0.1-0.8-0.3-1.9-0.1-1.1-0.1-2.5 0-1.8 0.2-3.1 0.2-1.3 0.5-2 0.4-0.7 0.9-0.7zm22.1 11.7h-22.1v-11.7h16.8l-8.5 7.1v-35.7h13.8zm8.3 0v-11.6q0.4 0 0.7 0.4 0.3 0.4 0.5 1.2 0.1 0.7 0.2 1.8 0.2 1 0.2 2.4 0 1.4-0.2 2.5-0.1 1-0.2 1.8-0.2 0.7-0.5 1.1-0.3 0.4-0.7 0.4zm-8.3 18.8h-13.8v-10.4h13.8zm51-18.8h-42.7v-11.7h33.7l-4.8 3.7v-11.3q0-4.5-2.8-6.8-2.8-2.4-9.2-2.4-1.6 0-4.3 0.2-2.7 0.2-6.1 0.7l-1.2-10.8q3.5-0.8 6.7-1.3 3.4-0.6 6.7-0.6 6.9 0 12.2 2.6 5.5 2.5 8.6 7.3 3.2 4.6 3.2 11.1zm-42.7-11.7v11.7q-0.4 0-0.8-0.4-0.3-0.4-0.4-1.1-0.2-0.8-0.4-1.9 0-1.1 0-2.5 0-1.8 0.1-3.1 0.2-1.3 0.5-2 0.4-0.7 1-0.7zm79.7 11.7h-10.4v-11.7h10.4zm-27.7 21.4q-0.8 0-2.1-0.1-1.3-0.1-2.7-0.3l0.2-11.4q1.4 0 2.6 0.1 1.3 0 1.9 0 2.7 0 4.2-2.2 1.6-2.2 1.6-6.4v-41.3h13.8v41.3q0 5.9-2.5 10.5-2.4 4.6-6.8 7.2-4.3 2.6-10.2 2.6zm27.7-21.4v-11.7q0.5 0 0.7 0.4 0.4 0.4 0.5 1.2 0.3 0.7 0.3 1.9 0.1 1 0.1 2.4 0 1.3-0.1 2.4 0 1.1-0.3 1.9-0.1 0.7-0.5 1.1-0.2 0.4-0.7 0.4zm48.7 0h-48.8v-11.7h40l-5 4.7v-13q0-3.5-0.7-5.4-0.7-1.9-2.6-2.6-1.8-0.8-5.3-0.8-3.2 0-6.2 0.4-3 0.4-4.8 1.1l8.6-7.9q-0.4 1.8-0.9 4.5-0.4 2.7-0.7 5.7-0.3 3.1-0.3 5.9 0 2.4 0.3 5.3 0.2 2.8 0.5 5.1 0.4 2.2 0.6 3l-13.1 3.6q-0.4-1.2-0.8-3.7-0.5-2.6-0.8-6-0.4-3.5-0.4-7.3 0-4 0.4-7.7 0.4-3.8 0.9-6.7 0.6-3.1 1.1-4.8 2-0.7 6.2-1.5 4.2-0.7 9.4-0.7 7.6 0 12.4 2 5 2 7.5 6.5 2.5 4.5 2.5 12.2zm-48.7-11.7v11.7q-0.4 0-0.7-0.4-0.3-0.4-0.5-1.2-0.1-0.8-0.3-1.8-0.1-1.1-0.1-2.5 0-1.8 0.2-3.1 0.1-1.3 0.5-2 0.4-0.7 0.9-0.7z"/><path class="e" d="m341.8 59.4c34.3-1 69.6 10.2 94.5 33.8 25 23.6 38.4 60 31.2 93.6-7.3 33.6-32.8 73.1-67 76.3 0 0-0.9 19.1 18.7 23.7-29.8 4-45.3 0-60.5-20.9-45.1 7.9-87-4.8-112.9-31.7-28-28.9-33.4-76.5-15.7-112.6 17.7-36.1 61.3-65.3 114.7-62.3"/><path class="f" d="m344.8 59.3q0 0-1.9 0-2 0-5.7 0c-5.1 0-12.5 0.4-21.9 1.9-9.4 1.6-20.8 4.8-33.1 10.6-1.5 0.7-3 1.6-4.6 2.4-1.5 0.9-3.1 1.6-4.6 2.6-3.1 2-6.3 3.9-9.4 6.2-3.2 2.2-6.1 4.9-9.2 7.5-3 2.8-6.1 5.6-8.8 8.9-5.7 6.4-10.9 13.8-15 22.2-4.1 8.4-7.2 17.7-8.8 27.7-1.6 9.9-1.9 20.5-0.5 31.1 1.4 10.7 4.5 21.5 9.5 31.6 5.1 10.2 12.2 19.7 21.2 27.4 9 7.8 19.4 14.4 31 18.9 11.5 4.6 23.9 7.7 36.7 8.8 12.7 1.1 25.9 0.5 38.9-1.7l0.3-0.1 0.2 0.3c3.2 4.3 6.9 8.7 11.4 12.4 6.7 5.4 15 8.5 23.4 9.3 8.5 0.8 17 0 25.2-1v1c-5.5-1.3-10.7-4.2-14.1-8.7-3.4-4.5-5-10-5-15.5v-0.5h0.4c11.1-1.2 21.4-6.1 29.7-12.8 8.4-6.8 15.2-15.1 20.7-23.9 5.6-8.8 9.9-18 13-27.5 3.1-9.4 4.9-19 5.1-28.4 0.4-18.9-5-36.5-13-50.9-8.1-14.5-18.9-25.9-30.1-34.2-11.2-8.3-22.7-13.8-33-17.5-10.4-3.6-19.7-5.5-27.3-6.6-7.6-1.1-13.6-1.2-17.6-1.4q-3 0-4.6 0-1.5 0-1.5 0 0 0 1.5-0.1 1.6 0 4.6-0.1c4 0.1 10 0.2 17.6 1.3 7.7 1 17 2.8 27.4 6.4 10.4 3.7 22 9.1 33.3 17.5 11.3 8.3 22.2 19.7 30.4 34.3 8.1 14.5 13.6 32.3 13.2 51.3-0.2 9.5-2 19.2-5.1 28.7-3.1 9.5-7.5 18.9-13.1 27.7-5.5 8.9-12.4 17.2-20.9 24.1-8.4 6.9-18.9 11.9-30.2 13.1l0.5-0.5c0 5.2 1.6 10.6 4.8 14.9 3.2 4.3 8.2 7 13.5 8.3l2.7 0.7-2.7 0.3c-8.4 1.1-16.9 1.9-25.5 1-8.6-0.7-17.1-3.9-24-9.5-4.5-3.7-8.3-8.2-11.6-12.6l0.6 0.2c-13.1 2.3-26.4 2.8-39.2 1.7-12.9-1.1-25.4-4.2-37-8.8-11.6-4.6-22.2-11.3-31.3-19.1-9.1-7.9-16.2-17.5-21.3-27.8-5.1-10.2-8.2-21.1-9.6-31.9-1.4-10.7-1.1-21.3 0.6-31.4 1.6-10 4.7-19.4 8.8-27.9 4.2-8.4 9.5-15.8 15.2-22.3 2.8-3.3 6-6.1 8.9-8.9 3.1-2.6 6.1-5.3 9.3-7.5 3.1-2.4 6.4-4.3 9.4-6.2 1.6-1 3.2-1.7 4.8-2.6 1.5-0.8 3-1.7 4.6-2.4 12.3-5.8 23.8-8.9 33.2-10.5 9.5-1.5 16.9-1.8 22-1.7q3.7 0.1 5.7 0.1 1.9 0.1 1.9 0.1z"/><path fill-rule="evenodd" class="f" d="m268.4 207.6c-0.1 4.4-3.2 7.6-7.3 7.6-2.5-0.1-4.2-1.1-4.9-3l-0.6 2.8h-1.6l3.7-18h1.8l-1.5 7.1c1.2-1.2 2.8-2 4.8-1.9 3.3 0 5.6 2.1 5.6 5.4zm-1.8 0.1c0-2.5-1.5-4-4.1-4-3.2-0.1-5.6 2.4-5.6 5.9 0 2.5 1.5 4 4.1 4 3.2 0.1 5.6-2.4 5.6-5.9z"/><path class="f" d="m283.5 202.5l-9.5 14.3c-1.6 2.4-2.8 3.2-4.6 3.2-1.2-0.1-2.4-0.5-3-1.2l0.9-1.3c0.5 0.6 1.3 1 2.2 1 1.1 0 2-0.5 3-2.1l0.9-1.3-3-12.8h1.7l2.6 11 7-10.9z"/><path fill-rule="evenodd" class="f" d="m284.6 209.3q-0.1 0.3-0.1 0.6c0 2.5 1.5 4 4.4 4 1.7 0 3.2-0.6 4.2-1.6l0.8 1.3c-1.2 1.2-3.2 1.8-5.2 1.8-3.7 0-5.9-2.1-5.9-5.5 0.1-4.3 3.1-7.5 7.2-7.5 3.4 0 5.5 2.1 5.5 5.5 0 0.5-0.1 1.1-0.2 1.5zm0.2-1.2h9.1q0.1-0.2 0-0.4c0.1-2.4-1.5-3.8-3.9-3.8-2.6 0-4.5 1.6-5.2 4.2z"/><path class="d" d="m401.5 208.5l-0.1 7.9c0 0.4 0.3 0.6 0.6 0.6l4.8 0.1q0.1 0 0.3 0.1l10.5 7.9c0.4 0.3 0.9 0 0.9-0.4l-0.2-24.7c0-0.5-0.5-0.7-0.9-0.4l-10.2 7.9q-0.1 0.1-0.3 0.1l-4.9 0.3c-0.3 0-0.5 0.3-0.5 0.6z"/><path class="f" d="m407.1 217.2c-0.2 0-0.4-2.1-0.4-4.7 0-2.6 0.2-4.7 0.4-4.7 0.3 0 0.5 2.1 0.5 4.7 0 2.6-0.2 4.7-0.5 4.7z"/><path class="d" d="m426.8 221.6l-3.2-1.5c2.4-4.8 2.1-10.8-0.8-15.3l3-1.9c3.5 5.5 3.9 12.9 1 18.7z"/><path class="h" d="m433.2 225.5l-3.2-1.6c3.8-7.4 3.3-16.9-1.2-23.9l3-1.9c5.1 8.1 5.7 18.8 1.4 27.4z"/><path  d="m279.6 161h-8.7v-11.7h8.7zm-8.7 0h-13.7v-56h13.7zm8.7 0v-11.7q0.4 0 0.7 0.4 0.3 0.4 0.5 1.2 0.2 0.8 0.2 1.9 0.2 1 0.2 2.4 0 1.3-0.2 2.5 0 1-0.2 1.8-0.2 0.7-0.5 1.1-0.3 0.4-0.7 0.4zm33.4-47.7h-19.2v-4h19.2zm0-8.8h-19.2v-4h19.2zm-9.9 46.4l-10.1 8q-3.9-4-5.8-8-1.8-4-1.8-8.6 0-4.9 1.8-8.8 1.9-4 5.1-6.9 3.2-2.9 7.4-4.5 4.2-1.5 8.8-1.5 2.4 0 4.9 0.5 2.7 0.4 5 1.2l-3.8 11q-1.5-0.4-2.8-0.7-1.4-0.3-2.8-0.3-3 0-5.2 1.3-2.3 1.3-3.5 3.5-1.2 2.2-1.2 5 0 2.5 1 4.8 1 2.1 3 4zm15.9 10h-39.4v-11.7h39.4zm-39.4-11.7v11.7q-0.4 0-0.7-0.4-0.3-0.4-0.5-1.1-0.2-0.8-0.3-1.9-0.1-1.1-0.1-2.5 0-1.8 0.2-3.1 0.1-1.3 0.4-2 0.4-0.7 1-0.7zm66.1 11.7h-13.7v-56h13.7zm43.6 0h-33.5v-11.7h28.4l-8.7 7.4v-10.7q0-5.4-1-8.3-1.1-3-3.5-4.1-2.4-1.2-6.7-1.2h-6.5v-11.7h6.5q8.1 0 13.7 2.8 5.6 2.6 8.4 8.2 2.9 5.6 2.9 14.3zm23.8 21.4q-3.1 0-6.4-0.4-3.3-0.5-6.9-1.2l2-11q4 0.5 6.7 0.7 2.8 0.2 4.6 0.2 5.1 0 7.4-1.8 2.2-1.7 2.2-5.4v-32.7l2.3 1.7h-7.6q-2.3 0-4 0.5-1.6 0.6-2.6 2.5-0.9 1.8-0.9 5.8 0 3.6 0.8 5.4 0.8 1.7 2.4 2.2 1.7 0.4 4.3 0.4h5.3v11.7h-5.3q-6.8 0-11.6-2.1-4.7-2.2-7.2-6.6-2.4-4.4-2.4-11 0-6.7 2.4-11.2 2.5-4.6 7.2-6.9 4.8-2.4 11.6-2.4h19.1v42.7q0 5.8-3 10.1-2.9 4.2-8.1 6.5-5.2 2.3-12.3 2.3z"/><path class="d" d="m568.2 899.7h-334.6v-25.1h334.6z"/><path class="i" d="m556.7 925.4h-326.5v-25.7h326.5z"/><path class="a" d="m230.2 871h109v-72.3h-109z"/><path class="i" d="m339.2 796.2h-109c-1.2 0-2.2 1-2.2 2.2v0.7c0 1.2 1 2.2 2.2 2.2h109v68.2h-109c-1.9 0-2.6 1.2-2.6 2.6 0 1.4 0.6 2.5 2.6 2.5h109 200v-78.4z"/><path class="c" d="m230.2 808.4c0 0.1 33.9 0.2 56.8 0.2 23 0 41.6-0.1 41.6-0.2 0-0.1-18.6-0.2-41.6-0.2-22.9 0-56.8 0.1-56.8 0.2z"/><path class="c" d="m230.2 817.7c0 0.1 33.9 0.2 56.8 0.2 23 0 41.6-0.1 41.6-0.2 0-0.1-18.6-0.2-41.6-0.2-22.9 0-56.8 0.1-56.8 0.2z"/><path class="c" d="m230.2 827c0 0.1 33.9 0.2 56.8 0.2 23 0 41.6-0.1 41.6-0.2 0-0.2-18.6-0.2-41.6-0.2-22.9 0-56.8 0-56.8 0.2z"/><path class="c" d="m230.2 836.2c0 0.2 33.9 0.3 56.8 0.3 23 0 41.6-0.1 41.6-0.3 0-0.1-18.6-0.2-41.6-0.2-22.9 0-56.8 0.1-56.8 0.2z"/><path class="c" d="m230.2 845.5c0 0.1 33.9 0.2 56.8 0.2 23 0 41.6-0.1 41.6-0.2 0-0.1-18.6-0.2-41.6-0.2-22.9 0-56.8 0.1-56.8 0.2z"/><path class="c" d="m230.2 854.8c0 0.1 33.9 0.2 56.8 0.2 23 0 41.6-0.1 41.6-0.2 0-0.1-18.6-0.2-41.6-0.2-22.9 0-56.8 0.1-56.8 0.2z"/><path class="c" d="m230.2 864.1c0 0.1 33.9 0.2 56.8 0.2 23 0 41.6-0.1 41.6-0.2 0-0.1-18.6-0.2-41.6-0.2-22.9 0-56.8 0.1-56.8 0.2z"/><path class="a" d="m370.4 920.4h-140.2v-17h140.2c4.7 0 8.5 3.8 8.5 8.5 0 4.7-3.8 8.5-8.5 8.5z"/><g style="opacity:.1"><path  d="m511.7 925.4h-165.4v-25.7h165.4z"/></g><g style="opacity:.1"><path  d="m568.2 899.7h-204.7v-25.1h204.7z"/></g><g style="opacity:.1"><path  d="m539.2 874.6h-188v-78.4h188z"/></g><path class="e" d="m346.8 896.3h-113.2v-16.9h113.2c4.6 0 8.4 3.8 8.4 8.5 0 4.6-3.8 8.4-8.4 8.4z"/><path class="d" d="m1041.5 637.5l-201.3 26.3c0 0-72 11.2-84 32.4-12 21.1-78.4 139.6-83 144.7l100 79.3 6.3-11 2.6 10.4h329.2l2.9-134.8z"/><path class="d" d="m1131.7 663.3c-42.1-35.3-90.2-25.8-90.2-25.8l9.2 119.1 87.6 85.3 87-94.4c-30.4-23.1-62.4-58-93.6-84.2z"/><path class="f" d="m1107.5 689.1q0 0 0.1 1.2 0 1.4 0.1 3.6c0.1 3.3 0.2 7.8 0.3 13.4 0.4 11.2 1.2 26.7 2.2 43.9 1.1 17.1 1.9 32.7 2.1 44 0.2 5.6 0.2 10.1 0.1 13.3q0 2.2 0 3.6-0.1 1.3-0.1 1.3-0.1 0-0.1-1.3-0.1-1.4-0.2-3.6c0-3.1-0.2-7.7-0.4-13.3-0.4-11.3-1.4-26.8-2.4-43.9-1-17.2-1.7-32.7-1.9-44-0.1-5.6-0.1-10.2 0-13.4q0-2.2 0.1-3.6 0-1.2 0.1-1.2z"/><path class="f" d="m768.8 791.4q0.1 0 0.3 1.2 0.3 1.4 0.7 3.6c0.5 3.1 1.3 7.6 2.1 13.2 1.6 11.2 3.6 26.7 5.2 43.8 1.6 17.2 2.6 32.8 3 44.1 0.2 5.6 0.3 10.2 0.4 13.3q0 2.3 0 3.7 0 1.2-0.1 1.2 0 0-0.1-1.2-0.1-1.4-0.2-3.6c-0.2-3.3-0.4-7.9-0.7-13.4-0.7-11.3-1.7-26.8-3.3-44-1.6-17.1-3.5-32.6-4.9-43.8-0.8-5.5-1.4-10-1.8-13.2q-0.3-2.3-0.5-3.6-0.1-1.3-0.1-1.3z"/><path class="f" d="m1086.6 462.5c17.3 58 42.8 110.2 74.9 144.6-15.3 3.2-49.1 13-66 16.4-4.5 0.9-26.3-23.3-26.3-23.3l5 27.3c-90.9 17.8-201.1 35.4-280.2 23.1-12.2-65.7-16.5-146.1-4.1-209.2 0 0 9.8-76 99-94.3 0 0 48.8-14.4 100.6 5.4 0 0 60.9 20.7 97.1 110z"/><path class="j" d="m910.3 363l20.9 2 71.3 48c11.2 3 18.1 14.1 16.1 25.4l-44.5 170.2 21.3 36.6-20 28c-23 32.5-70.7 33.9-95.7 2.9l-3.2-4.1-21.3-31.4c0 0-61.1-19.1-61-83.1 0.1-31.8 9.8-82.5 19.2-123.6 8.4-37.1 51-80.8 96.9-70.9z"/><path class="k" d="m855.2 640.5c0 0 42.3 5.6 86-16.8 0 0-12.9 42.4-75.6 32.3z"/><path class="j" d="m985.4 539.7c0.7-4.6 7.9-14.7 12.6-14.7 12.6 0.1 34.5 4.6 29.7 35.8-6.6 42.6-48 27.2-47.9 26 0.1-1 3-31 5.6-47.1z"/><path class="k" d="m994 573c0.2-0.1 0.6 0.7 1.8 1.4 1.1 0.8 3.2 1.5 5.5 1 4.8-1 9.7-7.5 11.1-15.2 0.7-3.8 0.4-7.6-0.5-10.9-0.8-3.3-2.5-5.8-4.7-6.6-2.1-0.8-4 0.3-4.7 1.4-0.7 1.1-0.6 2-0.8 2-0.2 0.1-0.8-0.8-0.2-2.5 0.3-0.9 0.9-1.8 2.1-2.4 1.1-0.7 2.7-0.9 4.3-0.5 3.2 0.7 5.7 4.2 6.7 7.8 1.2 3.6 1.5 7.9 0.7 12.3-1.6 8.5-7.2 15.9-13.6 16.7-3.2 0.3-5.5-1-6.7-2.2-1.1-1.2-1.2-2.2-1-2.3z"/><path class="f" d="m999.7 525.5l-13.1 8.8c-48.2-30.3-102.7-184.3-99.1-176.7 0 0 34.5-6.1 67.5 7.2 33.1 13.3 94.4 44.7 84.6 84.9-9.8 40.2-39.9 75.8-39.9 75.8z"/><path class="i" d="m1043 617.4q0 0 0.3-0.7 0.4-0.8 1.1-2.2c0.9-2 2.3-4.8 3.9-8.6 1.6-3.8 3.5-8.4 5.3-14 1.8-5.5 3.5-11.9 4.6-19.1 1.1-7.3 1.6-15.3 0.8-23.9-0.8-8.5-2.9-17.6-6.9-26.3-2-4.4-4.4-8.7-7.5-12.8-3-4-6.5-7.7-10.5-11.2-8-6.8-17.5-12.3-27.3-17.5-5-2.7-9.9-5.2-14.6-7.9-4.8-2.6-9.4-5.5-13.8-8.4-8.9-5.8-16.8-12.3-23.9-18.9-14.2-13.3-24.8-27.5-32.4-40.1-7.6-12.5-12.3-23.5-15.1-31.2-1.5-3.9-2.3-6.9-3-9q-0.4-1.5-0.7-2.3-0.2-0.8-0.2-0.9 0 0 0.3 0.8 0.3 0.9 0.8 2.3c0.7 2.1 1.7 5.1 3.2 8.9 2.9 7.7 7.7 18.6 15.4 31.1 7.6 12.4 18.2 26.5 32.4 39.7 7 6.6 14.9 13 23.7 18.8 4.4 2.9 9 5.7 13.8 8.3 4.7 2.7 9.6 5.2 14.6 7.8 9.8 5.3 19.4 10.8 27.5 17.8 4 3.4 7.6 7.2 10.6 11.3 3.1 4.2 5.6 8.5 7.6 13 4 8.9 6.1 18 6.8 26.7 0.8 8.6 0.3 16.7-0.9 24-1.2 7.2-2.9 13.7-4.8 19.2-1.8 5.6-3.7 10.2-5.4 14-1.7 3.7-3.1 6.5-4.1 8.5q-0.8 1.3-1.2 2.1-0.4 0.8-0.4 0.7z"/><path class="i" d="m1070.4 483.8q0 0.1-0.5-0.1-0.5-0.2-1.4-0.5-1.9-0.8-5.2-2.2c-2.2-1-5-2.2-8.1-3.7-3.1-1.5-6.7-3.1-10.6-5.2q-2.9-1.5-6-3.2c-2.1-1.1-4.3-2.3-6.5-3.6-4.5-2.5-9.2-5.4-14.1-8.4-9.7-6.3-20.1-13.6-30.5-22-10.4-8.4-19.8-17-27.9-25.1-4.1-4.2-7.9-8.1-11.3-12-1.7-1.9-3.4-3.7-4.9-5.5q-2.3-2.8-4.4-5.3c-2.9-3.3-5.2-6.5-7.4-9.2-2.1-2.7-3.9-5.2-5.3-7.2q-2-2.9-3.2-4.6-0.5-0.7-0.8-1.2-0.3-0.4-0.3-0.4 0 0 0.4 0.4 0.3 0.4 0.9 1.1 1.2 1.7 3.3 4.5c1.5 2 3.3 4.3 5.5 7 2.2 2.7 4.5 5.9 7.4 9.1q2.1 2.5 4.5 5.3c1.5 1.8 3.2 3.6 4.9 5.5 3.4 3.8 7.3 7.7 11.3 11.8 8.2 8.1 17.6 16.7 27.9 25 10.4 8.3 20.8 15.7 30.4 21.9 4.9 3.1 9.5 6.1 14 8.6 2.2 1.2 4.4 2.5 6.5 3.6q3.1 1.7 6 3.3c3.8 2.1 7.4 3.7 10.5 5.3 3.1 1.6 5.8 2.8 8 3.8q3.2 1.5 5.1 2.4 0.8 0.3 1.3 0.6 0.5 0.2 0.5 0.2z"/><path class="j" d="m763.5 501.1c0 0 5.1 83.9 7.9 93.8 2.7 9.9 37.9 58.1 37.9 58.1 0 0-160.2 217.6-160.2 248.6l131.1 0.6-14.1-11.9c18.4-43.5 83.4-197 92-211.4 9.9-16.8 15.4-41.7 4.1-51.8-11.4-10.1-47.8-30.6-47.8-30.6 0 0 15.2-41.3 12.3-49.8-2.9-8.4-8.5-8.3-8.5-8.3l-16.5 34.1c0 0 0.3-43.7-1.6-56.2-1-6.2-3.6-8.9-7.7-11-2.6-1.2-5.8 0.2-6.5 2.8l-1.9 15.1c0 0-8.9-33.5-20.5-22.1z"/><path class="k" d="m763.5 501.1q0 0 0.4-0.4c0.3-0.3 0.8-0.7 1.4-1.1 0.7-0.4 1.6-0.8 2.7-0.9 1.2-0.1 2.6 0.2 3.8 1.1 2.6 1.7 4.8 4.9 6.8 8.9 2.1 4 3.9 8.8 5.5 14.5h-0.3c0.5-4.5 1.2-9.6 1.9-15.1 0.7-2.7 4.1-4.3 6.8-3 2.4 1.2 4.9 3 6.2 5.8 1.4 2.6 1.7 5.7 2 8.8 0.3 3.1 0.5 6.3 0.7 9.5 0.5 13.1 0.7 27.6 0.6 43.3l-0.6-0.2c5.2-10.7 10.7-22.1 16.5-34v-0.1c0.1-0.1 0.2-0.2 0.3-0.1 2.7 0.1 4.9 1.8 6.5 3.9 0.7 1 1.3 2.1 1.8 3.3 0.6 1.2 0.9 2.6 0.9 3.9 0.1 2.6-0.3 5.2-0.8 7.8q-0.7 3.9-1.7 7.8c-2.7 10.4-6.2 21-10.1 31.9l-0.1-0.5c10.2 5.8 20.7 12 31.3 18.7 5.2 3.5 10.6 7 15.6 11.1 2.5 2.1 4.5 4.9 5.7 8 1.1 3.2 1.5 6.5 1.6 9.8 0.1 13.5-5.2 26.6-12.1 38.5-6.1 12.4-11.7 25.4-17.6 38.6-23.1 52.9-47.4 110-72.6 169.6l-0.1-0.6c4.3 3.6 8.9 7.5 13.6 11.5l0.5 0.4c0.2 0.1 0.2 0.5 0 0.7q-0.1 0.2-0.4 0.2c-45.1-0.2-89-0.4-131.1-0.5-0.3-0.1-0.5-0.3-0.5-0.5v-0.1c0.2-3.8 1.5-7.2 2.8-10.6 1.3-3.3 2.9-6.6 4.4-9.8 3.2-6.4 6.7-12.6 10.2-18.7 7-12.1 14.3-23.9 21.6-35.3 14.7-22.9 29.3-44.5 43.5-65.1 28.4-41 54.8-77.8 77.9-109.3v0.4q-11.2-15.5-20.9-29.7c-3.1-4.7-6.2-9.3-9.1-13.9-2.8-4.6-5.6-9-7.5-13.7-0.9-2.4-1.1-4.9-1.4-7.3q-0.4-3.7-0.8-7.1-0.7-7-1.3-13.4-0.9-12.9-1.7-23.5c-1-14-1.7-24.9-2.2-32.3q-0.3-5.5-0.5-8.4c-0.1-1.9-0.1-2.8-0.1-2.8q0 0 0.2 2.8 0.2 2.9 0.6 8.4c0.6 7.4 1.3 18.3 2.3 32.3q0.9 10.6 1.9 23.4 0.6 6.4 1.3 13.4 0.4 3.5 0.8 7.1c0.4 2.4 0.6 4.9 1.4 7.2 1.9 4.6 4.7 9 7.5 13.6 2.9 4.5 6 9.1 9.2 13.9q9.6 14.1 20.9 29.6c0.1 0.1 0.1 0.3 0 0.4-23.1 31.6-49.4 68.3-77.8 109.5-14.1 20.5-28.7 42.2-43.4 65-7.3 11.4-14.6 23.2-21.6 35.3-3.5 6.1-6.9 12.3-10.1 18.7-1.5 3.2-3 6.4-4.4 9.7-1.3 3.3-2.5 6.8-2.7 10.2l-0.5-0.5c42.1 0.2 86 0.4 131.1 0.5l-0.3 1-0.4-0.4c-4.7-4-9.4-7.9-13.7-11.5-0.2-0.2-0.2-0.4-0.1-0.6 25.2-59.6 49.4-116.7 72.6-169.6 5.9-13.2 11.5-26.1 17.6-38.6 1.6-3.1 3.4-6 4.9-9.1 1.4-3.1 2.7-6.2 3.8-9.4 2.1-6.4 3.4-13 3.4-19.5-0.1-3.3-0.5-6.5-1.6-9.6-1.1-3-3-5.6-5.4-7.6-4.9-4.1-10.3-7.6-15.5-11-10.5-6.8-21-13-31.3-18.8-0.1-0.1-0.2-0.3-0.1-0.5 3.8-10.8 7.3-21.5 10-31.8q1-3.9 1.7-7.8c0.5-2.5 0.9-5.1 0.9-7.6 0-1.3-0.3-2.4-0.8-3.6-0.5-1.1-1.1-2.2-1.8-3.2-1.4-1.9-3.6-3.5-5.9-3.6l0.4-0.2c-5.9 11.9-11.4 23.3-16.6 34-0.1 0.2-0.3 0.2-0.4 0.2q-0.2-0.1-0.2-0.3c0.1-15.7 0-30.2-0.6-43.2-0.1-3.3-0.3-6.5-0.6-9.6-0.3-3-0.6-6.1-1.9-8.6-1.3-2.6-3.6-4.4-6-5.6-2.4-1.2-5.6 0.3-6.2 2.7v-0.1c-0.7 5.6-1.4 10.7-2 15.2 0 0-0.1 0.1-0.2 0.1q-0.1 0-0.1-0.1c-1.6-5.6-3.4-10.5-5.4-14.5-2-3.9-4.2-7.1-6.7-8.8-1.2-0.9-2.5-1.3-3.7-1.2-1.1 0.1-2 0.5-2.6 0.9-0.7 0.4-1.1 0.7-1.4 1q-0.5 0.4-0.5 0.4z"/><path class="k" d="m774.3 602.5c-0.1 0-0.1-0.9 0.1-2.6q0.1-2.8 0.4-7c0.3-5.9 0.6-14 0.9-23 0.3-9 0.6-17.2 1-23.1 0.1-2.9 0.3-5.3 0.5-7 0.1-1.6 0.2-2.5 0.3-2.5 0.1 0 0.1 0.9 0.1 2.5q-0.1 2.8-0.2 7c-0.2 6.2-0.4 14.2-0.6 23.1-0.3 9-0.8 17.2-1.3 23.1-0.2 2.9-0.5 5.3-0.7 6.9-0.3 1.7-0.4 2.6-0.5 2.6z"/><path class="k" d="m787.8 610.3c-0.3-0.1 1.9-6.5 4.9-14.2 3-7.8 5.7-14 6-13.9 0.2 0.2-2 6.5-5 14.2-3 7.8-5.6 14-5.9 13.9z"/><path class="j" d="m967.6 871.5c0 0-37.5-40.9-47.1-48.7-9.7-7.8-15.6-2.9-15.6-2.9 0 0-3.6-10.9-16-7.4 0 0-5.8-9.3-19.6-4.9-9.3 2.9-37.8 11.8-42.1 16.1-4.2 4.2-32.2 46.4-28.1 47.8 1.7 0.6 5.5 5.6 12.5 2.7 7.1-2.9 17.4-17.4 17.4-17.4l-7.7 26.9c-1.5 5.2 1.8 10.8 7.2 11.4 2.4 0.4 5.1-0.3 7.6-3.1 0 0 11.1 7 16.1 0.8 5-6.2 6.6-9.5 6.6-9.5 0 0 10 9.1 15.4 5.8 5.4-3.3 5.4-3.3 5.4-3.3 0 0 5.3 23.6 14.9 31.5 9.5 7.8 73.1 2.5 73.1 2.5z"/><path class="j" d="m1216.6 756.7c30 27.1 63.4 64 82.7 95.2 27 43.6-8.7 72.3-18 75.4-9.4 3.1-146 3.5-146 3.5v-0.1l-179.1-10.1c0 0 8-53.1 9.8-52.5 1.5 0.5 106.7-7.4 151.9-11.5l38.3-3.7-13.9-15.4z"/><path class="k" d="m1221 852.4c-0.1 0.2-3.5-1.3-9.4-2.8-2.9-0.8-6.5-1.5-10.4-2.1-4-0.5-8.4-0.8-13-0.8-4.6 0.1-9 0.6-12.9 1.2-3.9 0.7-7.5 1.5-10.4 2.3-5.8 1.7-9.2 3.3-9.3 3.1 0-0.1 0.8-0.5 2.4-1.2 0.8-0.4 1.7-0.8 2.9-1.2 1.1-0.4 2.4-1 3.8-1.4 2.9-0.9 6.5-1.8 10.4-2.6 4-0.6 8.5-1.1 13.1-1.2 4.7 0 9.1 0.3 13.1 0.9 4 0.6 7.6 1.4 10.5 2.3 1.5 0.4 2.8 0.9 3.9 1.3 1.2 0.3 2.1 0.7 2.9 1.1 1.6 0.6 2.4 1 2.4 1.1z"/><path class="k" d="m903.5 821.1c0 0-0.9 0.6-2.6 1.6q-1.3 0.8-3.1 2c-1.2 0.7-2.6 1.6-4.1 2.6-5.9 4-13.5 10.5-19.3 19.8-5.7 9.2-9.2 18.6-11.6 25.3-1.2 3.3-2.2 6.1-2.8 8-0.7 1.9-1.1 2.9-1.2 2.9 0 0 0.2-1.1 0.8-3 0.5-2 1.3-4.7 2.5-8.2 2.3-6.7 5.6-16.2 11.5-25.6 5.8-9.4 13.7-16 19.7-19.8 1.5-1 2.9-1.8 4.2-2.5q1.8-1.1 3.2-1.8c1.8-0.9 2.8-1.4 2.8-1.3z"/><path class="k" d="m891.1 812.5c0 0.1-1.3 0.5-3.7 1.4-2.4 1-5.8 2.5-9.8 4.7-4 2.3-8.5 5.5-12.9 9.6-4.4 4.1-8.6 9.3-12.2 15.3-3.5 6.1-6.1 12.2-8.1 18-2 5.7-3.5 11-4.6 15.4-1.1 4.4-2 8-2.6 10.6q-0.4 1.7-0.7 2.9-0.3 1-0.3 1-0.1 0 0.1-1 0.2-1.2 0.5-3c0.5-2.5 1.2-6.1 2.3-10.6 1-4.5 2.4-9.9 4.4-15.6 1.9-5.8 4.5-12.1 8.1-18.2 3.6-6.1 8-11.3 12.5-15.5 4.5-4.2 9.1-7.3 13.1-9.5 4.1-2.2 7.6-3.6 10-4.4 1.3-0.5 2.2-0.7 2.9-0.9q1-0.3 1-0.2z"/><path class="k" d="m849.9 818.7c0.1 0.1-1.9 1.8-4.6 5-2.7 3.2-6 8-8.8 13.7-2.7 5.8-4.5 11.3-5.9 15.3-1.3 4-2.1 6.5-2.2 6.4-0.1 0 0-0.6 0.3-1.8 0.2-1.1 0.7-2.8 1.2-4.8 1.2-4.1 2.9-9.7 5.7-15.5 2.8-5.9 6.3-10.7 9.2-13.8 1.4-1.5 2.7-2.7 3.6-3.5 0.9-0.7 1.4-1.1 1.5-1z"/><path class="k" d="m911.3 846.2c0.1 0.1-1.2 1.3-3.5 3.4-2.2 2-5.5 4.8-9.3 8h0.1c-1.9 2.1-4 4.5-5.9 7.1-4.5 5.8-7.9 11.4-10.3 15.6-2.3 4.1-3.5 6.8-3.7 6.7 0 0 0.2-0.7 0.7-1.9 0.5-1.3 1.3-3.1 2.4-5.2 2.2-4.3 5.5-10 10-15.8 2-2.6 4.1-5 6-7.2h0.1c3.9-3.2 7.2-5.9 9.6-7.8 2.3-1.9 3.8-3 3.8-2.9z"/><path class="k" d="m887.3 890.5c-0.3 0-1.1-4.2-1.2-9.4-0.1-5.3 0.5-9.5 0.8-9.5 0.3 0.1 0.1 4.3 0.3 9.4 0.1 5.2 0.4 9.4 0.1 9.5z"/><path class="l" d="m760.3 905.7c0.2 0.1-1.1 2.9-2.9 6.2-1.8 3.4-3.4 5.9-3.7 5.8-0.3-0.1 1-2.9 2.8-6.3 1.8-3.3 3.5-5.9 3.8-5.7z"/><path class="e" d="m360.8 288.3c-1.6 6.8 0 304.3 0 304.3l231.2-11.5 2.7 29.2 40.9-36.8 62.5-4.4v-231.6z"/><path class="i" d="m635.6 573.5l-40.9 36.8c-0.9-5.4-2.7-29.2-2.7-29.2l-231.2 11.5 0.7-31.9c12.3-22.7 19.1-40.6 47.8-54.8 54.1-26.9 152-35.9 176.3-38.8 89-10.6 112.1 24.5 112.1 24.5l0.4 77.5z"/><path class="m" d="m627.3 407.2c-0.2-22.6-4.3-69.2-8.6-111.3-4.5-45.2-43.1-79.4-88.6-78.5l-4.5 0.1c-48.6 3.9-72.6 47.3-67.4 95.9l28.8 181.6c21.4 26.1 83.5 11.7 95.2-15.1l-4.2-17.6c0 0 49.7-8.3 49.3-55.1z"/><path class="l" d="m578.2 462.8c0 0-29.9 2.4-61.8-16.7 0 0 17.8 33.2 64.4 28.1z"/><path class="f" d="m613.8 274.5c0 0-13-29-27.2-35.6-17.3-7.9-24.3 11-40.7 6.8-16.4-4.3-32.9-11.9-49.3 1.1-18 14.1-9.3 23.6-10 44.4-2.8 84.4-17.7 108.5-22.9 68.9-0.6-4.3-12.7-7.5-14.9-25.9-2.8-23.7-4.3-52.6 0.7-69.6 4.2-14.4 12.1-24.4 26.5-35.5 22.6-17.6 54.2-18.6 75.7-16.9 21.5 1.7 63.3 25.6 62.1 62.3z"/><path class="m" d="m466.6 358.8c-0.4-7.2-6.7-12.8-13.9-12-8.8 1-18.4 6.2-17.4 24.2 1.6 32 32.5 23 33.4 22.8 8.4-2.1-1.2-21.6-2.1-35z"/><path class="l" d="m461.1 382.1c-0.1-0.1-0.5 0.4-1.4 0.9-0.9 0.5-2.5 0.9-4.2 0.3-3.4-1-6.6-6.2-7-12-0.2-2.9 0.2-5.7 1.1-8.1 0.9-2.4 2.3-4.1 4-4.5 1.7-0.4 2.9 0.5 3.4 1.4 0.4 0.9 0.3 1.5 0.4 1.6 0.1 0 0.7-0.6 0.4-1.9-0.2-0.6-0.6-1.4-1.4-2-0.8-0.5-1.9-0.8-3.1-0.6-2.5 0.3-4.6 2.7-5.6 5.2-1.1 2.6-1.7 5.8-1.4 9.1 0.5 6.4 4.1 12.3 8.8 13.4 2.3 0.4 4.1-0.3 5.1-1.2 0.9-0.8 1-1.5 0.9-1.6z"/><path class="f" d="m619.1 232.6c-4.9-3.7-15.8-3.5-15.8-3.5 0 0 5.3-15.2-9.4-24.3-16.9-10.3-26.7-1.1-26.7-1.1 0 0-14.4-9.7-30.6-10.3-21.1-0.9-28.4 14.6-28.4 14.6 0 0-11.3-6.7-24.3 1.3-9.8 6.1-10.9 19-10.9 19 0 0-3.2-1.8-13.6 5.8-6.6 4.8-12.3 15.6-14.9 23.3-3.9 11.6 0.7 24.1 5.2 35.5 2.5 6.1 5.6 12.8 11.8 15.2 7.5 2.8 15.2-3.3 19.4-10.2 1.7-2.9 11.9-9.4 15.8-16.5 6.7-12.2 9.9-28.9 5-37.1 0 0-7.2-2.7 0 0 0 0 28.3 12.6 40.7 15 7.6 1.5 18.8-0.8 23.9-6.5 3.4 9 16.6 12.4 23.8 6.1 5.4 9.6 18.3 13.7 28.3 9.1 14-6.3 14.3-25.2 0.7-35.4z"/><path class="f" d="m621.7 326.3q0 0 1.3 0.2 1.3 0.2 3.8 0.5c3.3 0.5 8.3 1.2 14.8 2.1 13 1.9 32.1 4.6 56.5 8.1h0.2v0.3c0.1 53.8 0.2 134.6 0.2 231.6v0.4l-0.4 0.1c-19.8 1.4-40.9 2.8-62.5 4.4l0.3-0.2c-12.9 11.7-26.8 24.2-40.9 36.9l-0.7 0.6-0.1-1c-0.9-9.1-1.8-19.1-2.7-29.1l0.5 0.4c-26.6 1.4-54.5 2.8-82.9 4.2-51.5 2.5-101.3 5-148.2 7.3h-0.6v-0.5c-0.2-63.7-0.4-122.4-0.6-173.9 0-25.8 0.1-49.7 0.1-71.5q0.1-16.4 0.1-31.2c0.2-9.8 0.1-19 0.7-27.8v-0.2h0.3c27.1 4.1 48.5 7.2 63 9.4 7.3 1 12.8 1.9 16.6 2.4q2.8 0.5 4.3 0.7 1.4 0.2 1.4 0.3 0 0-1.4-0.2-1.5-0.2-4.3-0.6c-3.8-0.5-9.4-1.3-16.6-2.3-14.6-2.1-35.9-5.2-63.1-9.1l0.3-0.2c-0.5 8.5-0.4 17.9-0.5 27.6q-0.1 14.8-0.1 31.2c0 21.8 0 45.7 0.1 71.5 0.2 51.5 0.5 110.2 0.7 173.9l-0.5-0.5c46.9-2.3 96.7-4.8 148.2-7.4 28.4-1.4 56.3-2.8 83-4.1h0.5v0.5c0.9 10 1.9 20 2.7 29.1l-0.8-0.3c14.1-12.7 27.9-25.1 40.8-36.8l0.2-0.1h0.1c21.7-1.5 42.7-3 62.5-4.4l-0.4 0.5c0.1-97 0.2-177.8 0.2-231.6l0.2 0.2c-24.4-3.6-43.5-6.4-56.5-8.3-6.4-1-11.4-1.8-14.8-2.3q-2.4-0.3-3.7-0.6-1.3-0.2-1.3-0.2z"/><path class="f" d="m406.9 668.5l73.5 256.3 487.3 2.6c4.3 0 7.9-3.5 7.9-7.9 0-4.4-3.6-7.9-7.9-7.8l-191.9 1.1-60.8-241.8c-4.5-16.9-21.3-27.5-38.5-24.3l-258.5 3.9c-8.2 1.5-13.3 9.8-11.1 17.9z"/><path class="e" d="m572.8 773.1c7.6-3.9 17.8 0.9 22.6 10.6 4.9 9.6 2.7 20.6-4.9 24.5-7.7 3.8-17.8-0.9-22.7-10.6-4.9-9.7-2.7-20.6 5-24.5z"/><path class="i" d="m770 926.3c-0.3 0.1-17.1-61.7-37.6-137.9-20.5-76.2-36.8-138.1-36.5-138.2 0.2-0.1 17.1 61.7 37.5 137.9 20.5 76.3 36.9 138.2 36.6 138.2z"/></svg>